<mxfile host="app.diagrams.net" modified="2023-02-12T18:51:19.880Z" agent="5.0 (Windows)" etag="M0j1w0fpeDwSorKdBpxd" version="20.8.20" type="github">
  <diagram name="Page-1" id="ueU9PjgNwtYsJUrxKMyN">
    <mxGraphModel dx="1147" dy="619" grid="1" gridSize="10" guides="1" tooltips="1" connect="1" arrows="1" fold="1" page="1" pageScale="1" pageWidth="1100" pageHeight="850" math="0" shadow="0">
      <root>
        <mxCell id="0" />
        <mxCell id="1" parent="0" />
        <mxCell id="w8OnQSHXTQ-QWMvcalfN-25" value="1" style="group" vertex="1" connectable="0" parent="1">
          <mxGeometry x="620" y="80" width="400" height="1210" as="geometry" />
        </mxCell>
        <mxCell id="w8OnQSHXTQ-QWMvcalfN-36" value="" style="group" vertex="1" connectable="0" parent="w8OnQSHXTQ-QWMvcalfN-25">
          <mxGeometry x="200" width="200" height="50" as="geometry" />
        </mxCell>
        <mxCell id="w8OnQSHXTQ-QWMvcalfN-43" style="edgeStyle=orthogonalEdgeStyle;rounded=0;orthogonalLoop=1;jettySize=auto;html=1;" edge="1" parent="w8OnQSHXTQ-QWMvcalfN-36" source="w8OnQSHXTQ-QWMvcalfN-44">
          <mxGeometry relative="1" as="geometry">
            <mxPoint x="100" y="20" as="targetPoint" />
          </mxGeometry>
        </mxCell>
        <mxCell id="w8OnQSHXTQ-QWMvcalfN-48" style="edgeStyle=orthogonalEdgeStyle;rounded=0;orthogonalLoop=1;jettySize=auto;html=1;" edge="1" source="w8OnQSHXTQ-QWMvcalfN-86" parent="w8OnQSHXTQ-QWMvcalfN-36">
          <mxGeometry relative="1" as="geometry">
            <mxPoint x="110" y="120" as="targetPoint" />
          </mxGeometry>
        </mxCell>
        <mxCell id="w8OnQSHXTQ-QWMvcalfN-89" style="edgeStyle=orthogonalEdgeStyle;rounded=0;orthogonalLoop=1;jettySize=auto;html=1;" edge="1" source="w8OnQSHXTQ-QWMvcalfN-127" parent="w8OnQSHXTQ-QWMvcalfN-36">
          <mxGeometry relative="1" as="geometry">
            <mxPoint x="210" y="260" as="targetPoint" />
          </mxGeometry>
        </mxCell>
        <mxCell id="w8OnQSHXTQ-QWMvcalfN-140" style="edgeStyle=orthogonalEdgeStyle;rounded=0;orthogonalLoop=1;jettySize=auto;html=1;" edge="1" source="w8OnQSHXTQ-QWMvcalfN-178" parent="w8OnQSHXTQ-QWMvcalfN-36">
          <mxGeometry relative="1" as="geometry">
            <mxPoint x="220" y="390" as="targetPoint" />
          </mxGeometry>
        </mxCell>
        <mxCell id="w8OnQSHXTQ-QWMvcalfN-195" style="edgeStyle=orthogonalEdgeStyle;rounded=0;orthogonalLoop=1;jettySize=auto;html=1;" edge="1" source="w8OnQSHXTQ-QWMvcalfN-232" parent="w8OnQSHXTQ-QWMvcalfN-36">
          <mxGeometry relative="1" as="geometry">
            <mxPoint x="230" y="560" as="targetPoint" />
          </mxGeometry>
        </mxCell>
        <mxCell id="w8OnQSHXTQ-QWMvcalfN-255" style="edgeStyle=orthogonalEdgeStyle;rounded=0;orthogonalLoop=1;jettySize=auto;html=1;" edge="1" source="w8OnQSHXTQ-QWMvcalfN-318" parent="w8OnQSHXTQ-QWMvcalfN-36">
          <mxGeometry relative="1" as="geometry">
            <mxPoint x="230" y="830" as="targetPoint" />
          </mxGeometry>
        </mxCell>
        <mxCell id="w8OnQSHXTQ-QWMvcalfN-348" style="edgeStyle=orthogonalEdgeStyle;rounded=0;orthogonalLoop=1;jettySize=auto;html=1;" edge="1" source="w8OnQSHXTQ-QWMvcalfN-394" parent="w8OnQSHXTQ-QWMvcalfN-36">
          <mxGeometry relative="1" as="geometry">
            <mxPoint x="240" y="980" as="targetPoint" />
          </mxGeometry>
        </mxCell>
        <mxCell id="w8OnQSHXTQ-QWMvcalfN-413" style="edgeStyle=orthogonalEdgeStyle;rounded=0;orthogonalLoop=1;jettySize=auto;html=1;" edge="1" source="w8OnQSHXTQ-QWMvcalfN-457" parent="w8OnQSHXTQ-QWMvcalfN-36">
          <mxGeometry relative="1" as="geometry">
            <mxPoint x="260" y="1100" as="targetPoint" />
          </mxGeometry>
        </mxCell>
        <mxCell id="w8OnQSHXTQ-QWMvcalfN-24" value="" style="group" vertex="1" connectable="0" parent="w8OnQSHXTQ-QWMvcalfN-25">
          <mxGeometry x="-511.4285714285714" width="400" height="50" as="geometry" />
        </mxCell>
        <mxCell id="w8OnQSHXTQ-QWMvcalfN-12" value="" style="group" vertex="1" connectable="0" parent="w8OnQSHXTQ-QWMvcalfN-24">
          <mxGeometry width="200" height="50" as="geometry" />
        </mxCell>
        <mxCell id="w8OnQSHXTQ-QWMvcalfN-6" value="" style="group" vertex="1" connectable="0" parent="w8OnQSHXTQ-QWMvcalfN-12">
          <mxGeometry width="100" height="40" as="geometry" />
        </mxCell>
        <mxCell id="w8OnQSHXTQ-QWMvcalfN-1" value="&lt;font style=&quot;font-size: 26px;&quot;&gt;1&lt;/font&gt;" style="rounded=0;whiteSpace=wrap;html=1;fillColor=#f8cecc;strokeColor=#b85450;" vertex="1" parent="w8OnQSHXTQ-QWMvcalfN-6">
          <mxGeometry width="50" height="40" as="geometry" />
        </mxCell>
        <mxCell id="w8OnQSHXTQ-QWMvcalfN-3" style="edgeStyle=orthogonalEdgeStyle;rounded=0;orthogonalLoop=1;jettySize=auto;html=1;" edge="1" parent="w8OnQSHXTQ-QWMvcalfN-6" source="w8OnQSHXTQ-QWMvcalfN-2">
          <mxGeometry relative="1" as="geometry">
            <mxPoint x="100" y="20" as="targetPoint" />
          </mxGeometry>
        </mxCell>
        <mxCell id="w8OnQSHXTQ-QWMvcalfN-2" value="" style="rounded=0;whiteSpace=wrap;html=1;fillColor=#a20025;fontColor=#ffffff;strokeColor=#6F0000;" vertex="1" parent="w8OnQSHXTQ-QWMvcalfN-6">
          <mxGeometry x="50" width="25" height="40" as="geometry" />
        </mxCell>
        <mxCell id="w8OnQSHXTQ-QWMvcalfN-7" value="" style="group" vertex="1" connectable="0" parent="w8OnQSHXTQ-QWMvcalfN-12">
          <mxGeometry x="7.142857142857142" y="10" width="100" height="40" as="geometry" />
        </mxCell>
        <mxCell id="w8OnQSHXTQ-QWMvcalfN-9" style="edgeStyle=orthogonalEdgeStyle;rounded=0;orthogonalLoop=1;jettySize=auto;html=1;" edge="1" parent="w8OnQSHXTQ-QWMvcalfN-7" source="w8OnQSHXTQ-QWMvcalfN-10">
          <mxGeometry relative="1" as="geometry">
            <mxPoint x="100" y="20" as="targetPoint" />
          </mxGeometry>
        </mxCell>
        <mxCell id="w8OnQSHXTQ-QWMvcalfN-11" style="edgeStyle=orthogonalEdgeStyle;rounded=0;orthogonalLoop=1;jettySize=auto;html=1;" edge="1" parent="w8OnQSHXTQ-QWMvcalfN-12" source="w8OnQSHXTQ-QWMvcalfN-10">
          <mxGeometry relative="1" as="geometry">
            <mxPoint x="200" y="20" as="targetPoint" />
          </mxGeometry>
        </mxCell>
        <mxCell id="w8OnQSHXTQ-QWMvcalfN-10" value="" style="rounded=0;whiteSpace=wrap;html=1;fillColor=#a20025;fontColor=#ffffff;strokeColor=#6F0000;" vertex="1" parent="w8OnQSHXTQ-QWMvcalfN-12">
          <mxGeometry x="150" width="25" height="40" as="geometry" />
        </mxCell>
        <mxCell id="w8OnQSHXTQ-QWMvcalfN-8" value="&lt;font style=&quot;font-size: 26px;&quot;&gt;2&lt;/font&gt;" style="rounded=0;whiteSpace=wrap;html=1;fillColor=#f8cecc;strokeColor=#b85450;" vertex="1" parent="w8OnQSHXTQ-QWMvcalfN-12">
          <mxGeometry x="100" width="50" height="40" as="geometry" />
        </mxCell>
        <mxCell id="w8OnQSHXTQ-QWMvcalfN-14" value="" style="group" vertex="1" connectable="0" parent="w8OnQSHXTQ-QWMvcalfN-24">
          <mxGeometry x="200" width="200" height="50" as="geometry" />
        </mxCell>
        <mxCell id="w8OnQSHXTQ-QWMvcalfN-15" value="" style="group" vertex="1" connectable="0" parent="w8OnQSHXTQ-QWMvcalfN-14">
          <mxGeometry width="100" height="40" as="geometry" />
        </mxCell>
        <mxCell id="w8OnQSHXTQ-QWMvcalfN-16" value="&lt;font style=&quot;font-size: 26px;&quot;&gt;10&lt;/font&gt;" style="rounded=0;whiteSpace=wrap;html=1;fillColor=#f8cecc;strokeColor=#b85450;" vertex="1" parent="w8OnQSHXTQ-QWMvcalfN-15">
          <mxGeometry width="50" height="40" as="geometry" />
        </mxCell>
        <mxCell id="w8OnQSHXTQ-QWMvcalfN-17" style="edgeStyle=orthogonalEdgeStyle;rounded=0;orthogonalLoop=1;jettySize=auto;html=1;" edge="1" parent="w8OnQSHXTQ-QWMvcalfN-15" source="w8OnQSHXTQ-QWMvcalfN-18">
          <mxGeometry relative="1" as="geometry">
            <mxPoint x="100" y="20" as="targetPoint" />
          </mxGeometry>
        </mxCell>
        <mxCell id="w8OnQSHXTQ-QWMvcalfN-18" value="" style="rounded=0;whiteSpace=wrap;html=1;fillColor=#a20025;fontColor=#ffffff;strokeColor=#6F0000;" vertex="1" parent="w8OnQSHXTQ-QWMvcalfN-15">
          <mxGeometry x="50" width="25" height="40" as="geometry" />
        </mxCell>
        <mxCell id="w8OnQSHXTQ-QWMvcalfN-19" value="" style="group" vertex="1" connectable="0" parent="w8OnQSHXTQ-QWMvcalfN-14">
          <mxGeometry x="7.142857142857142" y="10" width="100" height="40" as="geometry" />
        </mxCell>
        <mxCell id="w8OnQSHXTQ-QWMvcalfN-20" style="edgeStyle=orthogonalEdgeStyle;rounded=0;orthogonalLoop=1;jettySize=auto;html=1;" edge="1" parent="w8OnQSHXTQ-QWMvcalfN-19" source="w8OnQSHXTQ-QWMvcalfN-22">
          <mxGeometry relative="1" as="geometry">
            <mxPoint x="100" y="20" as="targetPoint" />
          </mxGeometry>
        </mxCell>
        <mxCell id="w8OnQSHXTQ-QWMvcalfN-21" style="edgeStyle=orthogonalEdgeStyle;rounded=0;orthogonalLoop=1;jettySize=auto;html=1;" edge="1" parent="w8OnQSHXTQ-QWMvcalfN-14" source="w8OnQSHXTQ-QWMvcalfN-22">
          <mxGeometry relative="1" as="geometry">
            <mxPoint x="200" y="20" as="targetPoint" />
          </mxGeometry>
        </mxCell>
        <mxCell id="w8OnQSHXTQ-QWMvcalfN-22" value="" style="rounded=0;whiteSpace=wrap;html=1;fillColor=#a20025;fontColor=#ffffff;strokeColor=#6F0000;" vertex="1" parent="w8OnQSHXTQ-QWMvcalfN-14">
          <mxGeometry x="150" width="25" height="40" as="geometry" />
        </mxCell>
        <mxCell id="w8OnQSHXTQ-QWMvcalfN-23" value="&lt;font style=&quot;font-size: 26px;&quot;&gt;20&lt;/font&gt;" style="rounded=0;whiteSpace=wrap;html=1;fillColor=#f8cecc;strokeColor=#b85450;" vertex="1" parent="w8OnQSHXTQ-QWMvcalfN-14">
          <mxGeometry x="100" width="50" height="40" as="geometry" />
        </mxCell>
        <mxCell id="w8OnQSHXTQ-QWMvcalfN-26" value="" style="group" vertex="1" connectable="0" parent="w8OnQSHXTQ-QWMvcalfN-25">
          <mxGeometry x="-111.42857142857142" width="200" height="50" as="geometry" />
        </mxCell>
        <mxCell id="w8OnQSHXTQ-QWMvcalfN-27" value="" style="group" vertex="1" connectable="0" parent="w8OnQSHXTQ-QWMvcalfN-26">
          <mxGeometry width="100" height="40" as="geometry" />
        </mxCell>
        <mxCell id="w8OnQSHXTQ-QWMvcalfN-28" value="&lt;font style=&quot;font-size: 26px;&quot;&gt;30&lt;/font&gt;" style="rounded=0;whiteSpace=wrap;html=1;fillColor=#f8cecc;strokeColor=#b85450;" vertex="1" parent="w8OnQSHXTQ-QWMvcalfN-27">
          <mxGeometry width="50" height="40" as="geometry" />
        </mxCell>
        <mxCell id="w8OnQSHXTQ-QWMvcalfN-29" style="edgeStyle=orthogonalEdgeStyle;rounded=0;orthogonalLoop=1;jettySize=auto;html=1;" edge="1" parent="w8OnQSHXTQ-QWMvcalfN-27" source="w8OnQSHXTQ-QWMvcalfN-30">
          <mxGeometry relative="1" as="geometry">
            <mxPoint x="100" y="20" as="targetPoint" />
          </mxGeometry>
        </mxCell>
        <mxCell id="w8OnQSHXTQ-QWMvcalfN-30" value="" style="rounded=0;whiteSpace=wrap;html=1;fillColor=#a20025;fontColor=#ffffff;strokeColor=#6F0000;" vertex="1" parent="w8OnQSHXTQ-QWMvcalfN-27">
          <mxGeometry x="50" width="25" height="40" as="geometry" />
        </mxCell>
        <mxCell id="w8OnQSHXTQ-QWMvcalfN-31" value="" style="group" vertex="1" connectable="0" parent="w8OnQSHXTQ-QWMvcalfN-26">
          <mxGeometry x="7.142857142857142" y="10" width="100" height="40" as="geometry" />
        </mxCell>
        <mxCell id="w8OnQSHXTQ-QWMvcalfN-32" style="edgeStyle=orthogonalEdgeStyle;rounded=0;orthogonalLoop=1;jettySize=auto;html=1;" edge="1" parent="w8OnQSHXTQ-QWMvcalfN-31" source="w8OnQSHXTQ-QWMvcalfN-34">
          <mxGeometry relative="1" as="geometry">
            <mxPoint x="100" y="20" as="targetPoint" />
          </mxGeometry>
        </mxCell>
        <mxCell id="w8OnQSHXTQ-QWMvcalfN-33" style="edgeStyle=orthogonalEdgeStyle;rounded=0;orthogonalLoop=1;jettySize=auto;html=1;" edge="1" parent="w8OnQSHXTQ-QWMvcalfN-26" source="w8OnQSHXTQ-QWMvcalfN-34">
          <mxGeometry relative="1" as="geometry">
            <mxPoint x="200" y="20" as="targetPoint" />
          </mxGeometry>
        </mxCell>
        <mxCell id="w8OnQSHXTQ-QWMvcalfN-34" value="" style="rounded=0;whiteSpace=wrap;html=1;fillColor=#a20025;fontColor=#ffffff;strokeColor=#6F0000;" vertex="1" parent="w8OnQSHXTQ-QWMvcalfN-26">
          <mxGeometry x="150" width="25" height="40" as="geometry" />
        </mxCell>
        <mxCell id="w8OnQSHXTQ-QWMvcalfN-35" value="&lt;font style=&quot;font-size: 26px;&quot;&gt;40&lt;/font&gt;" style="rounded=0;whiteSpace=wrap;html=1;fillColor=#f8cecc;strokeColor=#b85450;" vertex="1" parent="w8OnQSHXTQ-QWMvcalfN-26">
          <mxGeometry x="100" width="50" height="40" as="geometry" />
        </mxCell>
        <mxCell id="w8OnQSHXTQ-QWMvcalfN-37" value="" style="group" vertex="1" connectable="0" parent="w8OnQSHXTQ-QWMvcalfN-25">
          <mxGeometry x="88.57142857142858" width="100" height="40" as="geometry" />
        </mxCell>
        <mxCell id="w8OnQSHXTQ-QWMvcalfN-38" value="&lt;font style=&quot;font-size: 26px;&quot;&gt;5&lt;/font&gt;" style="rounded=0;whiteSpace=wrap;html=1;fillColor=#f8cecc;strokeColor=#b85450;" vertex="1" parent="w8OnQSHXTQ-QWMvcalfN-37">
          <mxGeometry width="50" height="40" as="geometry" />
        </mxCell>
        <mxCell id="w8OnQSHXTQ-QWMvcalfN-39" style="edgeStyle=orthogonalEdgeStyle;rounded=0;orthogonalLoop=1;jettySize=auto;html=1;" edge="1" parent="w8OnQSHXTQ-QWMvcalfN-37" source="w8OnQSHXTQ-QWMvcalfN-40">
          <mxGeometry relative="1" as="geometry">
            <mxPoint x="100" y="20" as="targetPoint" />
          </mxGeometry>
        </mxCell>
        <mxCell id="w8OnQSHXTQ-QWMvcalfN-40" value="" style="rounded=0;whiteSpace=wrap;html=1;fillColor=#a20025;fontColor=#ffffff;strokeColor=#6F0000;" vertex="1" parent="w8OnQSHXTQ-QWMvcalfN-37">
          <mxGeometry x="50" width="25" height="40" as="geometry" />
        </mxCell>
        <mxCell id="w8OnQSHXTQ-QWMvcalfN-41" value="" style="group" vertex="1" connectable="0" parent="w8OnQSHXTQ-QWMvcalfN-25">
          <mxGeometry x="95.7142857142857" y="10" width="100" height="40" as="geometry" />
        </mxCell>
        <mxCell id="w8OnQSHXTQ-QWMvcalfN-42" style="edgeStyle=orthogonalEdgeStyle;rounded=0;orthogonalLoop=1;jettySize=auto;html=1;" edge="1" parent="w8OnQSHXTQ-QWMvcalfN-41" source="w8OnQSHXTQ-QWMvcalfN-44">
          <mxGeometry relative="1" as="geometry">
            <mxPoint x="100" y="20" as="targetPoint" />
          </mxGeometry>
        </mxCell>
        <mxCell id="w8OnQSHXTQ-QWMvcalfN-44" value="" style="rounded=0;whiteSpace=wrap;html=1;fillColor=#a20025;fontColor=#ffffff;strokeColor=#6F0000;" vertex="1" parent="w8OnQSHXTQ-QWMvcalfN-25">
          <mxGeometry x="238.57142857142856" width="25" height="40" as="geometry" />
        </mxCell>
        <mxCell id="w8OnQSHXTQ-QWMvcalfN-45" value="&lt;font style=&quot;font-size: 27px;&quot;&gt;7&lt;/font&gt;" style="rounded=0;whiteSpace=wrap;html=1;fillColor=#f8cecc;strokeColor=#b85450;" vertex="1" parent="w8OnQSHXTQ-QWMvcalfN-25">
          <mxGeometry x="188.57142857142856" width="50" height="40" as="geometry" />
        </mxCell>
        <mxCell id="w8OnQSHXTQ-QWMvcalfN-49" value="" style="group" vertex="1" connectable="0" parent="w8OnQSHXTQ-QWMvcalfN-25">
          <mxGeometry x="-501.4285714285714" y="100" width="400" height="50" as="geometry" />
        </mxCell>
        <mxCell id="w8OnQSHXTQ-QWMvcalfN-50" value="" style="group" vertex="1" connectable="0" parent="w8OnQSHXTQ-QWMvcalfN-49">
          <mxGeometry width="200" height="50" as="geometry" />
        </mxCell>
        <mxCell id="w8OnQSHXTQ-QWMvcalfN-51" value="" style="group" vertex="1" connectable="0" parent="w8OnQSHXTQ-QWMvcalfN-50">
          <mxGeometry width="100" height="40" as="geometry" />
        </mxCell>
        <mxCell id="w8OnQSHXTQ-QWMvcalfN-52" value="&lt;font style=&quot;font-size: 26px;&quot;&gt;1&lt;/font&gt;" style="rounded=0;whiteSpace=wrap;html=1;fillColor=#f8cecc;strokeColor=#b85450;" vertex="1" parent="w8OnQSHXTQ-QWMvcalfN-51">
          <mxGeometry width="50" height="40" as="geometry" />
        </mxCell>
        <mxCell id="w8OnQSHXTQ-QWMvcalfN-53" style="edgeStyle=orthogonalEdgeStyle;rounded=0;orthogonalLoop=1;jettySize=auto;html=1;" edge="1" parent="w8OnQSHXTQ-QWMvcalfN-51" source="w8OnQSHXTQ-QWMvcalfN-54">
          <mxGeometry relative="1" as="geometry">
            <mxPoint x="100" y="20" as="targetPoint" />
          </mxGeometry>
        </mxCell>
        <mxCell id="w8OnQSHXTQ-QWMvcalfN-54" value="" style="rounded=0;whiteSpace=wrap;html=1;fillColor=#a20025;fontColor=#ffffff;strokeColor=#6F0000;" vertex="1" parent="w8OnQSHXTQ-QWMvcalfN-51">
          <mxGeometry x="50" width="25" height="40" as="geometry" />
        </mxCell>
        <mxCell id="w8OnQSHXTQ-QWMvcalfN-55" value="" style="group" vertex="1" connectable="0" parent="w8OnQSHXTQ-QWMvcalfN-50">
          <mxGeometry x="7.142857142857142" y="10" width="100" height="40" as="geometry" />
        </mxCell>
        <mxCell id="w8OnQSHXTQ-QWMvcalfN-56" style="edgeStyle=orthogonalEdgeStyle;rounded=0;orthogonalLoop=1;jettySize=auto;html=1;" edge="1" parent="w8OnQSHXTQ-QWMvcalfN-55" source="w8OnQSHXTQ-QWMvcalfN-58">
          <mxGeometry relative="1" as="geometry">
            <mxPoint x="100" y="20" as="targetPoint" />
          </mxGeometry>
        </mxCell>
        <mxCell id="w8OnQSHXTQ-QWMvcalfN-57" style="edgeStyle=orthogonalEdgeStyle;rounded=0;orthogonalLoop=1;jettySize=auto;html=1;" edge="1" parent="w8OnQSHXTQ-QWMvcalfN-50" source="w8OnQSHXTQ-QWMvcalfN-58">
          <mxGeometry relative="1" as="geometry">
            <mxPoint x="200" y="20" as="targetPoint" />
          </mxGeometry>
        </mxCell>
        <mxCell id="w8OnQSHXTQ-QWMvcalfN-58" value="" style="rounded=0;whiteSpace=wrap;html=1;fillColor=#a20025;fontColor=#ffffff;strokeColor=#6F0000;" vertex="1" parent="w8OnQSHXTQ-QWMvcalfN-50">
          <mxGeometry x="150" width="25" height="40" as="geometry" />
        </mxCell>
        <mxCell id="w8OnQSHXTQ-QWMvcalfN-59" value="&lt;font style=&quot;font-size: 26px;&quot;&gt;2&lt;/font&gt;" style="rounded=0;whiteSpace=wrap;html=1;fillColor=#f8cecc;strokeColor=#b85450;" vertex="1" parent="w8OnQSHXTQ-QWMvcalfN-50">
          <mxGeometry x="100" width="50" height="40" as="geometry" />
        </mxCell>
        <mxCell id="w8OnQSHXTQ-QWMvcalfN-60" value="" style="group" vertex="1" connectable="0" parent="w8OnQSHXTQ-QWMvcalfN-49">
          <mxGeometry x="200" width="200" height="50" as="geometry" />
        </mxCell>
        <mxCell id="w8OnQSHXTQ-QWMvcalfN-61" value="" style="group" vertex="1" connectable="0" parent="w8OnQSHXTQ-QWMvcalfN-60">
          <mxGeometry width="100" height="40" as="geometry" />
        </mxCell>
        <mxCell id="w8OnQSHXTQ-QWMvcalfN-62" value="&lt;font style=&quot;font-size: 26px;&quot;&gt;40&lt;/font&gt;" style="rounded=0;whiteSpace=wrap;html=1;fillColor=#1ba1e2;strokeColor=#006EAF;fontColor=#ffffff;" vertex="1" parent="w8OnQSHXTQ-QWMvcalfN-61">
          <mxGeometry width="50" height="40" as="geometry" />
        </mxCell>
        <mxCell id="w8OnQSHXTQ-QWMvcalfN-63" style="edgeStyle=orthogonalEdgeStyle;rounded=0;orthogonalLoop=1;jettySize=auto;html=1;" edge="1" parent="w8OnQSHXTQ-QWMvcalfN-61" source="w8OnQSHXTQ-QWMvcalfN-64">
          <mxGeometry relative="1" as="geometry">
            <mxPoint x="100" y="20" as="targetPoint" />
          </mxGeometry>
        </mxCell>
        <mxCell id="w8OnQSHXTQ-QWMvcalfN-64" value="" style="rounded=0;whiteSpace=wrap;html=1;fillColor=#a20025;fontColor=#ffffff;strokeColor=#6F0000;" vertex="1" parent="w8OnQSHXTQ-QWMvcalfN-61">
          <mxGeometry x="50" width="25" height="40" as="geometry" />
        </mxCell>
        <mxCell id="w8OnQSHXTQ-QWMvcalfN-65" value="" style="group" vertex="1" connectable="0" parent="w8OnQSHXTQ-QWMvcalfN-60">
          <mxGeometry x="7.142857142857142" y="10" width="100" height="40" as="geometry" />
        </mxCell>
        <mxCell id="w8OnQSHXTQ-QWMvcalfN-66" style="edgeStyle=orthogonalEdgeStyle;rounded=0;orthogonalLoop=1;jettySize=auto;html=1;" edge="1" parent="w8OnQSHXTQ-QWMvcalfN-65" source="w8OnQSHXTQ-QWMvcalfN-68">
          <mxGeometry relative="1" as="geometry">
            <mxPoint x="100" y="20" as="targetPoint" />
          </mxGeometry>
        </mxCell>
        <mxCell id="w8OnQSHXTQ-QWMvcalfN-67" style="edgeStyle=orthogonalEdgeStyle;rounded=0;orthogonalLoop=1;jettySize=auto;html=1;" edge="1" parent="w8OnQSHXTQ-QWMvcalfN-60" source="w8OnQSHXTQ-QWMvcalfN-68">
          <mxGeometry relative="1" as="geometry">
            <mxPoint x="200" y="20" as="targetPoint" />
          </mxGeometry>
        </mxCell>
        <mxCell id="w8OnQSHXTQ-QWMvcalfN-68" value="" style="rounded=0;whiteSpace=wrap;html=1;fillColor=#a20025;fontColor=#ffffff;strokeColor=#6F0000;" vertex="1" parent="w8OnQSHXTQ-QWMvcalfN-60">
          <mxGeometry x="150" width="25" height="40" as="geometry" />
        </mxCell>
        <mxCell id="w8OnQSHXTQ-QWMvcalfN-69" value="&lt;font style=&quot;font-size: 26px;&quot;&gt;30&lt;/font&gt;" style="rounded=0;whiteSpace=wrap;html=1;fillColor=#1ba1e2;strokeColor=#006EAF;fontColor=#ffffff;" vertex="1" parent="w8OnQSHXTQ-QWMvcalfN-60">
          <mxGeometry x="100" width="50" height="40" as="geometry" />
        </mxCell>
        <mxCell id="w8OnQSHXTQ-QWMvcalfN-70" value="" style="group" vertex="1" connectable="0" parent="w8OnQSHXTQ-QWMvcalfN-25">
          <mxGeometry x="-101.42857142857142" y="100" width="200" height="50" as="geometry" />
        </mxCell>
        <mxCell id="w8OnQSHXTQ-QWMvcalfN-71" value="" style="group" vertex="1" connectable="0" parent="w8OnQSHXTQ-QWMvcalfN-70">
          <mxGeometry width="100" height="40" as="geometry" />
        </mxCell>
        <mxCell id="w8OnQSHXTQ-QWMvcalfN-72" value="&lt;font style=&quot;font-size: 26px;&quot;&gt;20&lt;/font&gt;" style="rounded=0;whiteSpace=wrap;html=1;fillColor=#1ba1e2;strokeColor=#006EAF;fontColor=#ffffff;" vertex="1" parent="w8OnQSHXTQ-QWMvcalfN-71">
          <mxGeometry width="50" height="40" as="geometry" />
        </mxCell>
        <mxCell id="w8OnQSHXTQ-QWMvcalfN-73" style="edgeStyle=orthogonalEdgeStyle;rounded=0;orthogonalLoop=1;jettySize=auto;html=1;" edge="1" parent="w8OnQSHXTQ-QWMvcalfN-71" source="w8OnQSHXTQ-QWMvcalfN-74">
          <mxGeometry relative="1" as="geometry">
            <mxPoint x="100" y="20" as="targetPoint" />
          </mxGeometry>
        </mxCell>
        <mxCell id="w8OnQSHXTQ-QWMvcalfN-74" value="" style="rounded=0;whiteSpace=wrap;html=1;fillColor=#a20025;fontColor=#ffffff;strokeColor=#6F0000;" vertex="1" parent="w8OnQSHXTQ-QWMvcalfN-71">
          <mxGeometry x="50" width="25" height="40" as="geometry" />
        </mxCell>
        <mxCell id="w8OnQSHXTQ-QWMvcalfN-75" value="" style="group" vertex="1" connectable="0" parent="w8OnQSHXTQ-QWMvcalfN-70">
          <mxGeometry x="7.142857142857142" y="10" width="100" height="40" as="geometry" />
        </mxCell>
        <mxCell id="w8OnQSHXTQ-QWMvcalfN-76" style="edgeStyle=orthogonalEdgeStyle;rounded=0;orthogonalLoop=1;jettySize=auto;html=1;" edge="1" parent="w8OnQSHXTQ-QWMvcalfN-75" source="w8OnQSHXTQ-QWMvcalfN-78">
          <mxGeometry relative="1" as="geometry">
            <mxPoint x="100" y="20" as="targetPoint" />
          </mxGeometry>
        </mxCell>
        <mxCell id="w8OnQSHXTQ-QWMvcalfN-77" style="edgeStyle=orthogonalEdgeStyle;rounded=0;orthogonalLoop=1;jettySize=auto;html=1;" edge="1" parent="w8OnQSHXTQ-QWMvcalfN-70" source="w8OnQSHXTQ-QWMvcalfN-78">
          <mxGeometry relative="1" as="geometry">
            <mxPoint x="200" y="20" as="targetPoint" />
          </mxGeometry>
        </mxCell>
        <mxCell id="w8OnQSHXTQ-QWMvcalfN-78" value="" style="rounded=0;whiteSpace=wrap;html=1;fillColor=#a20025;fontColor=#ffffff;strokeColor=#6F0000;" vertex="1" parent="w8OnQSHXTQ-QWMvcalfN-70">
          <mxGeometry x="150" width="25" height="40" as="geometry" />
        </mxCell>
        <mxCell id="w8OnQSHXTQ-QWMvcalfN-79" value="&lt;font style=&quot;font-size: 26px;&quot;&gt;10&lt;/font&gt;" style="rounded=0;whiteSpace=wrap;html=1;fillColor=#1ba1e2;strokeColor=#006EAF;fontColor=#ffffff;" vertex="1" parent="w8OnQSHXTQ-QWMvcalfN-70">
          <mxGeometry x="100" width="50" height="40" as="geometry" />
        </mxCell>
        <mxCell id="w8OnQSHXTQ-QWMvcalfN-80" value="" style="group" vertex="1" connectable="0" parent="w8OnQSHXTQ-QWMvcalfN-25">
          <mxGeometry x="98.57142857142858" y="100" width="100" height="40" as="geometry" />
        </mxCell>
        <mxCell id="w8OnQSHXTQ-QWMvcalfN-81" value="&lt;font style=&quot;font-size: 26px;&quot;&gt;5&lt;/font&gt;" style="rounded=0;whiteSpace=wrap;html=1;fillColor=#f8cecc;strokeColor=#b85450;" vertex="1" parent="w8OnQSHXTQ-QWMvcalfN-80">
          <mxGeometry width="50" height="40" as="geometry" />
        </mxCell>
        <mxCell id="w8OnQSHXTQ-QWMvcalfN-82" style="edgeStyle=orthogonalEdgeStyle;rounded=0;orthogonalLoop=1;jettySize=auto;html=1;" edge="1" parent="w8OnQSHXTQ-QWMvcalfN-80" source="w8OnQSHXTQ-QWMvcalfN-83">
          <mxGeometry relative="1" as="geometry">
            <mxPoint x="100" y="20" as="targetPoint" />
          </mxGeometry>
        </mxCell>
        <mxCell id="w8OnQSHXTQ-QWMvcalfN-83" value="" style="rounded=0;whiteSpace=wrap;html=1;fillColor=#a20025;fontColor=#ffffff;strokeColor=#6F0000;" vertex="1" parent="w8OnQSHXTQ-QWMvcalfN-80">
          <mxGeometry x="50" width="25" height="40" as="geometry" />
        </mxCell>
        <mxCell id="w8OnQSHXTQ-QWMvcalfN-84" value="" style="group" vertex="1" connectable="0" parent="w8OnQSHXTQ-QWMvcalfN-25">
          <mxGeometry x="105.7142857142857" y="110" width="100" height="40" as="geometry" />
        </mxCell>
        <mxCell id="w8OnQSHXTQ-QWMvcalfN-85" style="edgeStyle=orthogonalEdgeStyle;rounded=0;orthogonalLoop=1;jettySize=auto;html=1;" edge="1" parent="w8OnQSHXTQ-QWMvcalfN-84" source="w8OnQSHXTQ-QWMvcalfN-86">
          <mxGeometry relative="1" as="geometry">
            <mxPoint x="100" y="20" as="targetPoint" />
          </mxGeometry>
        </mxCell>
        <mxCell id="w8OnQSHXTQ-QWMvcalfN-86" value="" style="rounded=0;whiteSpace=wrap;html=1;fillColor=#a20025;fontColor=#ffffff;strokeColor=#6F0000;" vertex="1" parent="w8OnQSHXTQ-QWMvcalfN-25">
          <mxGeometry x="248.57142857142856" y="100" width="25" height="40" as="geometry" />
        </mxCell>
        <mxCell id="w8OnQSHXTQ-QWMvcalfN-87" value="&lt;font style=&quot;font-size: 27px;&quot;&gt;7&lt;/font&gt;" style="rounded=0;whiteSpace=wrap;html=1;fillColor=#f8cecc;strokeColor=#b85450;" vertex="1" parent="w8OnQSHXTQ-QWMvcalfN-25">
          <mxGeometry x="198.57142857142856" y="100" width="50" height="40" as="geometry" />
        </mxCell>
        <mxCell id="w8OnQSHXTQ-QWMvcalfN-90" value="" style="group" vertex="1" connectable="0" parent="w8OnQSHXTQ-QWMvcalfN-25">
          <mxGeometry x="-401.4285714285714" y="240" width="400" height="50" as="geometry" />
        </mxCell>
        <mxCell id="w8OnQSHXTQ-QWMvcalfN-91" value="" style="group" vertex="1" connectable="0" parent="w8OnQSHXTQ-QWMvcalfN-90">
          <mxGeometry width="200" height="50" as="geometry" />
        </mxCell>
        <mxCell id="w8OnQSHXTQ-QWMvcalfN-92" value="" style="group" vertex="1" connectable="0" parent="w8OnQSHXTQ-QWMvcalfN-91">
          <mxGeometry width="100" height="40" as="geometry" />
        </mxCell>
        <mxCell id="w8OnQSHXTQ-QWMvcalfN-93" value="&lt;font style=&quot;font-size: 26px;&quot;&gt;1&lt;/font&gt;" style="rounded=0;whiteSpace=wrap;html=1;fillColor=#f8cecc;strokeColor=#b85450;" vertex="1" parent="w8OnQSHXTQ-QWMvcalfN-92">
          <mxGeometry width="50" height="40" as="geometry" />
        </mxCell>
        <mxCell id="w8OnQSHXTQ-QWMvcalfN-94" style="edgeStyle=orthogonalEdgeStyle;rounded=0;orthogonalLoop=1;jettySize=auto;html=1;" edge="1" parent="w8OnQSHXTQ-QWMvcalfN-92" source="w8OnQSHXTQ-QWMvcalfN-95">
          <mxGeometry relative="1" as="geometry">
            <mxPoint x="100" y="20" as="targetPoint" />
          </mxGeometry>
        </mxCell>
        <mxCell id="w8OnQSHXTQ-QWMvcalfN-95" value="" style="rounded=0;whiteSpace=wrap;html=1;fillColor=#a20025;fontColor=#ffffff;strokeColor=#6F0000;" vertex="1" parent="w8OnQSHXTQ-QWMvcalfN-92">
          <mxGeometry x="50" width="25" height="40" as="geometry" />
        </mxCell>
        <mxCell id="w8OnQSHXTQ-QWMvcalfN-96" value="" style="group" vertex="1" connectable="0" parent="w8OnQSHXTQ-QWMvcalfN-91">
          <mxGeometry x="7.142857142857142" y="10" width="100" height="40" as="geometry" />
        </mxCell>
        <mxCell id="w8OnQSHXTQ-QWMvcalfN-97" style="edgeStyle=orthogonalEdgeStyle;rounded=0;orthogonalLoop=1;jettySize=auto;html=1;" edge="1" parent="w8OnQSHXTQ-QWMvcalfN-96" source="w8OnQSHXTQ-QWMvcalfN-99">
          <mxGeometry relative="1" as="geometry">
            <mxPoint x="100" y="20" as="targetPoint" />
          </mxGeometry>
        </mxCell>
        <mxCell id="w8OnQSHXTQ-QWMvcalfN-98" style="edgeStyle=orthogonalEdgeStyle;rounded=0;orthogonalLoop=1;jettySize=auto;html=1;" edge="1" parent="w8OnQSHXTQ-QWMvcalfN-91" source="w8OnQSHXTQ-QWMvcalfN-99">
          <mxGeometry relative="1" as="geometry">
            <mxPoint x="200" y="20" as="targetPoint" />
          </mxGeometry>
        </mxCell>
        <mxCell id="w8OnQSHXTQ-QWMvcalfN-99" value="" style="rounded=0;whiteSpace=wrap;html=1;fillColor=#a20025;fontColor=#ffffff;strokeColor=#6F0000;" vertex="1" parent="w8OnQSHXTQ-QWMvcalfN-91">
          <mxGeometry x="150" width="25" height="40" as="geometry" />
        </mxCell>
        <mxCell id="w8OnQSHXTQ-QWMvcalfN-100" value="&lt;font style=&quot;font-size: 26px;&quot;&gt;2&lt;/font&gt;" style="rounded=0;whiteSpace=wrap;html=1;fillColor=#f8cecc;strokeColor=#b85450;" vertex="1" parent="w8OnQSHXTQ-QWMvcalfN-91">
          <mxGeometry x="100" width="50" height="40" as="geometry" />
        </mxCell>
        <mxCell id="w8OnQSHXTQ-QWMvcalfN-101" value="" style="group" vertex="1" connectable="0" parent="w8OnQSHXTQ-QWMvcalfN-90">
          <mxGeometry x="200" width="200" height="50" as="geometry" />
        </mxCell>
        <mxCell id="w8OnQSHXTQ-QWMvcalfN-102" value="" style="group" vertex="1" connectable="0" parent="w8OnQSHXTQ-QWMvcalfN-101">
          <mxGeometry width="100" height="40" as="geometry" />
        </mxCell>
        <mxCell id="w8OnQSHXTQ-QWMvcalfN-103" value="&lt;font style=&quot;font-size: 26px;&quot;&gt;10&lt;/font&gt;" style="rounded=0;whiteSpace=wrap;html=1;fillColor=#f8cecc;strokeColor=#b85450;" vertex="1" parent="w8OnQSHXTQ-QWMvcalfN-102">
          <mxGeometry width="50" height="40" as="geometry" />
        </mxCell>
        <mxCell id="w8OnQSHXTQ-QWMvcalfN-104" style="edgeStyle=orthogonalEdgeStyle;rounded=0;orthogonalLoop=1;jettySize=auto;html=1;" edge="1" parent="w8OnQSHXTQ-QWMvcalfN-102" source="w8OnQSHXTQ-QWMvcalfN-105">
          <mxGeometry relative="1" as="geometry">
            <mxPoint x="100" y="20" as="targetPoint" />
          </mxGeometry>
        </mxCell>
        <mxCell id="w8OnQSHXTQ-QWMvcalfN-105" value="" style="rounded=0;whiteSpace=wrap;html=1;fillColor=#a20025;fontColor=#ffffff;strokeColor=#6F0000;" vertex="1" parent="w8OnQSHXTQ-QWMvcalfN-102">
          <mxGeometry x="50" width="25" height="40" as="geometry" />
        </mxCell>
        <mxCell id="w8OnQSHXTQ-QWMvcalfN-106" value="" style="group" vertex="1" connectable="0" parent="w8OnQSHXTQ-QWMvcalfN-101">
          <mxGeometry x="7.142857142857142" y="10" width="100" height="40" as="geometry" />
        </mxCell>
        <mxCell id="w8OnQSHXTQ-QWMvcalfN-107" style="edgeStyle=orthogonalEdgeStyle;rounded=0;orthogonalLoop=1;jettySize=auto;html=1;" edge="1" parent="w8OnQSHXTQ-QWMvcalfN-106" source="w8OnQSHXTQ-QWMvcalfN-109">
          <mxGeometry relative="1" as="geometry">
            <mxPoint x="100" y="20" as="targetPoint" />
          </mxGeometry>
        </mxCell>
        <mxCell id="w8OnQSHXTQ-QWMvcalfN-108" style="edgeStyle=orthogonalEdgeStyle;rounded=0;orthogonalLoop=1;jettySize=auto;html=1;" edge="1" parent="w8OnQSHXTQ-QWMvcalfN-101" source="w8OnQSHXTQ-QWMvcalfN-109">
          <mxGeometry relative="1" as="geometry">
            <mxPoint x="200" y="20" as="targetPoint" />
          </mxGeometry>
        </mxCell>
        <mxCell id="w8OnQSHXTQ-QWMvcalfN-109" value="" style="rounded=0;whiteSpace=wrap;html=1;fillColor=#a20025;fontColor=#ffffff;strokeColor=#6F0000;" vertex="1" parent="w8OnQSHXTQ-QWMvcalfN-101">
          <mxGeometry x="150" width="25" height="40" as="geometry" />
        </mxCell>
        <mxCell id="w8OnQSHXTQ-QWMvcalfN-110" value="&lt;font style=&quot;font-size: 26px;&quot;&gt;20&lt;/font&gt;" style="rounded=0;whiteSpace=wrap;html=1;fillColor=#f8cecc;strokeColor=#b85450;" vertex="1" parent="w8OnQSHXTQ-QWMvcalfN-101">
          <mxGeometry x="100" width="50" height="40" as="geometry" />
        </mxCell>
        <mxCell id="w8OnQSHXTQ-QWMvcalfN-111" value="" style="group" vertex="1" connectable="0" parent="w8OnQSHXTQ-QWMvcalfN-25">
          <mxGeometry x="-1.4285714285714164" y="240" width="200" height="50" as="geometry" />
        </mxCell>
        <mxCell id="w8OnQSHXTQ-QWMvcalfN-112" value="" style="group" vertex="1" connectable="0" parent="w8OnQSHXTQ-QWMvcalfN-111">
          <mxGeometry width="100" height="40" as="geometry" />
        </mxCell>
        <mxCell id="w8OnQSHXTQ-QWMvcalfN-113" value="&lt;font style=&quot;font-size: 26px;&quot;&gt;30&lt;/font&gt;" style="rounded=0;whiteSpace=wrap;html=1;fillColor=#f8cecc;strokeColor=#b85450;" vertex="1" parent="w8OnQSHXTQ-QWMvcalfN-112">
          <mxGeometry width="50" height="40" as="geometry" />
        </mxCell>
        <mxCell id="w8OnQSHXTQ-QWMvcalfN-114" style="edgeStyle=orthogonalEdgeStyle;rounded=0;orthogonalLoop=1;jettySize=auto;html=1;" edge="1" parent="w8OnQSHXTQ-QWMvcalfN-112" source="w8OnQSHXTQ-QWMvcalfN-115">
          <mxGeometry relative="1" as="geometry">
            <mxPoint x="100" y="20" as="targetPoint" />
          </mxGeometry>
        </mxCell>
        <mxCell id="w8OnQSHXTQ-QWMvcalfN-115" value="" style="rounded=0;whiteSpace=wrap;html=1;fillColor=#a20025;fontColor=#ffffff;strokeColor=#6F0000;" vertex="1" parent="w8OnQSHXTQ-QWMvcalfN-112">
          <mxGeometry x="50" width="25" height="40" as="geometry" />
        </mxCell>
        <mxCell id="w8OnQSHXTQ-QWMvcalfN-116" value="" style="group" vertex="1" connectable="0" parent="w8OnQSHXTQ-QWMvcalfN-111">
          <mxGeometry x="7.142857142857142" y="10" width="100" height="40" as="geometry" />
        </mxCell>
        <mxCell id="w8OnQSHXTQ-QWMvcalfN-117" style="edgeStyle=orthogonalEdgeStyle;rounded=0;orthogonalLoop=1;jettySize=auto;html=1;" edge="1" parent="w8OnQSHXTQ-QWMvcalfN-116" source="w8OnQSHXTQ-QWMvcalfN-119">
          <mxGeometry relative="1" as="geometry">
            <mxPoint x="100" y="20" as="targetPoint" />
          </mxGeometry>
        </mxCell>
        <mxCell id="w8OnQSHXTQ-QWMvcalfN-118" style="edgeStyle=orthogonalEdgeStyle;rounded=0;orthogonalLoop=1;jettySize=auto;html=1;" edge="1" parent="w8OnQSHXTQ-QWMvcalfN-111" source="w8OnQSHXTQ-QWMvcalfN-119">
          <mxGeometry relative="1" as="geometry">
            <mxPoint x="200" y="20" as="targetPoint" />
          </mxGeometry>
        </mxCell>
        <mxCell id="w8OnQSHXTQ-QWMvcalfN-119" value="" style="rounded=0;whiteSpace=wrap;html=1;fillColor=#a20025;fontColor=#ffffff;strokeColor=#6F0000;" vertex="1" parent="w8OnQSHXTQ-QWMvcalfN-111">
          <mxGeometry x="150" width="25" height="40" as="geometry" />
        </mxCell>
        <mxCell id="w8OnQSHXTQ-QWMvcalfN-120" value="&lt;font style=&quot;font-size: 26px;&quot;&gt;40&lt;/font&gt;" style="rounded=0;whiteSpace=wrap;html=1;fillColor=#f8cecc;strokeColor=#b85450;" vertex="1" parent="w8OnQSHXTQ-QWMvcalfN-111">
          <mxGeometry x="100" width="50" height="40" as="geometry" />
        </mxCell>
        <mxCell id="w8OnQSHXTQ-QWMvcalfN-121" value="" style="group" vertex="1" connectable="0" parent="w8OnQSHXTQ-QWMvcalfN-25">
          <mxGeometry x="198.57142857142858" y="240" width="100" height="40" as="geometry" />
        </mxCell>
        <mxCell id="w8OnQSHXTQ-QWMvcalfN-122" value="&lt;font style=&quot;font-size: 26px;&quot;&gt;5&lt;/font&gt;" style="rounded=0;whiteSpace=wrap;html=1;fillColor=#f8cecc;strokeColor=#b85450;" vertex="1" parent="w8OnQSHXTQ-QWMvcalfN-121">
          <mxGeometry width="50" height="40" as="geometry" />
        </mxCell>
        <mxCell id="w8OnQSHXTQ-QWMvcalfN-123" style="edgeStyle=orthogonalEdgeStyle;rounded=0;orthogonalLoop=1;jettySize=auto;html=1;" edge="1" parent="w8OnQSHXTQ-QWMvcalfN-121" source="w8OnQSHXTQ-QWMvcalfN-124">
          <mxGeometry relative="1" as="geometry">
            <mxPoint x="100" y="20" as="targetPoint" />
          </mxGeometry>
        </mxCell>
        <mxCell id="w8OnQSHXTQ-QWMvcalfN-124" value="" style="rounded=0;whiteSpace=wrap;html=1;fillColor=#a20025;fontColor=#ffffff;strokeColor=#6F0000;" vertex="1" parent="w8OnQSHXTQ-QWMvcalfN-121">
          <mxGeometry x="50" width="25" height="40" as="geometry" />
        </mxCell>
        <mxCell id="w8OnQSHXTQ-QWMvcalfN-125" value="" style="group" vertex="1" connectable="0" parent="w8OnQSHXTQ-QWMvcalfN-25">
          <mxGeometry x="205.7142857142857" y="250" width="100" height="40" as="geometry" />
        </mxCell>
        <mxCell id="w8OnQSHXTQ-QWMvcalfN-126" style="edgeStyle=orthogonalEdgeStyle;rounded=0;orthogonalLoop=1;jettySize=auto;html=1;" edge="1" parent="w8OnQSHXTQ-QWMvcalfN-125" source="w8OnQSHXTQ-QWMvcalfN-127">
          <mxGeometry relative="1" as="geometry">
            <mxPoint x="100" y="20" as="targetPoint" />
          </mxGeometry>
        </mxCell>
        <mxCell id="w8OnQSHXTQ-QWMvcalfN-127" value="" style="rounded=0;whiteSpace=wrap;html=1;fillColor=#a20025;fontColor=#ffffff;strokeColor=#6F0000;" vertex="1" parent="w8OnQSHXTQ-QWMvcalfN-25">
          <mxGeometry x="348.57142857142856" y="240" width="25" height="40" as="geometry" />
        </mxCell>
        <mxCell id="w8OnQSHXTQ-QWMvcalfN-128" value="&lt;font style=&quot;font-size: 27px;&quot;&gt;7&lt;/font&gt;" style="rounded=0;whiteSpace=wrap;html=1;fillColor=#f8cecc;strokeColor=#b85450;" vertex="1" parent="w8OnQSHXTQ-QWMvcalfN-25">
          <mxGeometry x="298.57142857142856" y="240" width="50" height="40" as="geometry" />
        </mxCell>
        <mxCell id="w8OnQSHXTQ-QWMvcalfN-141" value="" style="group" vertex="1" connectable="0" parent="w8OnQSHXTQ-QWMvcalfN-25">
          <mxGeometry x="-391.4285714285714" y="370" width="400" height="105" as="geometry" />
        </mxCell>
        <mxCell id="w8OnQSHXTQ-QWMvcalfN-142" value="" style="group" vertex="1" connectable="0" parent="w8OnQSHXTQ-QWMvcalfN-141">
          <mxGeometry width="200" height="105" as="geometry" />
        </mxCell>
        <mxCell id="w8OnQSHXTQ-QWMvcalfN-143" value="" style="group" vertex="1" connectable="0" parent="w8OnQSHXTQ-QWMvcalfN-142">
          <mxGeometry width="100" height="40" as="geometry" />
        </mxCell>
        <mxCell id="w8OnQSHXTQ-QWMvcalfN-144" value="&lt;font style=&quot;font-size: 26px;&quot;&gt;1&lt;/font&gt;" style="rounded=0;whiteSpace=wrap;html=1;fillColor=#f8cecc;strokeColor=#b85450;" vertex="1" parent="w8OnQSHXTQ-QWMvcalfN-143">
          <mxGeometry width="50" height="40" as="geometry" />
        </mxCell>
        <mxCell id="w8OnQSHXTQ-QWMvcalfN-145" style="edgeStyle=orthogonalEdgeStyle;rounded=0;orthogonalLoop=1;jettySize=auto;html=1;" edge="1" parent="w8OnQSHXTQ-QWMvcalfN-143" source="w8OnQSHXTQ-QWMvcalfN-146">
          <mxGeometry relative="1" as="geometry">
            <mxPoint x="100" y="20" as="targetPoint" />
          </mxGeometry>
        </mxCell>
        <mxCell id="w8OnQSHXTQ-QWMvcalfN-146" value="" style="rounded=0;whiteSpace=wrap;html=1;fillColor=#a20025;fontColor=#ffffff;strokeColor=#6F0000;" vertex="1" parent="w8OnQSHXTQ-QWMvcalfN-143">
          <mxGeometry x="50" width="25" height="40" as="geometry" />
        </mxCell>
        <mxCell id="w8OnQSHXTQ-QWMvcalfN-147" value="" style="group" vertex="1" connectable="0" parent="w8OnQSHXTQ-QWMvcalfN-142">
          <mxGeometry x="7.142857142857142" y="10" width="167.85571428571424" height="95" as="geometry" />
        </mxCell>
        <mxCell id="w8OnQSHXTQ-QWMvcalfN-148" style="edgeStyle=orthogonalEdgeStyle;rounded=0;orthogonalLoop=1;jettySize=auto;html=1;" edge="1" parent="w8OnQSHXTQ-QWMvcalfN-147" source="w8OnQSHXTQ-QWMvcalfN-150">
          <mxGeometry relative="1" as="geometry">
            <mxPoint x="100" y="20" as="targetPoint" />
          </mxGeometry>
        </mxCell>
        <mxCell id="w8OnQSHXTQ-QWMvcalfN-190" value="" style="group" vertex="1" connectable="0" parent="w8OnQSHXTQ-QWMvcalfN-147">
          <mxGeometry x="2.8557142857142424" y="30" width="165" height="65" as="geometry" />
        </mxCell>
        <mxCell id="w8OnQSHXTQ-QWMvcalfN-183" value="" style="endArrow=classic;html=1;rounded=0;fontSize=22;strokeWidth=4;" edge="1" parent="w8OnQSHXTQ-QWMvcalfN-190">
          <mxGeometry width="50" height="50" relative="1" as="geometry">
            <mxPoint x="30" y="40" as="sourcePoint" />
            <mxPoint x="30" as="targetPoint" />
            <Array as="points">
              <mxPoint x="30" y="30" />
            </Array>
          </mxGeometry>
        </mxCell>
        <mxCell id="w8OnQSHXTQ-QWMvcalfN-184" value="&lt;font style=&quot;font-size: 13px;&quot;&gt;leftPrev&lt;/font&gt;" style="text;html=1;align=center;verticalAlign=middle;resizable=0;points=[];autosize=1;strokeColor=none;fillColor=none;fontSize=22;" vertex="1" parent="w8OnQSHXTQ-QWMvcalfN-190">
          <mxGeometry y="25" width="70" height="40" as="geometry" />
        </mxCell>
        <mxCell id="w8OnQSHXTQ-QWMvcalfN-189" value="" style="group" vertex="1" connectable="0" parent="w8OnQSHXTQ-QWMvcalfN-190">
          <mxGeometry x="115" width="50" height="60" as="geometry" />
        </mxCell>
        <mxCell id="w8OnQSHXTQ-QWMvcalfN-185" value="" style="endArrow=classic;html=1;rounded=0;strokeWidth=4;fontSize=13;" edge="1" parent="w8OnQSHXTQ-QWMvcalfN-189">
          <mxGeometry width="50" height="50" relative="1" as="geometry">
            <mxPoint x="25" y="40" as="sourcePoint" />
            <mxPoint x="25" as="targetPoint" />
          </mxGeometry>
        </mxCell>
        <mxCell id="w8OnQSHXTQ-QWMvcalfN-187" value="curr" style="text;html=1;align=center;verticalAlign=middle;resizable=0;points=[];autosize=1;strokeColor=none;fillColor=none;fontSize=13;" vertex="1" parent="w8OnQSHXTQ-QWMvcalfN-189">
          <mxGeometry y="30" width="50" height="30" as="geometry" />
        </mxCell>
        <mxCell id="w8OnQSHXTQ-QWMvcalfN-201" value="" style="endArrow=classic;html=1;rounded=0;fontSize=22;strokeWidth=4;" edge="1" parent="w8OnQSHXTQ-QWMvcalfN-190">
          <mxGeometry width="50" height="50" relative="1" as="geometry">
            <mxPoint x="40" y="220" as="sourcePoint" />
            <mxPoint x="40" y="180" as="targetPoint" />
            <Array as="points">
              <mxPoint x="40" y="210" />
            </Array>
          </mxGeometry>
        </mxCell>
        <mxCell id="w8OnQSHXTQ-QWMvcalfN-200" style="edgeStyle=orthogonalEdgeStyle;rounded=0;orthogonalLoop=1;jettySize=auto;html=1;" edge="1" source="w8OnQSHXTQ-QWMvcalfN-204" parent="w8OnQSHXTQ-QWMvcalfN-147">
          <mxGeometry relative="1" as="geometry">
            <mxPoint x="110" y="200" as="targetPoint" />
          </mxGeometry>
        </mxCell>
        <mxCell id="w8OnQSHXTQ-QWMvcalfN-149" style="edgeStyle=orthogonalEdgeStyle;rounded=0;orthogonalLoop=1;jettySize=auto;html=1;" edge="1" parent="w8OnQSHXTQ-QWMvcalfN-142" source="w8OnQSHXTQ-QWMvcalfN-150">
          <mxGeometry relative="1" as="geometry">
            <mxPoint x="200" y="20" as="targetPoint" />
          </mxGeometry>
        </mxCell>
        <mxCell id="w8OnQSHXTQ-QWMvcalfN-150" value="" style="rounded=0;whiteSpace=wrap;html=1;fillColor=#a20025;fontColor=#ffffff;strokeColor=#6F0000;" vertex="1" parent="w8OnQSHXTQ-QWMvcalfN-142">
          <mxGeometry x="150" width="25" height="40" as="geometry" />
        </mxCell>
        <mxCell id="w8OnQSHXTQ-QWMvcalfN-151" value="&lt;font style=&quot;font-size: 26px;&quot;&gt;2&lt;/font&gt;" style="rounded=0;whiteSpace=wrap;html=1;fillColor=#f8cecc;strokeColor=#b85450;" vertex="1" parent="w8OnQSHXTQ-QWMvcalfN-142">
          <mxGeometry x="100" width="50" height="40" as="geometry" />
        </mxCell>
        <mxCell id="w8OnQSHXTQ-QWMvcalfN-196" value="" style="group" vertex="1" connectable="0" parent="w8OnQSHXTQ-QWMvcalfN-142">
          <mxGeometry x="10" y="180" width="100" height="40" as="geometry" />
        </mxCell>
        <mxCell id="w8OnQSHXTQ-QWMvcalfN-197" value="&lt;font style=&quot;font-size: 26px;&quot;&gt;1&lt;/font&gt;" style="rounded=0;whiteSpace=wrap;html=1;fillColor=#f8cecc;strokeColor=#b85450;" vertex="1" parent="w8OnQSHXTQ-QWMvcalfN-196">
          <mxGeometry width="50" height="40" as="geometry" />
        </mxCell>
        <mxCell id="w8OnQSHXTQ-QWMvcalfN-198" style="edgeStyle=orthogonalEdgeStyle;rounded=0;orthogonalLoop=1;jettySize=auto;html=1;" edge="1" parent="w8OnQSHXTQ-QWMvcalfN-196" source="w8OnQSHXTQ-QWMvcalfN-199">
          <mxGeometry relative="1" as="geometry">
            <mxPoint x="100" y="20" as="targetPoint" />
          </mxGeometry>
        </mxCell>
        <mxCell id="w8OnQSHXTQ-QWMvcalfN-199" value="" style="rounded=0;whiteSpace=wrap;html=1;fillColor=#a20025;fontColor=#ffffff;strokeColor=#6F0000;" vertex="1" parent="w8OnQSHXTQ-QWMvcalfN-196">
          <mxGeometry x="50" width="25" height="40" as="geometry" />
        </mxCell>
        <mxCell id="w8OnQSHXTQ-QWMvcalfN-203" style="edgeStyle=orthogonalEdgeStyle;rounded=0;orthogonalLoop=1;jettySize=auto;html=1;" edge="1" source="w8OnQSHXTQ-QWMvcalfN-204" parent="w8OnQSHXTQ-QWMvcalfN-142">
          <mxGeometry relative="1" as="geometry">
            <mxPoint x="210" y="200" as="targetPoint" />
          </mxGeometry>
        </mxCell>
        <mxCell id="w8OnQSHXTQ-QWMvcalfN-204" value="" style="rounded=0;whiteSpace=wrap;html=1;fillColor=#a20025;fontColor=#ffffff;strokeColor=#6F0000;" vertex="1" parent="w8OnQSHXTQ-QWMvcalfN-142">
          <mxGeometry x="160" y="180" width="25" height="40" as="geometry" />
        </mxCell>
        <mxCell id="w8OnQSHXTQ-QWMvcalfN-205" value="&lt;font style=&quot;font-size: 26px;&quot;&gt;2&lt;/font&gt;" style="rounded=0;whiteSpace=wrap;html=1;fillColor=#f8cecc;strokeColor=#b85450;" vertex="1" parent="w8OnQSHXTQ-QWMvcalfN-142">
          <mxGeometry x="110" y="180" width="50" height="40" as="geometry" />
        </mxCell>
        <mxCell id="w8OnQSHXTQ-QWMvcalfN-152" value="" style="group" vertex="1" connectable="0" parent="w8OnQSHXTQ-QWMvcalfN-141">
          <mxGeometry x="200" width="200" height="50" as="geometry" />
        </mxCell>
        <mxCell id="w8OnQSHXTQ-QWMvcalfN-153" value="" style="group" vertex="1" connectable="0" parent="w8OnQSHXTQ-QWMvcalfN-152">
          <mxGeometry width="100" height="40" as="geometry" />
        </mxCell>
        <mxCell id="w8OnQSHXTQ-QWMvcalfN-154" value="&lt;font style=&quot;font-size: 26px;&quot;&gt;10&lt;/font&gt;" style="rounded=0;whiteSpace=wrap;html=1;fillColor=#f8cecc;strokeColor=#b85450;" vertex="1" parent="w8OnQSHXTQ-QWMvcalfN-153">
          <mxGeometry width="50" height="40" as="geometry" />
        </mxCell>
        <mxCell id="w8OnQSHXTQ-QWMvcalfN-155" style="edgeStyle=orthogonalEdgeStyle;rounded=0;orthogonalLoop=1;jettySize=auto;html=1;" edge="1" parent="w8OnQSHXTQ-QWMvcalfN-153" source="w8OnQSHXTQ-QWMvcalfN-156">
          <mxGeometry relative="1" as="geometry">
            <mxPoint x="100" y="20" as="targetPoint" />
          </mxGeometry>
        </mxCell>
        <mxCell id="w8OnQSHXTQ-QWMvcalfN-156" value="" style="rounded=0;whiteSpace=wrap;html=1;fillColor=#a20025;fontColor=#ffffff;strokeColor=#6F0000;" vertex="1" parent="w8OnQSHXTQ-QWMvcalfN-153">
          <mxGeometry x="50" width="25" height="40" as="geometry" />
        </mxCell>
        <mxCell id="w8OnQSHXTQ-QWMvcalfN-157" value="" style="group" vertex="1" connectable="0" parent="w8OnQSHXTQ-QWMvcalfN-152">
          <mxGeometry x="7.142857142857142" y="10" width="100" height="40" as="geometry" />
        </mxCell>
        <mxCell id="w8OnQSHXTQ-QWMvcalfN-158" style="edgeStyle=orthogonalEdgeStyle;rounded=0;orthogonalLoop=1;jettySize=auto;html=1;" edge="1" parent="w8OnQSHXTQ-QWMvcalfN-157" source="w8OnQSHXTQ-QWMvcalfN-160">
          <mxGeometry relative="1" as="geometry">
            <mxPoint x="100" y="20" as="targetPoint" />
          </mxGeometry>
        </mxCell>
        <mxCell id="w8OnQSHXTQ-QWMvcalfN-159" style="edgeStyle=orthogonalEdgeStyle;rounded=0;orthogonalLoop=1;jettySize=auto;html=1;" edge="1" parent="w8OnQSHXTQ-QWMvcalfN-152" source="w8OnQSHXTQ-QWMvcalfN-160">
          <mxGeometry relative="1" as="geometry">
            <mxPoint x="200" y="20" as="targetPoint" />
          </mxGeometry>
        </mxCell>
        <mxCell id="w8OnQSHXTQ-QWMvcalfN-160" value="" style="rounded=0;whiteSpace=wrap;html=1;fillColor=#a20025;fontColor=#ffffff;strokeColor=#6F0000;" vertex="1" parent="w8OnQSHXTQ-QWMvcalfN-152">
          <mxGeometry x="150" width="25" height="40" as="geometry" />
        </mxCell>
        <mxCell id="w8OnQSHXTQ-QWMvcalfN-161" value="&lt;font style=&quot;font-size: 26px;&quot;&gt;20&lt;/font&gt;" style="rounded=0;whiteSpace=wrap;html=1;fillColor=#f8cecc;strokeColor=#b85450;" vertex="1" parent="w8OnQSHXTQ-QWMvcalfN-152">
          <mxGeometry x="100" width="50" height="40" as="geometry" />
        </mxCell>
        <mxCell id="w8OnQSHXTQ-QWMvcalfN-206" value="" style="group" vertex="1" connectable="0" parent="w8OnQSHXTQ-QWMvcalfN-141">
          <mxGeometry x="210" y="180" width="200" height="50" as="geometry" />
        </mxCell>
        <mxCell id="w8OnQSHXTQ-QWMvcalfN-207" value="" style="group" vertex="1" connectable="0" parent="w8OnQSHXTQ-QWMvcalfN-206">
          <mxGeometry width="100" height="40" as="geometry" />
        </mxCell>
        <mxCell id="w8OnQSHXTQ-QWMvcalfN-208" value="&lt;font style=&quot;font-size: 26px;&quot;&gt;10&lt;/font&gt;" style="rounded=0;whiteSpace=wrap;html=1;fillColor=#f8cecc;strokeColor=#b85450;" vertex="1" parent="w8OnQSHXTQ-QWMvcalfN-207">
          <mxGeometry width="50" height="40" as="geometry" />
        </mxCell>
        <mxCell id="w8OnQSHXTQ-QWMvcalfN-209" style="edgeStyle=orthogonalEdgeStyle;rounded=0;orthogonalLoop=1;jettySize=auto;html=1;" edge="1" parent="w8OnQSHXTQ-QWMvcalfN-207" source="w8OnQSHXTQ-QWMvcalfN-210">
          <mxGeometry relative="1" as="geometry">
            <mxPoint x="100" y="20" as="targetPoint" />
          </mxGeometry>
        </mxCell>
        <mxCell id="w8OnQSHXTQ-QWMvcalfN-210" value="" style="rounded=0;whiteSpace=wrap;html=1;fillColor=#a20025;fontColor=#ffffff;strokeColor=#6F0000;" vertex="1" parent="w8OnQSHXTQ-QWMvcalfN-207">
          <mxGeometry x="50" width="25" height="40" as="geometry" />
        </mxCell>
        <mxCell id="w8OnQSHXTQ-QWMvcalfN-211" value="" style="group" vertex="1" connectable="0" parent="w8OnQSHXTQ-QWMvcalfN-206">
          <mxGeometry x="7.142857142857142" y="10" width="100" height="40" as="geometry" />
        </mxCell>
        <mxCell id="w8OnQSHXTQ-QWMvcalfN-212" style="edgeStyle=orthogonalEdgeStyle;rounded=0;orthogonalLoop=1;jettySize=auto;html=1;" edge="1" parent="w8OnQSHXTQ-QWMvcalfN-211" source="w8OnQSHXTQ-QWMvcalfN-214">
          <mxGeometry relative="1" as="geometry">
            <mxPoint x="100" y="20" as="targetPoint" />
          </mxGeometry>
        </mxCell>
        <mxCell id="w8OnQSHXTQ-QWMvcalfN-213" style="edgeStyle=orthogonalEdgeStyle;rounded=0;orthogonalLoop=1;jettySize=auto;html=1;" edge="1" parent="w8OnQSHXTQ-QWMvcalfN-206" source="w8OnQSHXTQ-QWMvcalfN-214">
          <mxGeometry relative="1" as="geometry">
            <mxPoint x="200" y="20" as="targetPoint" />
          </mxGeometry>
        </mxCell>
        <mxCell id="w8OnQSHXTQ-QWMvcalfN-214" value="" style="rounded=0;whiteSpace=wrap;html=1;fillColor=#a20025;fontColor=#ffffff;strokeColor=#6F0000;" vertex="1" parent="w8OnQSHXTQ-QWMvcalfN-206">
          <mxGeometry x="150" width="25" height="40" as="geometry" />
        </mxCell>
        <mxCell id="w8OnQSHXTQ-QWMvcalfN-215" value="&lt;font style=&quot;font-size: 26px;&quot;&gt;20&lt;/font&gt;" style="rounded=0;whiteSpace=wrap;html=1;fillColor=#f8cecc;strokeColor=#b85450;" vertex="1" parent="w8OnQSHXTQ-QWMvcalfN-206">
          <mxGeometry x="100" width="50" height="40" as="geometry" />
        </mxCell>
        <mxCell id="w8OnQSHXTQ-QWMvcalfN-162" value="" style="group" vertex="1" connectable="0" parent="w8OnQSHXTQ-QWMvcalfN-25">
          <mxGeometry x="8.571428571428584" y="370" width="200" height="50" as="geometry" />
        </mxCell>
        <mxCell id="w8OnQSHXTQ-QWMvcalfN-163" value="" style="group" vertex="1" connectable="0" parent="w8OnQSHXTQ-QWMvcalfN-162">
          <mxGeometry width="100" height="40" as="geometry" />
        </mxCell>
        <mxCell id="w8OnQSHXTQ-QWMvcalfN-164" value="&lt;font style=&quot;font-size: 26px;&quot;&gt;30&lt;/font&gt;" style="rounded=0;whiteSpace=wrap;html=1;fillColor=#f8cecc;strokeColor=#b85450;" vertex="1" parent="w8OnQSHXTQ-QWMvcalfN-163">
          <mxGeometry width="50" height="40" as="geometry" />
        </mxCell>
        <mxCell id="w8OnQSHXTQ-QWMvcalfN-165" style="edgeStyle=orthogonalEdgeStyle;rounded=0;orthogonalLoop=1;jettySize=auto;html=1;" edge="1" parent="w8OnQSHXTQ-QWMvcalfN-163" source="w8OnQSHXTQ-QWMvcalfN-166">
          <mxGeometry relative="1" as="geometry">
            <mxPoint x="100" y="20" as="targetPoint" />
          </mxGeometry>
        </mxCell>
        <mxCell id="w8OnQSHXTQ-QWMvcalfN-166" value="" style="rounded=0;whiteSpace=wrap;html=1;fillColor=#a20025;fontColor=#ffffff;strokeColor=#6F0000;" vertex="1" parent="w8OnQSHXTQ-QWMvcalfN-163">
          <mxGeometry x="50" width="25" height="40" as="geometry" />
        </mxCell>
        <mxCell id="w8OnQSHXTQ-QWMvcalfN-167" value="" style="group" vertex="1" connectable="0" parent="w8OnQSHXTQ-QWMvcalfN-162">
          <mxGeometry x="7.142857142857142" y="10" width="100" height="40" as="geometry" />
        </mxCell>
        <mxCell id="w8OnQSHXTQ-QWMvcalfN-168" style="edgeStyle=orthogonalEdgeStyle;rounded=0;orthogonalLoop=1;jettySize=auto;html=1;" edge="1" parent="w8OnQSHXTQ-QWMvcalfN-167" source="w8OnQSHXTQ-QWMvcalfN-170">
          <mxGeometry relative="1" as="geometry">
            <mxPoint x="100" y="20" as="targetPoint" />
          </mxGeometry>
        </mxCell>
        <mxCell id="w8OnQSHXTQ-QWMvcalfN-169" style="edgeStyle=orthogonalEdgeStyle;rounded=0;orthogonalLoop=1;jettySize=auto;html=1;" edge="1" parent="w8OnQSHXTQ-QWMvcalfN-162" source="w8OnQSHXTQ-QWMvcalfN-170">
          <mxGeometry relative="1" as="geometry">
            <mxPoint x="200" y="20" as="targetPoint" />
          </mxGeometry>
        </mxCell>
        <mxCell id="w8OnQSHXTQ-QWMvcalfN-170" value="" style="rounded=0;whiteSpace=wrap;html=1;fillColor=#a20025;fontColor=#ffffff;strokeColor=#6F0000;" vertex="1" parent="w8OnQSHXTQ-QWMvcalfN-162">
          <mxGeometry x="150" width="25" height="40" as="geometry" />
        </mxCell>
        <mxCell id="w8OnQSHXTQ-QWMvcalfN-171" value="&lt;font style=&quot;font-size: 26px;&quot;&gt;40&lt;/font&gt;" style="rounded=0;whiteSpace=wrap;html=1;fillColor=#f8cecc;strokeColor=#b85450;" vertex="1" parent="w8OnQSHXTQ-QWMvcalfN-162">
          <mxGeometry x="100" width="50" height="40" as="geometry" />
        </mxCell>
        <mxCell id="w8OnQSHXTQ-QWMvcalfN-172" value="" style="group" vertex="1" connectable="0" parent="w8OnQSHXTQ-QWMvcalfN-25">
          <mxGeometry x="208.57142857142858" y="370" width="100" height="40" as="geometry" />
        </mxCell>
        <mxCell id="w8OnQSHXTQ-QWMvcalfN-173" value="&lt;font style=&quot;font-size: 26px;&quot;&gt;5&lt;/font&gt;" style="rounded=0;whiteSpace=wrap;html=1;fillColor=#f8cecc;strokeColor=#b85450;" vertex="1" parent="w8OnQSHXTQ-QWMvcalfN-172">
          <mxGeometry width="50" height="40" as="geometry" />
        </mxCell>
        <mxCell id="w8OnQSHXTQ-QWMvcalfN-174" style="edgeStyle=orthogonalEdgeStyle;rounded=0;orthogonalLoop=1;jettySize=auto;html=1;" edge="1" parent="w8OnQSHXTQ-QWMvcalfN-172" source="w8OnQSHXTQ-QWMvcalfN-175">
          <mxGeometry relative="1" as="geometry">
            <mxPoint x="100" y="20" as="targetPoint" />
          </mxGeometry>
        </mxCell>
        <mxCell id="w8OnQSHXTQ-QWMvcalfN-175" value="" style="rounded=0;whiteSpace=wrap;html=1;fillColor=#a20025;fontColor=#ffffff;strokeColor=#6F0000;" vertex="1" parent="w8OnQSHXTQ-QWMvcalfN-172">
          <mxGeometry x="50" width="25" height="40" as="geometry" />
        </mxCell>
        <mxCell id="w8OnQSHXTQ-QWMvcalfN-176" value="" style="group" vertex="1" connectable="0" parent="w8OnQSHXTQ-QWMvcalfN-25">
          <mxGeometry x="215.7142857142857" y="380" width="100" height="40" as="geometry" />
        </mxCell>
        <mxCell id="w8OnQSHXTQ-QWMvcalfN-177" style="edgeStyle=orthogonalEdgeStyle;rounded=0;orthogonalLoop=1;jettySize=auto;html=1;" edge="1" parent="w8OnQSHXTQ-QWMvcalfN-176" source="w8OnQSHXTQ-QWMvcalfN-178">
          <mxGeometry relative="1" as="geometry">
            <mxPoint x="100" y="20" as="targetPoint" />
          </mxGeometry>
        </mxCell>
        <mxCell id="w8OnQSHXTQ-QWMvcalfN-178" value="" style="rounded=0;whiteSpace=wrap;html=1;fillColor=#a20025;fontColor=#ffffff;strokeColor=#6F0000;" vertex="1" parent="w8OnQSHXTQ-QWMvcalfN-25">
          <mxGeometry x="358.57142857142856" y="370" width="25" height="40" as="geometry" />
        </mxCell>
        <mxCell id="w8OnQSHXTQ-QWMvcalfN-179" value="&lt;font style=&quot;font-size: 27px;&quot;&gt;7&lt;/font&gt;" style="rounded=0;whiteSpace=wrap;html=1;fillColor=#f8cecc;strokeColor=#b85450;" vertex="1" parent="w8OnQSHXTQ-QWMvcalfN-25">
          <mxGeometry x="308.57142857142856" y="370" width="50" height="40" as="geometry" />
        </mxCell>
        <mxCell id="w8OnQSHXTQ-QWMvcalfN-216" value="" style="group" vertex="1" connectable="0" parent="w8OnQSHXTQ-QWMvcalfN-25">
          <mxGeometry x="18.571428571428584" y="550" width="200" height="50" as="geometry" />
        </mxCell>
        <mxCell id="w8OnQSHXTQ-QWMvcalfN-217" value="" style="group" vertex="1" connectable="0" parent="w8OnQSHXTQ-QWMvcalfN-216">
          <mxGeometry width="100" height="40" as="geometry" />
        </mxCell>
        <mxCell id="w8OnQSHXTQ-QWMvcalfN-218" value="&lt;font style=&quot;font-size: 26px;&quot;&gt;30&lt;/font&gt;" style="rounded=0;whiteSpace=wrap;html=1;fillColor=#f8cecc;strokeColor=#b85450;" vertex="1" parent="w8OnQSHXTQ-QWMvcalfN-217">
          <mxGeometry width="50" height="40" as="geometry" />
        </mxCell>
        <mxCell id="w8OnQSHXTQ-QWMvcalfN-219" style="edgeStyle=orthogonalEdgeStyle;rounded=0;orthogonalLoop=1;jettySize=auto;html=1;" edge="1" parent="w8OnQSHXTQ-QWMvcalfN-217" source="w8OnQSHXTQ-QWMvcalfN-220">
          <mxGeometry relative="1" as="geometry">
            <mxPoint x="100" y="20" as="targetPoint" />
          </mxGeometry>
        </mxCell>
        <mxCell id="w8OnQSHXTQ-QWMvcalfN-220" value="" style="rounded=0;whiteSpace=wrap;html=1;fillColor=#a20025;fontColor=#ffffff;strokeColor=#6F0000;" vertex="1" parent="w8OnQSHXTQ-QWMvcalfN-217">
          <mxGeometry x="50" width="25" height="40" as="geometry" />
        </mxCell>
        <mxCell id="w8OnQSHXTQ-QWMvcalfN-221" value="" style="group" vertex="1" connectable="0" parent="w8OnQSHXTQ-QWMvcalfN-216">
          <mxGeometry x="7.142857142857142" y="10" width="100" height="40" as="geometry" />
        </mxCell>
        <mxCell id="w8OnQSHXTQ-QWMvcalfN-222" style="edgeStyle=orthogonalEdgeStyle;rounded=0;orthogonalLoop=1;jettySize=auto;html=1;" edge="1" parent="w8OnQSHXTQ-QWMvcalfN-221" source="w8OnQSHXTQ-QWMvcalfN-224">
          <mxGeometry relative="1" as="geometry">
            <mxPoint x="100" y="20" as="targetPoint" />
          </mxGeometry>
        </mxCell>
        <mxCell id="w8OnQSHXTQ-QWMvcalfN-223" style="edgeStyle=orthogonalEdgeStyle;rounded=0;orthogonalLoop=1;jettySize=auto;html=1;" edge="1" parent="w8OnQSHXTQ-QWMvcalfN-216" source="w8OnQSHXTQ-QWMvcalfN-224">
          <mxGeometry relative="1" as="geometry">
            <mxPoint x="200" y="20" as="targetPoint" />
          </mxGeometry>
        </mxCell>
        <mxCell id="w8OnQSHXTQ-QWMvcalfN-224" value="" style="rounded=0;whiteSpace=wrap;html=1;fillColor=#a20025;fontColor=#ffffff;strokeColor=#6F0000;" vertex="1" parent="w8OnQSHXTQ-QWMvcalfN-216">
          <mxGeometry x="150" width="25" height="40" as="geometry" />
        </mxCell>
        <mxCell id="w8OnQSHXTQ-QWMvcalfN-225" value="&lt;font style=&quot;font-size: 26px;&quot;&gt;40&lt;/font&gt;" style="rounded=0;whiteSpace=wrap;html=1;fillColor=#f8cecc;strokeColor=#b85450;" vertex="1" parent="w8OnQSHXTQ-QWMvcalfN-216">
          <mxGeometry x="100" width="50" height="40" as="geometry" />
        </mxCell>
        <mxCell id="w8OnQSHXTQ-QWMvcalfN-226" value="" style="group" vertex="1" connectable="0" parent="w8OnQSHXTQ-QWMvcalfN-25">
          <mxGeometry x="218.57142857142858" y="550" width="100" height="40" as="geometry" />
        </mxCell>
        <mxCell id="w8OnQSHXTQ-QWMvcalfN-227" value="&lt;font style=&quot;font-size: 26px;&quot;&gt;5&lt;/font&gt;" style="rounded=0;whiteSpace=wrap;html=1;fillColor=#f8cecc;strokeColor=#b85450;" vertex="1" parent="w8OnQSHXTQ-QWMvcalfN-226">
          <mxGeometry width="50" height="40" as="geometry" />
        </mxCell>
        <mxCell id="w8OnQSHXTQ-QWMvcalfN-228" style="edgeStyle=orthogonalEdgeStyle;rounded=0;orthogonalLoop=1;jettySize=auto;html=1;" edge="1" parent="w8OnQSHXTQ-QWMvcalfN-226" source="w8OnQSHXTQ-QWMvcalfN-229">
          <mxGeometry relative="1" as="geometry">
            <mxPoint x="100" y="20" as="targetPoint" />
          </mxGeometry>
        </mxCell>
        <mxCell id="w8OnQSHXTQ-QWMvcalfN-229" value="" style="rounded=0;whiteSpace=wrap;html=1;fillColor=#a20025;fontColor=#ffffff;strokeColor=#6F0000;" vertex="1" parent="w8OnQSHXTQ-QWMvcalfN-226">
          <mxGeometry x="50" width="25" height="40" as="geometry" />
        </mxCell>
        <mxCell id="w8OnQSHXTQ-QWMvcalfN-230" value="" style="group" vertex="1" connectable="0" parent="w8OnQSHXTQ-QWMvcalfN-25">
          <mxGeometry x="225.7142857142857" y="560" width="100" height="40" as="geometry" />
        </mxCell>
        <mxCell id="w8OnQSHXTQ-QWMvcalfN-231" style="edgeStyle=orthogonalEdgeStyle;rounded=0;orthogonalLoop=1;jettySize=auto;html=1;" edge="1" parent="w8OnQSHXTQ-QWMvcalfN-230" source="w8OnQSHXTQ-QWMvcalfN-232">
          <mxGeometry relative="1" as="geometry">
            <mxPoint x="100" y="20" as="targetPoint" />
          </mxGeometry>
        </mxCell>
        <mxCell id="w8OnQSHXTQ-QWMvcalfN-232" value="" style="rounded=0;whiteSpace=wrap;html=1;fillColor=#a20025;fontColor=#ffffff;strokeColor=#6F0000;" vertex="1" parent="w8OnQSHXTQ-QWMvcalfN-25">
          <mxGeometry x="368.57142857142856" y="550" width="25" height="40" as="geometry" />
        </mxCell>
        <mxCell id="w8OnQSHXTQ-QWMvcalfN-233" value="&lt;font style=&quot;font-size: 27px;&quot;&gt;7&lt;/font&gt;" style="rounded=0;whiteSpace=wrap;html=1;fillColor=#f8cecc;strokeColor=#b85450;" vertex="1" parent="w8OnQSHXTQ-QWMvcalfN-25">
          <mxGeometry x="318.57142857142856" y="550" width="50" height="40" as="geometry" />
        </mxCell>
        <mxCell id="w8OnQSHXTQ-QWMvcalfN-256" value="" style="group" vertex="1" connectable="0" parent="w8OnQSHXTQ-QWMvcalfN-25">
          <mxGeometry x="-381.4285714285714" y="810" width="400" height="135" as="geometry" />
        </mxCell>
        <mxCell id="w8OnQSHXTQ-QWMvcalfN-257" value="" style="group" vertex="1" connectable="0" parent="w8OnQSHXTQ-QWMvcalfN-256">
          <mxGeometry width="200" height="135" as="geometry" />
        </mxCell>
        <mxCell id="w8OnQSHXTQ-QWMvcalfN-258" value="" style="group" vertex="1" connectable="0" parent="w8OnQSHXTQ-QWMvcalfN-257">
          <mxGeometry width="100" height="40" as="geometry" />
        </mxCell>
        <mxCell id="w8OnQSHXTQ-QWMvcalfN-259" value="&lt;font style=&quot;font-size: 26px;&quot;&gt;1&lt;/font&gt;" style="rounded=0;whiteSpace=wrap;html=1;fillColor=#f8cecc;strokeColor=#b85450;" vertex="1" parent="w8OnQSHXTQ-QWMvcalfN-258">
          <mxGeometry width="50" height="40" as="geometry" />
        </mxCell>
        <mxCell id="w8OnQSHXTQ-QWMvcalfN-260" style="edgeStyle=orthogonalEdgeStyle;rounded=0;orthogonalLoop=1;jettySize=auto;html=1;" edge="1" parent="w8OnQSHXTQ-QWMvcalfN-258" source="w8OnQSHXTQ-QWMvcalfN-261">
          <mxGeometry relative="1" as="geometry">
            <mxPoint x="100" y="20" as="targetPoint" />
          </mxGeometry>
        </mxCell>
        <mxCell id="w8OnQSHXTQ-QWMvcalfN-261" value="" style="rounded=0;whiteSpace=wrap;html=1;fillColor=#a20025;fontColor=#ffffff;strokeColor=#6F0000;" vertex="1" parent="w8OnQSHXTQ-QWMvcalfN-258">
          <mxGeometry x="50" width="25" height="40" as="geometry" />
        </mxCell>
        <mxCell id="w8OnQSHXTQ-QWMvcalfN-262" value="" style="group" vertex="1" connectable="0" parent="w8OnQSHXTQ-QWMvcalfN-257">
          <mxGeometry x="7.142857142857142" y="10" width="184.28571428571425" height="125" as="geometry" />
        </mxCell>
        <mxCell id="w8OnQSHXTQ-QWMvcalfN-263" style="edgeStyle=orthogonalEdgeStyle;rounded=0;orthogonalLoop=1;jettySize=auto;html=1;" edge="1" parent="w8OnQSHXTQ-QWMvcalfN-262" source="w8OnQSHXTQ-QWMvcalfN-273">
          <mxGeometry relative="1" as="geometry">
            <mxPoint x="100" y="20" as="targetPoint" />
          </mxGeometry>
        </mxCell>
        <mxCell id="w8OnQSHXTQ-QWMvcalfN-264" value="" style="group" vertex="1" connectable="0" parent="w8OnQSHXTQ-QWMvcalfN-262">
          <mxGeometry x="2.8557142857142424" y="30" width="181.43" height="95" as="geometry" />
        </mxCell>
        <mxCell id="w8OnQSHXTQ-QWMvcalfN-265" value="" style="endArrow=classic;html=1;rounded=0;fontSize=22;strokeWidth=4;" edge="1" parent="w8OnQSHXTQ-QWMvcalfN-264">
          <mxGeometry width="50" height="50" relative="1" as="geometry">
            <mxPoint x="30" y="40" as="sourcePoint" />
            <mxPoint x="30" as="targetPoint" />
            <Array as="points">
              <mxPoint x="30" y="30" />
            </Array>
          </mxGeometry>
        </mxCell>
        <mxCell id="w8OnQSHXTQ-QWMvcalfN-266" value="&lt;font style=&quot;font-size: 13px;&quot;&gt;leftPrev&lt;/font&gt;" style="text;html=1;align=center;verticalAlign=middle;resizable=0;points=[];autosize=1;strokeColor=none;fillColor=none;fontSize=22;" vertex="1" parent="w8OnQSHXTQ-QWMvcalfN-264">
          <mxGeometry y="25" width="70" height="40" as="geometry" />
        </mxCell>
        <mxCell id="w8OnQSHXTQ-QWMvcalfN-346" value="" style="endArrow=classic;html=1;rounded=0;strokeWidth=4;fontSize=12;" edge="1" parent="w8OnQSHXTQ-QWMvcalfN-264">
          <mxGeometry width="50" height="50" relative="1" as="geometry">
            <mxPoint x="131.43" y="40" as="sourcePoint" />
            <mxPoint x="131.43" as="targetPoint" />
          </mxGeometry>
        </mxCell>
        <mxCell id="w8OnQSHXTQ-QWMvcalfN-347" value="prev" style="text;html=1;align=center;verticalAlign=middle;resizable=0;points=[];autosize=1;strokeColor=none;fillColor=none;fontSize=12;" vertex="1" parent="w8OnQSHXTQ-QWMvcalfN-264">
          <mxGeometry x="106.43" y="30" width="50" height="30" as="geometry" />
        </mxCell>
        <mxCell id="w8OnQSHXTQ-QWMvcalfN-403" value="null" style="text;html=1;align=center;verticalAlign=middle;resizable=0;points=[];autosize=1;strokeColor=none;fillColor=none;fontSize=12;" vertex="1" parent="w8OnQSHXTQ-QWMvcalfN-264">
          <mxGeometry x="141.43" y="65" width="40" height="30" as="geometry" />
        </mxCell>
        <mxCell id="w8OnQSHXTQ-QWMvcalfN-340" style="edgeStyle=orthogonalEdgeStyle;rounded=0;orthogonalLoop=1;jettySize=auto;html=1;exitX=0.5;exitY=0;exitDx=0;exitDy=0;strokeWidth=1;fontSize=12;" edge="1" parent="w8OnQSHXTQ-QWMvcalfN-257" source="w8OnQSHXTQ-QWMvcalfN-273">
          <mxGeometry relative="1" as="geometry">
            <mxPoint x="162.26190476190487" y="-20" as="targetPoint" />
          </mxGeometry>
        </mxCell>
        <mxCell id="w8OnQSHXTQ-QWMvcalfN-273" value="" style="rounded=0;whiteSpace=wrap;html=1;fillColor=#a20025;fontColor=#ffffff;strokeColor=#6F0000;" vertex="1" parent="w8OnQSHXTQ-QWMvcalfN-257">
          <mxGeometry x="150" width="25" height="40" as="geometry" />
        </mxCell>
        <mxCell id="w8OnQSHXTQ-QWMvcalfN-274" value="&lt;font style=&quot;font-size: 26px;&quot;&gt;2&lt;/font&gt;" style="rounded=0;whiteSpace=wrap;html=1;fillColor=#f8cecc;strokeColor=#b85450;" vertex="1" parent="w8OnQSHXTQ-QWMvcalfN-257">
          <mxGeometry x="100" width="50" height="40" as="geometry" />
        </mxCell>
        <mxCell id="w8OnQSHXTQ-QWMvcalfN-282" value="" style="group" vertex="1" connectable="0" parent="w8OnQSHXTQ-QWMvcalfN-256">
          <mxGeometry x="200" width="200" height="50" as="geometry" />
        </mxCell>
        <mxCell id="w8OnQSHXTQ-QWMvcalfN-283" value="" style="group" vertex="1" connectable="0" parent="w8OnQSHXTQ-QWMvcalfN-282">
          <mxGeometry width="100" height="40" as="geometry" />
        </mxCell>
        <mxCell id="w8OnQSHXTQ-QWMvcalfN-284" value="&lt;font style=&quot;font-size: 26px;&quot;&gt;10&lt;/font&gt;" style="rounded=0;whiteSpace=wrap;html=1;fillColor=#f8cecc;strokeColor=#b85450;" vertex="1" parent="w8OnQSHXTQ-QWMvcalfN-283">
          <mxGeometry width="50" height="40" as="geometry" />
        </mxCell>
        <mxCell id="w8OnQSHXTQ-QWMvcalfN-285" style="edgeStyle=orthogonalEdgeStyle;rounded=0;orthogonalLoop=1;jettySize=auto;html=1;" edge="1" parent="w8OnQSHXTQ-QWMvcalfN-283" source="w8OnQSHXTQ-QWMvcalfN-286">
          <mxGeometry relative="1" as="geometry">
            <mxPoint x="100" y="20" as="targetPoint" />
          </mxGeometry>
        </mxCell>
        <mxCell id="w8OnQSHXTQ-QWMvcalfN-286" value="" style="rounded=0;whiteSpace=wrap;html=1;fillColor=#a20025;fontColor=#ffffff;strokeColor=#6F0000;" vertex="1" parent="w8OnQSHXTQ-QWMvcalfN-283">
          <mxGeometry x="50" width="25" height="40" as="geometry" />
        </mxCell>
        <mxCell id="w8OnQSHXTQ-QWMvcalfN-287" value="" style="group" vertex="1" connectable="0" parent="w8OnQSHXTQ-QWMvcalfN-282">
          <mxGeometry x="7.142857142857142" y="10" width="100" height="40" as="geometry" />
        </mxCell>
        <mxCell id="w8OnQSHXTQ-QWMvcalfN-288" style="edgeStyle=orthogonalEdgeStyle;rounded=0;orthogonalLoop=1;jettySize=auto;html=1;" edge="1" parent="w8OnQSHXTQ-QWMvcalfN-287" source="w8OnQSHXTQ-QWMvcalfN-290">
          <mxGeometry relative="1" as="geometry">
            <mxPoint x="100" y="20" as="targetPoint" />
          </mxGeometry>
        </mxCell>
        <mxCell id="w8OnQSHXTQ-QWMvcalfN-327" value="" style="endArrow=classic;html=1;rounded=0;strokeWidth=4;fontSize=12;" edge="1" parent="w8OnQSHXTQ-QWMvcalfN-287">
          <mxGeometry width="50" height="50" relative="1" as="geometry">
            <mxPoint x="22.355714285714214" y="70" as="sourcePoint" />
            <mxPoint x="22.355714285714214" y="30" as="targetPoint" />
          </mxGeometry>
        </mxCell>
        <mxCell id="w8OnQSHXTQ-QWMvcalfN-289" style="edgeStyle=orthogonalEdgeStyle;rounded=0;orthogonalLoop=1;jettySize=auto;html=1;" edge="1" parent="w8OnQSHXTQ-QWMvcalfN-282" source="w8OnQSHXTQ-QWMvcalfN-290">
          <mxGeometry relative="1" as="geometry">
            <mxPoint x="200" y="20" as="targetPoint" />
          </mxGeometry>
        </mxCell>
        <mxCell id="w8OnQSHXTQ-QWMvcalfN-290" value="" style="rounded=0;whiteSpace=wrap;html=1;fillColor=#a20025;fontColor=#ffffff;strokeColor=#6F0000;" vertex="1" parent="w8OnQSHXTQ-QWMvcalfN-282">
          <mxGeometry x="150" width="25" height="40" as="geometry" />
        </mxCell>
        <mxCell id="w8OnQSHXTQ-QWMvcalfN-291" value="&lt;font style=&quot;font-size: 26px;&quot;&gt;20&lt;/font&gt;" style="rounded=0;whiteSpace=wrap;html=1;fillColor=#f8cecc;strokeColor=#b85450;" vertex="1" parent="w8OnQSHXTQ-QWMvcalfN-282">
          <mxGeometry x="100" width="50" height="40" as="geometry" />
        </mxCell>
        <mxCell id="w8OnQSHXTQ-QWMvcalfN-328" value="tmp" style="text;html=1;align=center;verticalAlign=middle;resizable=0;points=[];autosize=1;strokeColor=none;fillColor=none;fontSize=12;" vertex="1" parent="w8OnQSHXTQ-QWMvcalfN-256">
          <mxGeometry x="211.4285714285714" y="70" width="40" height="30" as="geometry" />
        </mxCell>
        <mxCell id="w8OnQSHXTQ-QWMvcalfN-344" value="" style="endArrow=classic;html=1;rounded=0;strokeWidth=4;fontSize=12;" edge="1" parent="w8OnQSHXTQ-QWMvcalfN-256">
          <mxGeometry width="50" height="50" relative="1" as="geometry">
            <mxPoint x="251.4285714285714" y="100" as="sourcePoint" />
            <mxPoint x="251.4285714285714" y="40" as="targetPoint" />
          </mxGeometry>
        </mxCell>
        <mxCell id="w8OnQSHXTQ-QWMvcalfN-302" value="" style="group" vertex="1" connectable="0" parent="w8OnQSHXTQ-QWMvcalfN-25">
          <mxGeometry x="18.571428571428584" y="810" width="200" height="50" as="geometry" />
        </mxCell>
        <mxCell id="w8OnQSHXTQ-QWMvcalfN-303" value="" style="group" vertex="1" connectable="0" parent="w8OnQSHXTQ-QWMvcalfN-302">
          <mxGeometry width="100" height="40" as="geometry" />
        </mxCell>
        <mxCell id="w8OnQSHXTQ-QWMvcalfN-304" value="&lt;font style=&quot;font-size: 26px;&quot;&gt;30&lt;/font&gt;" style="rounded=0;whiteSpace=wrap;html=1;fillColor=#f8cecc;strokeColor=#b85450;" vertex="1" parent="w8OnQSHXTQ-QWMvcalfN-303">
          <mxGeometry width="50" height="40" as="geometry" />
        </mxCell>
        <mxCell id="w8OnQSHXTQ-QWMvcalfN-305" style="edgeStyle=orthogonalEdgeStyle;rounded=0;orthogonalLoop=1;jettySize=auto;html=1;" edge="1" parent="w8OnQSHXTQ-QWMvcalfN-303" source="w8OnQSHXTQ-QWMvcalfN-306">
          <mxGeometry relative="1" as="geometry">
            <mxPoint x="100" y="20" as="targetPoint" />
          </mxGeometry>
        </mxCell>
        <mxCell id="w8OnQSHXTQ-QWMvcalfN-306" value="" style="rounded=0;whiteSpace=wrap;html=1;fillColor=#a20025;fontColor=#ffffff;strokeColor=#6F0000;" vertex="1" parent="w8OnQSHXTQ-QWMvcalfN-303">
          <mxGeometry x="50" width="25" height="40" as="geometry" />
        </mxCell>
        <mxCell id="w8OnQSHXTQ-QWMvcalfN-307" value="" style="group" vertex="1" connectable="0" parent="w8OnQSHXTQ-QWMvcalfN-302">
          <mxGeometry x="7.142857142857142" y="10" width="100" height="40" as="geometry" />
        </mxCell>
        <mxCell id="w8OnQSHXTQ-QWMvcalfN-308" style="edgeStyle=orthogonalEdgeStyle;rounded=0;orthogonalLoop=1;jettySize=auto;html=1;" edge="1" parent="w8OnQSHXTQ-QWMvcalfN-307" source="w8OnQSHXTQ-QWMvcalfN-310">
          <mxGeometry relative="1" as="geometry">
            <mxPoint x="100" y="20" as="targetPoint" />
          </mxGeometry>
        </mxCell>
        <mxCell id="w8OnQSHXTQ-QWMvcalfN-309" style="edgeStyle=orthogonalEdgeStyle;rounded=0;orthogonalLoop=1;jettySize=auto;html=1;" edge="1" parent="w8OnQSHXTQ-QWMvcalfN-302" source="w8OnQSHXTQ-QWMvcalfN-310">
          <mxGeometry relative="1" as="geometry">
            <mxPoint x="200" y="20" as="targetPoint" />
          </mxGeometry>
        </mxCell>
        <mxCell id="w8OnQSHXTQ-QWMvcalfN-310" value="" style="rounded=0;whiteSpace=wrap;html=1;fillColor=#a20025;fontColor=#ffffff;strokeColor=#6F0000;" vertex="1" parent="w8OnQSHXTQ-QWMvcalfN-302">
          <mxGeometry x="150" width="25" height="40" as="geometry" />
        </mxCell>
        <mxCell id="w8OnQSHXTQ-QWMvcalfN-311" value="&lt;font style=&quot;font-size: 26px;&quot;&gt;40&lt;/font&gt;" style="rounded=0;whiteSpace=wrap;html=1;fillColor=#f8cecc;strokeColor=#b85450;" vertex="1" parent="w8OnQSHXTQ-QWMvcalfN-302">
          <mxGeometry x="100" width="50" height="40" as="geometry" />
        </mxCell>
        <mxCell id="w8OnQSHXTQ-QWMvcalfN-312" value="" style="group" vertex="1" connectable="0" parent="w8OnQSHXTQ-QWMvcalfN-25">
          <mxGeometry x="218.57142857142858" y="810" width="100" height="40" as="geometry" />
        </mxCell>
        <mxCell id="w8OnQSHXTQ-QWMvcalfN-313" value="&lt;font style=&quot;font-size: 26px;&quot;&gt;5&lt;/font&gt;" style="rounded=0;whiteSpace=wrap;html=1;fillColor=#f8cecc;strokeColor=#b85450;" vertex="1" parent="w8OnQSHXTQ-QWMvcalfN-312">
          <mxGeometry width="50" height="40" as="geometry" />
        </mxCell>
        <mxCell id="w8OnQSHXTQ-QWMvcalfN-314" style="edgeStyle=orthogonalEdgeStyle;rounded=0;orthogonalLoop=1;jettySize=auto;html=1;" edge="1" parent="w8OnQSHXTQ-QWMvcalfN-312" source="w8OnQSHXTQ-QWMvcalfN-315">
          <mxGeometry relative="1" as="geometry">
            <mxPoint x="100" y="20" as="targetPoint" />
          </mxGeometry>
        </mxCell>
        <mxCell id="w8OnQSHXTQ-QWMvcalfN-315" value="" style="rounded=0;whiteSpace=wrap;html=1;fillColor=#a20025;fontColor=#ffffff;strokeColor=#6F0000;" vertex="1" parent="w8OnQSHXTQ-QWMvcalfN-312">
          <mxGeometry x="50" width="25" height="40" as="geometry" />
        </mxCell>
        <mxCell id="w8OnQSHXTQ-QWMvcalfN-316" value="" style="group" vertex="1" connectable="0" parent="w8OnQSHXTQ-QWMvcalfN-25">
          <mxGeometry x="225.7142857142857" y="820" width="100" height="40" as="geometry" />
        </mxCell>
        <mxCell id="w8OnQSHXTQ-QWMvcalfN-317" style="edgeStyle=orthogonalEdgeStyle;rounded=0;orthogonalLoop=1;jettySize=auto;html=1;" edge="1" parent="w8OnQSHXTQ-QWMvcalfN-316" source="w8OnQSHXTQ-QWMvcalfN-318">
          <mxGeometry relative="1" as="geometry">
            <mxPoint x="100" y="20" as="targetPoint" />
          </mxGeometry>
        </mxCell>
        <mxCell id="w8OnQSHXTQ-QWMvcalfN-318" value="" style="rounded=0;whiteSpace=wrap;html=1;fillColor=#a20025;fontColor=#ffffff;strokeColor=#6F0000;" vertex="1" parent="w8OnQSHXTQ-QWMvcalfN-25">
          <mxGeometry x="368.57142857142856" y="810" width="25" height="40" as="geometry" />
        </mxCell>
        <mxCell id="w8OnQSHXTQ-QWMvcalfN-319" value="&lt;font style=&quot;font-size: 27px;&quot;&gt;7&lt;/font&gt;" style="rounded=0;whiteSpace=wrap;html=1;fillColor=#f8cecc;strokeColor=#b85450;" vertex="1" parent="w8OnQSHXTQ-QWMvcalfN-25">
          <mxGeometry x="318.57142857142856" y="810" width="50" height="40" as="geometry" />
        </mxCell>
        <mxCell id="w8OnQSHXTQ-QWMvcalfN-349" value="" style="group" vertex="1" connectable="0" parent="w8OnQSHXTQ-QWMvcalfN-25">
          <mxGeometry x="-371.4285714285714" y="960" width="400" height="240" as="geometry" />
        </mxCell>
        <mxCell id="w8OnQSHXTQ-QWMvcalfN-350" value="" style="group" vertex="1" connectable="0" parent="w8OnQSHXTQ-QWMvcalfN-349">
          <mxGeometry x="-10" width="200" height="105" as="geometry" />
        </mxCell>
        <mxCell id="w8OnQSHXTQ-QWMvcalfN-351" value="" style="group" vertex="1" connectable="0" parent="w8OnQSHXTQ-QWMvcalfN-350">
          <mxGeometry width="100" height="40" as="geometry" />
        </mxCell>
        <mxCell id="w8OnQSHXTQ-QWMvcalfN-352" value="&lt;font style=&quot;font-size: 26px;&quot;&gt;1&lt;/font&gt;" style="rounded=0;whiteSpace=wrap;html=1;fillColor=#f8cecc;strokeColor=#b85450;" vertex="1" parent="w8OnQSHXTQ-QWMvcalfN-351">
          <mxGeometry width="50" height="40" as="geometry" />
        </mxCell>
        <mxCell id="w8OnQSHXTQ-QWMvcalfN-353" style="edgeStyle=orthogonalEdgeStyle;rounded=0;orthogonalLoop=1;jettySize=auto;html=1;" edge="1" parent="w8OnQSHXTQ-QWMvcalfN-351" source="w8OnQSHXTQ-QWMvcalfN-354">
          <mxGeometry relative="1" as="geometry">
            <mxPoint x="100" y="20" as="targetPoint" />
          </mxGeometry>
        </mxCell>
        <mxCell id="w8OnQSHXTQ-QWMvcalfN-354" value="" style="rounded=0;whiteSpace=wrap;html=1;fillColor=#a20025;fontColor=#ffffff;strokeColor=#6F0000;" vertex="1" parent="w8OnQSHXTQ-QWMvcalfN-351">
          <mxGeometry x="50" width="25" height="40" as="geometry" />
        </mxCell>
        <mxCell id="w8OnQSHXTQ-QWMvcalfN-355" value="" style="group" vertex="1" connectable="0" parent="w8OnQSHXTQ-QWMvcalfN-350">
          <mxGeometry x="7.142857142857142" y="10" width="184.28571428571425" height="95" as="geometry" />
        </mxCell>
        <mxCell id="w8OnQSHXTQ-QWMvcalfN-356" style="edgeStyle=orthogonalEdgeStyle;rounded=0;orthogonalLoop=1;jettySize=auto;html=1;" edge="1" parent="w8OnQSHXTQ-QWMvcalfN-355" source="w8OnQSHXTQ-QWMvcalfN-363">
          <mxGeometry relative="1" as="geometry">
            <mxPoint x="100" y="20" as="targetPoint" />
          </mxGeometry>
        </mxCell>
        <mxCell id="w8OnQSHXTQ-QWMvcalfN-357" value="" style="group" vertex="1" connectable="0" parent="w8OnQSHXTQ-QWMvcalfN-355">
          <mxGeometry x="2.8557142857142424" y="30" width="181.43" height="65" as="geometry" />
        </mxCell>
        <mxCell id="w8OnQSHXTQ-QWMvcalfN-358" value="" style="endArrow=classic;html=1;rounded=0;fontSize=22;strokeWidth=4;" edge="1" parent="w8OnQSHXTQ-QWMvcalfN-357">
          <mxGeometry width="50" height="50" relative="1" as="geometry">
            <mxPoint x="30" y="40" as="sourcePoint" />
            <mxPoint x="30" as="targetPoint" />
            <Array as="points">
              <mxPoint x="30" y="30" />
            </Array>
          </mxGeometry>
        </mxCell>
        <mxCell id="w8OnQSHXTQ-QWMvcalfN-359" value="&lt;font style=&quot;font-size: 13px;&quot;&gt;leftPrev&lt;/font&gt;" style="text;html=1;align=center;verticalAlign=middle;resizable=0;points=[];autosize=1;strokeColor=none;fillColor=none;fontSize=22;" vertex="1" parent="w8OnQSHXTQ-QWMvcalfN-357">
          <mxGeometry y="25" width="70" height="40" as="geometry" />
        </mxCell>
        <mxCell id="w8OnQSHXTQ-QWMvcalfN-466" value="null" style="text;html=1;align=center;verticalAlign=middle;resizable=0;points=[];autosize=1;strokeColor=none;fillColor=none;fontSize=12;" vertex="1" parent="w8OnQSHXTQ-QWMvcalfN-357">
          <mxGeometry x="141.43" y="35" width="40" height="30" as="geometry" />
        </mxCell>
        <mxCell id="w8OnQSHXTQ-QWMvcalfN-362" style="edgeStyle=orthogonalEdgeStyle;rounded=0;orthogonalLoop=1;jettySize=auto;html=1;exitX=0.5;exitY=0;exitDx=0;exitDy=0;strokeWidth=1;fontSize=12;" edge="1" parent="w8OnQSHXTQ-QWMvcalfN-350" source="w8OnQSHXTQ-QWMvcalfN-363">
          <mxGeometry relative="1" as="geometry">
            <mxPoint x="162.26190476190487" y="-20" as="targetPoint" />
          </mxGeometry>
        </mxCell>
        <mxCell id="w8OnQSHXTQ-QWMvcalfN-363" value="" style="rounded=0;whiteSpace=wrap;html=1;fillColor=#a20025;fontColor=#ffffff;strokeColor=#6F0000;" vertex="1" parent="w8OnQSHXTQ-QWMvcalfN-350">
          <mxGeometry x="150" width="25" height="40" as="geometry" />
        </mxCell>
        <mxCell id="w8OnQSHXTQ-QWMvcalfN-364" value="&lt;font style=&quot;font-size: 26px;&quot;&gt;2&lt;/font&gt;" style="rounded=0;whiteSpace=wrap;html=1;fillColor=#f8cecc;strokeColor=#b85450;" vertex="1" parent="w8OnQSHXTQ-QWMvcalfN-350">
          <mxGeometry x="100" width="50" height="40" as="geometry" />
        </mxCell>
        <mxCell id="w8OnQSHXTQ-QWMvcalfN-365" value="" style="group" vertex="1" connectable="0" parent="w8OnQSHXTQ-QWMvcalfN-349">
          <mxGeometry x="190" width="200" height="50" as="geometry" />
        </mxCell>
        <mxCell id="w8OnQSHXTQ-QWMvcalfN-366" value="" style="group" vertex="1" connectable="0" parent="w8OnQSHXTQ-QWMvcalfN-365">
          <mxGeometry width="100" height="40" as="geometry" />
        </mxCell>
        <mxCell id="w8OnQSHXTQ-QWMvcalfN-367" value="&lt;font style=&quot;font-size: 26px;&quot;&gt;10&lt;/font&gt;" style="rounded=0;whiteSpace=wrap;html=1;fillColor=#f8cecc;strokeColor=#b85450;" vertex="1" parent="w8OnQSHXTQ-QWMvcalfN-366">
          <mxGeometry width="50" height="40" as="geometry" />
        </mxCell>
        <mxCell id="w8OnQSHXTQ-QWMvcalfN-369" value="" style="rounded=0;whiteSpace=wrap;html=1;fillColor=#a20025;fontColor=#ffffff;strokeColor=#6F0000;" vertex="1" parent="w8OnQSHXTQ-QWMvcalfN-366">
          <mxGeometry x="50" width="25" height="40" as="geometry" />
        </mxCell>
        <mxCell id="w8OnQSHXTQ-QWMvcalfN-370" value="" style="group" vertex="1" connectable="0" parent="w8OnQSHXTQ-QWMvcalfN-365">
          <mxGeometry x="7.142857142857142" y="10" width="100" height="40" as="geometry" />
        </mxCell>
        <mxCell id="w8OnQSHXTQ-QWMvcalfN-371" style="edgeStyle=orthogonalEdgeStyle;rounded=0;orthogonalLoop=1;jettySize=auto;html=1;" edge="1" parent="w8OnQSHXTQ-QWMvcalfN-370" source="w8OnQSHXTQ-QWMvcalfN-374">
          <mxGeometry relative="1" as="geometry">
            <mxPoint x="100" y="20" as="targetPoint" />
          </mxGeometry>
        </mxCell>
        <mxCell id="w8OnQSHXTQ-QWMvcalfN-360" value="" style="endArrow=classic;html=1;rounded=0;strokeWidth=4;fontSize=12;" edge="1" parent="w8OnQSHXTQ-QWMvcalfN-370">
          <mxGeometry width="50" height="50" relative="1" as="geometry">
            <mxPoint x="24.935714285714226" y="67.5" as="sourcePoint" />
            <mxPoint x="24.935714285714226" y="27.5" as="targetPoint" />
          </mxGeometry>
        </mxCell>
        <mxCell id="w8OnQSHXTQ-QWMvcalfN-373" style="edgeStyle=orthogonalEdgeStyle;rounded=0;orthogonalLoop=1;jettySize=auto;html=1;" edge="1" parent="w8OnQSHXTQ-QWMvcalfN-365" source="w8OnQSHXTQ-QWMvcalfN-374">
          <mxGeometry relative="1" as="geometry">
            <mxPoint x="200" y="20" as="targetPoint" />
          </mxGeometry>
        </mxCell>
        <mxCell id="w8OnQSHXTQ-QWMvcalfN-374" value="" style="rounded=0;whiteSpace=wrap;html=1;fillColor=#a20025;fontColor=#ffffff;strokeColor=#6F0000;" vertex="1" parent="w8OnQSHXTQ-QWMvcalfN-365">
          <mxGeometry x="150" width="25" height="40" as="geometry" />
        </mxCell>
        <mxCell id="w8OnQSHXTQ-QWMvcalfN-375" value="&lt;font style=&quot;font-size: 26px;&quot;&gt;20&lt;/font&gt;" style="rounded=0;whiteSpace=wrap;html=1;fillColor=#f8cecc;strokeColor=#b85450;" vertex="1" parent="w8OnQSHXTQ-QWMvcalfN-365">
          <mxGeometry x="100" width="50" height="40" as="geometry" />
        </mxCell>
        <mxCell id="w8OnQSHXTQ-QWMvcalfN-405" value="" style="endArrow=classic;html=1;rounded=0;strokeWidth=4;fontSize=12;" edge="1" parent="w8OnQSHXTQ-QWMvcalfN-365">
          <mxGeometry width="50" height="50" relative="1" as="geometry">
            <mxPoint x="124.57857142857137" y="80" as="sourcePoint" />
            <mxPoint x="124.57857142857137" y="40" as="targetPoint" />
          </mxGeometry>
        </mxCell>
        <mxCell id="w8OnQSHXTQ-QWMvcalfN-377" value="" style="endArrow=classic;html=1;rounded=0;strokeWidth=4;fontSize=12;" edge="1" parent="w8OnQSHXTQ-QWMvcalfN-365">
          <mxGeometry width="50" height="50" relative="1" as="geometry">
            <mxPoint x="149.99857142857138" y="100" as="sourcePoint" />
            <mxPoint x="149.99857142857138" y="40" as="targetPoint" />
          </mxGeometry>
        </mxCell>
        <mxCell id="w8OnQSHXTQ-QWMvcalfN-407" style="edgeStyle=orthogonalEdgeStyle;rounded=0;orthogonalLoop=1;jettySize=auto;html=1;exitX=0;exitY=0.5;exitDx=0;exitDy=0;entryX=1;entryY=0.5;entryDx=0;entryDy=0;strokeWidth=1;fontSize=12;" edge="1" parent="w8OnQSHXTQ-QWMvcalfN-349" source="w8OnQSHXTQ-QWMvcalfN-367" target="w8OnQSHXTQ-QWMvcalfN-363">
          <mxGeometry relative="1" as="geometry" />
        </mxCell>
        <mxCell id="w8OnQSHXTQ-QWMvcalfN-402" value="curr" style="text;html=1;align=center;verticalAlign=middle;resizable=0;points=[];autosize=1;strokeColor=none;fillColor=none;fontSize=12;" vertex="1" parent="w8OnQSHXTQ-QWMvcalfN-349">
          <mxGeometry x="331.4285714285714" y="90" width="40" height="30" as="geometry" />
        </mxCell>
        <mxCell id="w8OnQSHXTQ-QWMvcalfN-411" value="prev" style="text;html=1;align=center;verticalAlign=middle;resizable=0;points=[];autosize=1;strokeColor=none;fillColor=none;fontSize=12;" vertex="1" parent="w8OnQSHXTQ-QWMvcalfN-349">
          <mxGeometry x="189.99857142857138" y="70" width="50" height="30" as="geometry" />
        </mxCell>
        <mxCell id="w8OnQSHXTQ-QWMvcalfN-414" value="" style="group" vertex="1" connectable="0" parent="w8OnQSHXTQ-QWMvcalfN-349">
          <mxGeometry x="-10" y="120" width="200" height="105" as="geometry" />
        </mxCell>
        <mxCell id="w8OnQSHXTQ-QWMvcalfN-415" value="" style="group" vertex="1" connectable="0" parent="w8OnQSHXTQ-QWMvcalfN-414">
          <mxGeometry y="10" width="100" height="40" as="geometry" />
        </mxCell>
        <mxCell id="w8OnQSHXTQ-QWMvcalfN-416" value="&lt;font style=&quot;font-size: 26px;&quot;&gt;1&lt;/font&gt;" style="rounded=0;whiteSpace=wrap;html=1;fillColor=#f8cecc;strokeColor=#b85450;" vertex="1" parent="w8OnQSHXTQ-QWMvcalfN-415">
          <mxGeometry width="50" height="40" as="geometry" />
        </mxCell>
        <mxCell id="w8OnQSHXTQ-QWMvcalfN-417" style="edgeStyle=orthogonalEdgeStyle;rounded=0;orthogonalLoop=1;jettySize=auto;html=1;" edge="1" parent="w8OnQSHXTQ-QWMvcalfN-415" source="w8OnQSHXTQ-QWMvcalfN-418">
          <mxGeometry relative="1" as="geometry">
            <mxPoint x="100" y="20" as="targetPoint" />
          </mxGeometry>
        </mxCell>
        <mxCell id="w8OnQSHXTQ-QWMvcalfN-418" value="" style="rounded=0;whiteSpace=wrap;html=1;fillColor=#a20025;fontColor=#ffffff;strokeColor=#6F0000;" vertex="1" parent="w8OnQSHXTQ-QWMvcalfN-415">
          <mxGeometry x="50" width="25" height="40" as="geometry" />
        </mxCell>
        <mxCell id="w8OnQSHXTQ-QWMvcalfN-419" value="" style="group" vertex="1" connectable="0" parent="w8OnQSHXTQ-QWMvcalfN-414">
          <mxGeometry x="7.142857142857142" y="10" width="167.85571428571424" height="95" as="geometry" />
        </mxCell>
        <mxCell id="w8OnQSHXTQ-QWMvcalfN-420" style="edgeStyle=orthogonalEdgeStyle;rounded=0;orthogonalLoop=1;jettySize=auto;html=1;" edge="1" parent="w8OnQSHXTQ-QWMvcalfN-419" source="w8OnQSHXTQ-QWMvcalfN-425">
          <mxGeometry relative="1" as="geometry">
            <mxPoint x="100" y="30" as="targetPoint" />
          </mxGeometry>
        </mxCell>
        <mxCell id="w8OnQSHXTQ-QWMvcalfN-421" value="" style="group" vertex="1" connectable="0" parent="w8OnQSHXTQ-QWMvcalfN-419">
          <mxGeometry x="2.8557142857142424" y="30" width="165" height="65" as="geometry" />
        </mxCell>
        <mxCell id="w8OnQSHXTQ-QWMvcalfN-422" value="" style="endArrow=classic;html=1;rounded=0;fontSize=22;strokeWidth=4;" edge="1" parent="w8OnQSHXTQ-QWMvcalfN-421">
          <mxGeometry width="50" height="50" relative="1" as="geometry">
            <mxPoint x="30" y="50" as="sourcePoint" />
            <mxPoint x="30" y="10" as="targetPoint" />
            <Array as="points">
              <mxPoint x="30" y="40" />
            </Array>
          </mxGeometry>
        </mxCell>
        <mxCell id="w8OnQSHXTQ-QWMvcalfN-423" value="&lt;font style=&quot;font-size: 13px;&quot;&gt;leftPrev&lt;/font&gt;" style="text;html=1;align=center;verticalAlign=middle;resizable=0;points=[];autosize=1;strokeColor=none;fillColor=none;fontSize=22;" vertex="1" parent="w8OnQSHXTQ-QWMvcalfN-421">
          <mxGeometry y="35" width="70" height="40" as="geometry" />
        </mxCell>
        <mxCell id="w8OnQSHXTQ-QWMvcalfN-424" style="edgeStyle=orthogonalEdgeStyle;rounded=0;orthogonalLoop=1;jettySize=auto;html=1;exitX=0.5;exitY=0;exitDx=0;exitDy=0;strokeWidth=1;fontSize=12;" edge="1" parent="w8OnQSHXTQ-QWMvcalfN-414" source="w8OnQSHXTQ-QWMvcalfN-425">
          <mxGeometry relative="1" as="geometry">
            <mxPoint x="162.26190476190487" y="-10" as="targetPoint" />
          </mxGeometry>
        </mxCell>
        <mxCell id="w8OnQSHXTQ-QWMvcalfN-425" value="" style="rounded=0;whiteSpace=wrap;html=1;fillColor=#a20025;fontColor=#ffffff;strokeColor=#6F0000;" vertex="1" parent="w8OnQSHXTQ-QWMvcalfN-414">
          <mxGeometry x="150" y="10" width="25" height="40" as="geometry" />
        </mxCell>
        <mxCell id="w8OnQSHXTQ-QWMvcalfN-426" value="&lt;font style=&quot;font-size: 26px;&quot;&gt;2&lt;/font&gt;" style="rounded=0;whiteSpace=wrap;html=1;fillColor=#f8cecc;strokeColor=#b85450;" vertex="1" parent="w8OnQSHXTQ-QWMvcalfN-414">
          <mxGeometry x="100" y="10" width="50" height="40" as="geometry" />
        </mxCell>
        <mxCell id="w8OnQSHXTQ-QWMvcalfN-427" value="" style="group" vertex="1" connectable="0" parent="w8OnQSHXTQ-QWMvcalfN-349">
          <mxGeometry x="190" y="130" width="200" height="50" as="geometry" />
        </mxCell>
        <mxCell id="w8OnQSHXTQ-QWMvcalfN-428" value="" style="group" vertex="1" connectable="0" parent="w8OnQSHXTQ-QWMvcalfN-427">
          <mxGeometry width="100" height="40" as="geometry" />
        </mxCell>
        <mxCell id="w8OnQSHXTQ-QWMvcalfN-429" value="&lt;font style=&quot;font-size: 26px;&quot;&gt;10&lt;/font&gt;" style="rounded=0;whiteSpace=wrap;html=1;fillColor=#f8cecc;strokeColor=#b85450;" vertex="1" parent="w8OnQSHXTQ-QWMvcalfN-428">
          <mxGeometry width="50" height="40" as="geometry" />
        </mxCell>
        <mxCell id="w8OnQSHXTQ-QWMvcalfN-430" value="" style="rounded=0;whiteSpace=wrap;html=1;fillColor=#a20025;fontColor=#ffffff;strokeColor=#6F0000;" vertex="1" parent="w8OnQSHXTQ-QWMvcalfN-428">
          <mxGeometry x="50" width="25" height="40" as="geometry" />
        </mxCell>
        <mxCell id="w8OnQSHXTQ-QWMvcalfN-431" value="" style="group" vertex="1" connectable="0" parent="w8OnQSHXTQ-QWMvcalfN-427">
          <mxGeometry x="7.142857142857142" y="10" width="100" height="40" as="geometry" />
        </mxCell>
        <mxCell id="w8OnQSHXTQ-QWMvcalfN-432" style="edgeStyle=orthogonalEdgeStyle;rounded=0;orthogonalLoop=1;jettySize=auto;html=1;" edge="1" parent="w8OnQSHXTQ-QWMvcalfN-431" source="w8OnQSHXTQ-QWMvcalfN-435">
          <mxGeometry relative="1" as="geometry">
            <mxPoint x="100" y="20" as="targetPoint" />
          </mxGeometry>
        </mxCell>
        <mxCell id="w8OnQSHXTQ-QWMvcalfN-435" value="" style="rounded=0;whiteSpace=wrap;html=1;fillColor=#a20025;fontColor=#ffffff;strokeColor=#6F0000;" vertex="1" parent="w8OnQSHXTQ-QWMvcalfN-427">
          <mxGeometry x="150" width="25" height="40" as="geometry" />
        </mxCell>
        <mxCell id="w8OnQSHXTQ-QWMvcalfN-470" style="edgeStyle=orthogonalEdgeStyle;rounded=0;orthogonalLoop=1;jettySize=auto;html=1;exitX=0;exitY=0.5;exitDx=0;exitDy=0;entryX=1;entryY=0.5;entryDx=0;entryDy=0;strokeWidth=1;fontSize=12;" edge="1" parent="w8OnQSHXTQ-QWMvcalfN-427" source="w8OnQSHXTQ-QWMvcalfN-436" target="w8OnQSHXTQ-QWMvcalfN-430">
          <mxGeometry relative="1" as="geometry" />
        </mxCell>
        <mxCell id="w8OnQSHXTQ-QWMvcalfN-436" value="&lt;font style=&quot;font-size: 26px;&quot;&gt;20&lt;/font&gt;" style="rounded=0;whiteSpace=wrap;html=1;fillColor=#f8cecc;strokeColor=#b85450;" vertex="1" parent="w8OnQSHXTQ-QWMvcalfN-427">
          <mxGeometry x="100" width="50" height="40" as="geometry" />
        </mxCell>
        <mxCell id="w8OnQSHXTQ-QWMvcalfN-473" value="" style="endArrow=classic;html=1;rounded=0;strokeWidth=4;fontSize=12;" edge="1" parent="w8OnQSHXTQ-QWMvcalfN-427">
          <mxGeometry width="50" height="50" relative="1" as="geometry">
            <mxPoint x="131.4285714285714" y="80" as="sourcePoint" />
            <mxPoint x="131.4285714285714" y="40" as="targetPoint" />
          </mxGeometry>
        </mxCell>
        <mxCell id="w8OnQSHXTQ-QWMvcalfN-439" style="edgeStyle=orthogonalEdgeStyle;rounded=0;orthogonalLoop=1;jettySize=auto;html=1;exitX=0;exitY=0.5;exitDx=0;exitDy=0;entryX=1;entryY=0.5;entryDx=0;entryDy=0;strokeWidth=1;fontSize=12;" edge="1" source="w8OnQSHXTQ-QWMvcalfN-429" target="w8OnQSHXTQ-QWMvcalfN-425" parent="w8OnQSHXTQ-QWMvcalfN-349">
          <mxGeometry relative="1" as="geometry" />
        </mxCell>
        <mxCell id="w8OnQSHXTQ-QWMvcalfN-476" value="" style="group" vertex="1" connectable="0" parent="w8OnQSHXTQ-QWMvcalfN-349">
          <mxGeometry x="-10" y="280" width="200" height="105" as="geometry" />
        </mxCell>
        <mxCell id="w8OnQSHXTQ-QWMvcalfN-477" value="" style="group" vertex="1" connectable="0" parent="w8OnQSHXTQ-QWMvcalfN-476">
          <mxGeometry width="100" height="40" as="geometry" />
        </mxCell>
        <mxCell id="w8OnQSHXTQ-QWMvcalfN-478" value="&lt;font style=&quot;font-size: 26px;&quot;&gt;1&lt;/font&gt;" style="rounded=0;whiteSpace=wrap;html=1;fillColor=#f8cecc;strokeColor=#b85450;" vertex="1" parent="w8OnQSHXTQ-QWMvcalfN-477">
          <mxGeometry width="50" height="40" as="geometry" />
        </mxCell>
        <mxCell id="w8OnQSHXTQ-QWMvcalfN-479" style="edgeStyle=orthogonalEdgeStyle;rounded=0;orthogonalLoop=1;jettySize=auto;html=1;" edge="1" parent="w8OnQSHXTQ-QWMvcalfN-477" source="w8OnQSHXTQ-QWMvcalfN-480">
          <mxGeometry relative="1" as="geometry">
            <mxPoint x="100" y="20" as="targetPoint" />
          </mxGeometry>
        </mxCell>
        <mxCell id="w8OnQSHXTQ-QWMvcalfN-480" value="" style="rounded=0;whiteSpace=wrap;html=1;fillColor=#a20025;fontColor=#ffffff;strokeColor=#6F0000;" vertex="1" parent="w8OnQSHXTQ-QWMvcalfN-477">
          <mxGeometry x="50" width="25" height="40" as="geometry" />
        </mxCell>
        <mxCell id="w8OnQSHXTQ-QWMvcalfN-481" value="" style="group" vertex="1" connectable="0" parent="w8OnQSHXTQ-QWMvcalfN-476">
          <mxGeometry x="7.142857142857142" y="10" width="167.85571428571424" height="95" as="geometry" />
        </mxCell>
        <mxCell id="w8OnQSHXTQ-QWMvcalfN-482" style="edgeStyle=orthogonalEdgeStyle;rounded=0;orthogonalLoop=1;jettySize=auto;html=1;" edge="1" parent="w8OnQSHXTQ-QWMvcalfN-481" source="w8OnQSHXTQ-QWMvcalfN-487">
          <mxGeometry relative="1" as="geometry">
            <mxPoint x="100" y="20" as="targetPoint" />
          </mxGeometry>
        </mxCell>
        <mxCell id="w8OnQSHXTQ-QWMvcalfN-483" value="" style="group" vertex="1" connectable="0" parent="w8OnQSHXTQ-QWMvcalfN-481">
          <mxGeometry x="2.8557142857142424" y="30" width="165" height="65" as="geometry" />
        </mxCell>
        <mxCell id="w8OnQSHXTQ-QWMvcalfN-484" value="" style="endArrow=classic;html=1;rounded=0;fontSize=22;strokeWidth=4;" edge="1" parent="w8OnQSHXTQ-QWMvcalfN-483">
          <mxGeometry width="50" height="50" relative="1" as="geometry">
            <mxPoint x="30" y="40" as="sourcePoint" />
            <mxPoint x="30" as="targetPoint" />
            <Array as="points">
              <mxPoint x="30" y="30" />
            </Array>
          </mxGeometry>
        </mxCell>
        <mxCell id="w8OnQSHXTQ-QWMvcalfN-485" value="&lt;font style=&quot;font-size: 13px;&quot;&gt;leftPrev&lt;/font&gt;" style="text;html=1;align=center;verticalAlign=middle;resizable=0;points=[];autosize=1;strokeColor=none;fillColor=none;fontSize=22;" vertex="1" parent="w8OnQSHXTQ-QWMvcalfN-483">
          <mxGeometry y="25" width="70" height="40" as="geometry" />
        </mxCell>
        <mxCell id="w8OnQSHXTQ-QWMvcalfN-486" style="edgeStyle=orthogonalEdgeStyle;rounded=0;orthogonalLoop=1;jettySize=auto;html=1;exitX=0.5;exitY=0;exitDx=0;exitDy=0;strokeWidth=1;fontSize=12;" edge="1" parent="w8OnQSHXTQ-QWMvcalfN-476" source="w8OnQSHXTQ-QWMvcalfN-487">
          <mxGeometry relative="1" as="geometry">
            <mxPoint x="162.26190476190487" y="-20" as="targetPoint" />
          </mxGeometry>
        </mxCell>
        <mxCell id="w8OnQSHXTQ-QWMvcalfN-487" value="" style="rounded=0;whiteSpace=wrap;html=1;fillColor=#a20025;fontColor=#ffffff;strokeColor=#6F0000;" vertex="1" parent="w8OnQSHXTQ-QWMvcalfN-476">
          <mxGeometry x="150" width="25" height="40" as="geometry" />
        </mxCell>
        <mxCell id="w8OnQSHXTQ-QWMvcalfN-488" value="&lt;font style=&quot;font-size: 26px;&quot;&gt;2&lt;/font&gt;" style="rounded=0;whiteSpace=wrap;html=1;fillColor=#f8cecc;strokeColor=#b85450;" vertex="1" parent="w8OnQSHXTQ-QWMvcalfN-476">
          <mxGeometry x="100" width="50" height="40" as="geometry" />
        </mxCell>
        <mxCell id="w8OnQSHXTQ-QWMvcalfN-489" value="" style="group" vertex="1" connectable="0" parent="w8OnQSHXTQ-QWMvcalfN-349">
          <mxGeometry x="190" y="280" width="200" height="50" as="geometry" />
        </mxCell>
        <mxCell id="w8OnQSHXTQ-QWMvcalfN-490" value="" style="group" vertex="1" connectable="0" parent="w8OnQSHXTQ-QWMvcalfN-489">
          <mxGeometry width="100" height="40" as="geometry" />
        </mxCell>
        <mxCell id="w8OnQSHXTQ-QWMvcalfN-491" value="&lt;font style=&quot;font-size: 26px;&quot;&gt;10&lt;/font&gt;" style="rounded=0;whiteSpace=wrap;html=1;fillColor=#f8cecc;strokeColor=#b85450;" vertex="1" parent="w8OnQSHXTQ-QWMvcalfN-490">
          <mxGeometry width="50" height="40" as="geometry" />
        </mxCell>
        <mxCell id="w8OnQSHXTQ-QWMvcalfN-492" value="" style="rounded=0;whiteSpace=wrap;html=1;fillColor=#a20025;fontColor=#ffffff;strokeColor=#6F0000;" vertex="1" parent="w8OnQSHXTQ-QWMvcalfN-490">
          <mxGeometry x="50" width="25" height="40" as="geometry" />
        </mxCell>
        <mxCell id="w8OnQSHXTQ-QWMvcalfN-493" value="" style="group" vertex="1" connectable="0" parent="w8OnQSHXTQ-QWMvcalfN-489">
          <mxGeometry x="7.142857142857142" y="10" width="100" height="40" as="geometry" />
        </mxCell>
        <mxCell id="w8OnQSHXTQ-QWMvcalfN-494" style="edgeStyle=orthogonalEdgeStyle;rounded=0;orthogonalLoop=1;jettySize=auto;html=1;" edge="1" parent="w8OnQSHXTQ-QWMvcalfN-493" source="w8OnQSHXTQ-QWMvcalfN-495">
          <mxGeometry relative="1" as="geometry">
            <mxPoint x="100" y="20" as="targetPoint" />
          </mxGeometry>
        </mxCell>
        <mxCell id="w8OnQSHXTQ-QWMvcalfN-495" value="" style="rounded=0;whiteSpace=wrap;html=1;fillColor=#a20025;fontColor=#ffffff;strokeColor=#6F0000;" vertex="1" parent="w8OnQSHXTQ-QWMvcalfN-489">
          <mxGeometry x="150" width="25" height="40" as="geometry" />
        </mxCell>
        <mxCell id="w8OnQSHXTQ-QWMvcalfN-496" style="edgeStyle=orthogonalEdgeStyle;rounded=0;orthogonalLoop=1;jettySize=auto;html=1;exitX=0;exitY=0.5;exitDx=0;exitDy=0;entryX=1;entryY=0.5;entryDx=0;entryDy=0;strokeWidth=1;fontSize=12;" edge="1" parent="w8OnQSHXTQ-QWMvcalfN-489" source="w8OnQSHXTQ-QWMvcalfN-497" target="w8OnQSHXTQ-QWMvcalfN-492">
          <mxGeometry relative="1" as="geometry" />
        </mxCell>
        <mxCell id="w8OnQSHXTQ-QWMvcalfN-497" value="&lt;font style=&quot;font-size: 26px;&quot;&gt;20&lt;/font&gt;" style="rounded=0;whiteSpace=wrap;html=1;fillColor=#f8cecc;strokeColor=#b85450;" vertex="1" parent="w8OnQSHXTQ-QWMvcalfN-489">
          <mxGeometry x="100" width="50" height="40" as="geometry" />
        </mxCell>
        <mxCell id="w8OnQSHXTQ-QWMvcalfN-499" style="edgeStyle=orthogonalEdgeStyle;rounded=0;orthogonalLoop=1;jettySize=auto;html=1;exitX=0;exitY=0.5;exitDx=0;exitDy=0;entryX=1;entryY=0.5;entryDx=0;entryDy=0;strokeWidth=1;fontSize=12;" edge="1" source="w8OnQSHXTQ-QWMvcalfN-491" target="w8OnQSHXTQ-QWMvcalfN-487" parent="w8OnQSHXTQ-QWMvcalfN-349">
          <mxGeometry relative="1" as="geometry" />
        </mxCell>
        <mxCell id="w8OnQSHXTQ-QWMvcalfN-474" value="prev" style="text;html=1;align=center;verticalAlign=middle;resizable=0;points=[];autosize=1;strokeColor=none;fillColor=none;fontSize=12;" vertex="1" parent="w8OnQSHXTQ-QWMvcalfN-349">
          <mxGeometry x="301.4285714285714" y="195" width="50" height="30" as="geometry" />
        </mxCell>
        <mxCell id="w8OnQSHXTQ-QWMvcalfN-532" value="" style="group" vertex="1" connectable="0" parent="w8OnQSHXTQ-QWMvcalfN-349">
          <mxGeometry x="-10" y="420" width="200" height="105" as="geometry" />
        </mxCell>
        <mxCell id="w8OnQSHXTQ-QWMvcalfN-533" value="" style="group" vertex="1" connectable="0" parent="w8OnQSHXTQ-QWMvcalfN-532">
          <mxGeometry width="100" height="40" as="geometry" />
        </mxCell>
        <mxCell id="w8OnQSHXTQ-QWMvcalfN-534" value="&lt;font style=&quot;font-size: 26px;&quot;&gt;1&lt;/font&gt;" style="rounded=0;whiteSpace=wrap;html=1;fillColor=#f8cecc;strokeColor=#b85450;" vertex="1" parent="w8OnQSHXTQ-QWMvcalfN-533">
          <mxGeometry width="50" height="40" as="geometry" />
        </mxCell>
        <mxCell id="w8OnQSHXTQ-QWMvcalfN-535" style="edgeStyle=orthogonalEdgeStyle;rounded=0;orthogonalLoop=1;jettySize=auto;html=1;" edge="1" parent="w8OnQSHXTQ-QWMvcalfN-533" source="w8OnQSHXTQ-QWMvcalfN-536">
          <mxGeometry relative="1" as="geometry">
            <mxPoint x="100" y="20" as="targetPoint" />
          </mxGeometry>
        </mxCell>
        <mxCell id="w8OnQSHXTQ-QWMvcalfN-536" value="" style="rounded=0;whiteSpace=wrap;html=1;fillColor=#a20025;fontColor=#ffffff;strokeColor=#6F0000;" vertex="1" parent="w8OnQSHXTQ-QWMvcalfN-533">
          <mxGeometry x="50" width="25" height="40" as="geometry" />
        </mxCell>
        <mxCell id="w8OnQSHXTQ-QWMvcalfN-537" value="" style="group" vertex="1" connectable="0" parent="w8OnQSHXTQ-QWMvcalfN-532">
          <mxGeometry x="7.142857142857142" y="10" width="167.85571428571424" height="95" as="geometry" />
        </mxCell>
        <mxCell id="w8OnQSHXTQ-QWMvcalfN-538" style="edgeStyle=orthogonalEdgeStyle;rounded=0;orthogonalLoop=1;jettySize=auto;html=1;" edge="1" parent="w8OnQSHXTQ-QWMvcalfN-537" source="w8OnQSHXTQ-QWMvcalfN-543">
          <mxGeometry relative="1" as="geometry">
            <mxPoint x="100" y="20" as="targetPoint" />
          </mxGeometry>
        </mxCell>
        <mxCell id="w8OnQSHXTQ-QWMvcalfN-539" value="" style="group" vertex="1" connectable="0" parent="w8OnQSHXTQ-QWMvcalfN-537">
          <mxGeometry x="2.8557142857142424" y="30" width="165" height="65" as="geometry" />
        </mxCell>
        <mxCell id="w8OnQSHXTQ-QWMvcalfN-540" value="" style="endArrow=classic;html=1;rounded=0;fontSize=22;strokeWidth=4;" edge="1" parent="w8OnQSHXTQ-QWMvcalfN-539">
          <mxGeometry width="50" height="50" relative="1" as="geometry">
            <mxPoint x="30" y="40" as="sourcePoint" />
            <mxPoint x="30" as="targetPoint" />
            <Array as="points">
              <mxPoint x="30" y="30" />
            </Array>
          </mxGeometry>
        </mxCell>
        <mxCell id="w8OnQSHXTQ-QWMvcalfN-541" value="&lt;font style=&quot;font-size: 13px;&quot;&gt;leftPrev&lt;/font&gt;" style="text;html=1;align=center;verticalAlign=middle;resizable=0;points=[];autosize=1;strokeColor=none;fillColor=none;fontSize=22;" vertex="1" parent="w8OnQSHXTQ-QWMvcalfN-539">
          <mxGeometry y="25" width="70" height="40" as="geometry" />
        </mxCell>
        <mxCell id="w8OnQSHXTQ-QWMvcalfN-542" style="edgeStyle=orthogonalEdgeStyle;rounded=0;orthogonalLoop=1;jettySize=auto;html=1;exitX=0.5;exitY=0;exitDx=0;exitDy=0;strokeWidth=1;fontSize=12;" edge="1" parent="w8OnQSHXTQ-QWMvcalfN-532" source="w8OnQSHXTQ-QWMvcalfN-543">
          <mxGeometry relative="1" as="geometry">
            <mxPoint x="162.26190476190487" y="-20" as="targetPoint" />
          </mxGeometry>
        </mxCell>
        <mxCell id="w8OnQSHXTQ-QWMvcalfN-543" value="" style="rounded=0;whiteSpace=wrap;html=1;fillColor=#a20025;fontColor=#ffffff;strokeColor=#6F0000;" vertex="1" parent="w8OnQSHXTQ-QWMvcalfN-532">
          <mxGeometry x="150" width="25" height="40" as="geometry" />
        </mxCell>
        <mxCell id="w8OnQSHXTQ-QWMvcalfN-544" value="&lt;font style=&quot;font-size: 26px;&quot;&gt;2&lt;/font&gt;" style="rounded=0;whiteSpace=wrap;html=1;fillColor=#f8cecc;strokeColor=#b85450;" vertex="1" parent="w8OnQSHXTQ-QWMvcalfN-532">
          <mxGeometry x="100" width="50" height="40" as="geometry" />
        </mxCell>
        <mxCell id="w8OnQSHXTQ-QWMvcalfN-545" value="" style="group" vertex="1" connectable="0" parent="w8OnQSHXTQ-QWMvcalfN-349">
          <mxGeometry x="190" y="420" width="200" height="50" as="geometry" />
        </mxCell>
        <mxCell id="w8OnQSHXTQ-QWMvcalfN-546" value="" style="group" vertex="1" connectable="0" parent="w8OnQSHXTQ-QWMvcalfN-545">
          <mxGeometry width="100" height="40" as="geometry" />
        </mxCell>
        <mxCell id="w8OnQSHXTQ-QWMvcalfN-547" value="&lt;font style=&quot;font-size: 26px;&quot;&gt;10&lt;/font&gt;" style="rounded=0;whiteSpace=wrap;html=1;fillColor=#f8cecc;strokeColor=#b85450;" vertex="1" parent="w8OnQSHXTQ-QWMvcalfN-546">
          <mxGeometry width="50" height="40" as="geometry" />
        </mxCell>
        <mxCell id="w8OnQSHXTQ-QWMvcalfN-548" value="" style="rounded=0;whiteSpace=wrap;html=1;fillColor=#a20025;fontColor=#ffffff;strokeColor=#6F0000;" vertex="1" parent="w8OnQSHXTQ-QWMvcalfN-546">
          <mxGeometry x="50" width="25" height="40" as="geometry" />
        </mxCell>
        <mxCell id="w8OnQSHXTQ-QWMvcalfN-549" value="" style="group" vertex="1" connectable="0" parent="w8OnQSHXTQ-QWMvcalfN-545">
          <mxGeometry x="7.142857142857142" y="10" width="100" height="40" as="geometry" />
        </mxCell>
        <mxCell id="w8OnQSHXTQ-QWMvcalfN-550" style="edgeStyle=orthogonalEdgeStyle;rounded=0;orthogonalLoop=1;jettySize=auto;html=1;" edge="1" parent="w8OnQSHXTQ-QWMvcalfN-549" source="w8OnQSHXTQ-QWMvcalfN-551">
          <mxGeometry relative="1" as="geometry">
            <mxPoint x="100" y="20" as="targetPoint" />
          </mxGeometry>
        </mxCell>
        <mxCell id="w8OnQSHXTQ-QWMvcalfN-551" value="" style="rounded=0;whiteSpace=wrap;html=1;fillColor=#a20025;fontColor=#ffffff;strokeColor=#6F0000;" vertex="1" parent="w8OnQSHXTQ-QWMvcalfN-545">
          <mxGeometry x="150" width="25" height="40" as="geometry" />
        </mxCell>
        <mxCell id="w8OnQSHXTQ-QWMvcalfN-552" style="edgeStyle=orthogonalEdgeStyle;rounded=0;orthogonalLoop=1;jettySize=auto;html=1;exitX=0;exitY=0.5;exitDx=0;exitDy=0;entryX=1;entryY=0.5;entryDx=0;entryDy=0;strokeWidth=1;fontSize=12;" edge="1" parent="w8OnQSHXTQ-QWMvcalfN-545" source="w8OnQSHXTQ-QWMvcalfN-553" target="w8OnQSHXTQ-QWMvcalfN-548">
          <mxGeometry relative="1" as="geometry" />
        </mxCell>
        <mxCell id="w8OnQSHXTQ-QWMvcalfN-553" value="&lt;font style=&quot;font-size: 26px;&quot;&gt;20&lt;/font&gt;" style="rounded=0;whiteSpace=wrap;html=1;fillColor=#f8cecc;strokeColor=#b85450;" vertex="1" parent="w8OnQSHXTQ-QWMvcalfN-545">
          <mxGeometry x="100" width="50" height="40" as="geometry" />
        </mxCell>
        <mxCell id="w8OnQSHXTQ-QWMvcalfN-554" style="edgeStyle=orthogonalEdgeStyle;rounded=0;orthogonalLoop=1;jettySize=auto;html=1;exitX=0;exitY=0.5;exitDx=0;exitDy=0;entryX=1;entryY=0.5;entryDx=0;entryDy=0;strokeWidth=1;fontSize=12;" edge="1" source="w8OnQSHXTQ-QWMvcalfN-547" target="w8OnQSHXTQ-QWMvcalfN-543" parent="w8OnQSHXTQ-QWMvcalfN-349">
          <mxGeometry relative="1" as="geometry" />
        </mxCell>
        <mxCell id="w8OnQSHXTQ-QWMvcalfN-591" value="" style="group" vertex="1" connectable="0" parent="w8OnQSHXTQ-QWMvcalfN-349">
          <mxGeometry y="820" width="200" height="105" as="geometry" />
        </mxCell>
        <mxCell id="w8OnQSHXTQ-QWMvcalfN-592" value="" style="group" vertex="1" connectable="0" parent="w8OnQSHXTQ-QWMvcalfN-591">
          <mxGeometry width="100" height="40" as="geometry" />
        </mxCell>
        <mxCell id="w8OnQSHXTQ-QWMvcalfN-593" value="&lt;font style=&quot;font-size: 26px;&quot;&gt;1&lt;/font&gt;" style="rounded=0;whiteSpace=wrap;html=1;fillColor=#f8cecc;strokeColor=#b85450;" vertex="1" parent="w8OnQSHXTQ-QWMvcalfN-592">
          <mxGeometry width="50" height="40" as="geometry" />
        </mxCell>
        <mxCell id="w8OnQSHXTQ-QWMvcalfN-594" style="edgeStyle=orthogonalEdgeStyle;rounded=0;orthogonalLoop=1;jettySize=auto;html=1;" edge="1" parent="w8OnQSHXTQ-QWMvcalfN-592" source="w8OnQSHXTQ-QWMvcalfN-595">
          <mxGeometry relative="1" as="geometry">
            <mxPoint x="100" y="20" as="targetPoint" />
          </mxGeometry>
        </mxCell>
        <mxCell id="w8OnQSHXTQ-QWMvcalfN-595" value="" style="rounded=0;whiteSpace=wrap;html=1;fillColor=#a20025;fontColor=#ffffff;strokeColor=#6F0000;" vertex="1" parent="w8OnQSHXTQ-QWMvcalfN-592">
          <mxGeometry x="50" width="25" height="40" as="geometry" />
        </mxCell>
        <mxCell id="w8OnQSHXTQ-QWMvcalfN-596" value="" style="group" vertex="1" connectable="0" parent="w8OnQSHXTQ-QWMvcalfN-591">
          <mxGeometry x="7.142857142857142" y="10" width="167.85571428571424" height="95" as="geometry" />
        </mxCell>
        <mxCell id="w8OnQSHXTQ-QWMvcalfN-597" style="edgeStyle=orthogonalEdgeStyle;rounded=0;orthogonalLoop=1;jettySize=auto;html=1;" edge="1" parent="w8OnQSHXTQ-QWMvcalfN-596" source="w8OnQSHXTQ-QWMvcalfN-602">
          <mxGeometry relative="1" as="geometry">
            <mxPoint x="100" y="20" as="targetPoint" />
          </mxGeometry>
        </mxCell>
        <mxCell id="w8OnQSHXTQ-QWMvcalfN-598" value="" style="group" vertex="1" connectable="0" parent="w8OnQSHXTQ-QWMvcalfN-596">
          <mxGeometry x="2.8557142857142424" y="30" width="165" height="65" as="geometry" />
        </mxCell>
        <mxCell id="w8OnQSHXTQ-QWMvcalfN-599" value="" style="endArrow=classic;html=1;rounded=0;fontSize=22;strokeWidth=4;" edge="1" parent="w8OnQSHXTQ-QWMvcalfN-598">
          <mxGeometry width="50" height="50" relative="1" as="geometry">
            <mxPoint x="30" y="40" as="sourcePoint" />
            <mxPoint x="30" as="targetPoint" />
            <Array as="points">
              <mxPoint x="30" y="30" />
            </Array>
          </mxGeometry>
        </mxCell>
        <mxCell id="w8OnQSHXTQ-QWMvcalfN-600" value="&lt;font style=&quot;font-size: 13px;&quot;&gt;leftPrev&lt;/font&gt;" style="text;html=1;align=center;verticalAlign=middle;resizable=0;points=[];autosize=1;strokeColor=none;fillColor=none;fontSize=22;" vertex="1" parent="w8OnQSHXTQ-QWMvcalfN-598">
          <mxGeometry y="25" width="70" height="40" as="geometry" />
        </mxCell>
        <mxCell id="w8OnQSHXTQ-QWMvcalfN-602" value="" style="rounded=0;whiteSpace=wrap;html=1;fillColor=#a20025;fontColor=#ffffff;strokeColor=#6F0000;" vertex="1" parent="w8OnQSHXTQ-QWMvcalfN-591">
          <mxGeometry x="150" width="25" height="40" as="geometry" />
        </mxCell>
        <mxCell id="w8OnQSHXTQ-QWMvcalfN-603" value="&lt;font style=&quot;font-size: 26px;&quot;&gt;2&lt;/font&gt;" style="rounded=0;whiteSpace=wrap;html=1;fillColor=#f8cecc;strokeColor=#b85450;" vertex="1" parent="w8OnQSHXTQ-QWMvcalfN-591">
          <mxGeometry x="100" width="50" height="40" as="geometry" />
        </mxCell>
        <mxCell id="w8OnQSHXTQ-QWMvcalfN-604" value="" style="group" vertex="1" connectable="0" parent="w8OnQSHXTQ-QWMvcalfN-349">
          <mxGeometry x="200" y="820" width="200" height="50" as="geometry" />
        </mxCell>
        <mxCell id="w8OnQSHXTQ-QWMvcalfN-605" value="" style="group" vertex="1" connectable="0" parent="w8OnQSHXTQ-QWMvcalfN-604">
          <mxGeometry width="100" height="40" as="geometry" />
        </mxCell>
        <mxCell id="w8OnQSHXTQ-QWMvcalfN-606" value="&lt;font style=&quot;font-size: 26px;&quot;&gt;10&lt;/font&gt;" style="rounded=0;whiteSpace=wrap;html=1;fillColor=#f8cecc;strokeColor=#b85450;" vertex="1" parent="w8OnQSHXTQ-QWMvcalfN-605">
          <mxGeometry width="50" height="40" as="geometry" />
        </mxCell>
        <mxCell id="w8OnQSHXTQ-QWMvcalfN-607" value="" style="rounded=0;whiteSpace=wrap;html=1;fillColor=#a20025;fontColor=#ffffff;strokeColor=#6F0000;" vertex="1" parent="w8OnQSHXTQ-QWMvcalfN-605">
          <mxGeometry x="50" width="25" height="40" as="geometry" />
        </mxCell>
        <mxCell id="w8OnQSHXTQ-QWMvcalfN-608" value="" style="group" vertex="1" connectable="0" parent="w8OnQSHXTQ-QWMvcalfN-604">
          <mxGeometry x="7.142857142857142" y="10" width="100" height="40" as="geometry" />
        </mxCell>
        <mxCell id="w8OnQSHXTQ-QWMvcalfN-609" style="edgeStyle=orthogonalEdgeStyle;rounded=0;orthogonalLoop=1;jettySize=auto;html=1;" edge="1" parent="w8OnQSHXTQ-QWMvcalfN-608" source="w8OnQSHXTQ-QWMvcalfN-610">
          <mxGeometry relative="1" as="geometry">
            <mxPoint x="100" y="20" as="targetPoint" />
          </mxGeometry>
        </mxCell>
        <mxCell id="w8OnQSHXTQ-QWMvcalfN-610" value="" style="rounded=0;whiteSpace=wrap;html=1;fillColor=#a20025;fontColor=#ffffff;strokeColor=#6F0000;" vertex="1" parent="w8OnQSHXTQ-QWMvcalfN-604">
          <mxGeometry x="150" width="25" height="40" as="geometry" />
        </mxCell>
        <mxCell id="w8OnQSHXTQ-QWMvcalfN-611" style="edgeStyle=orthogonalEdgeStyle;rounded=0;orthogonalLoop=1;jettySize=auto;html=1;exitX=0;exitY=0.5;exitDx=0;exitDy=0;entryX=1;entryY=0.5;entryDx=0;entryDy=0;strokeWidth=1;fontSize=12;" edge="1" parent="w8OnQSHXTQ-QWMvcalfN-604" source="w8OnQSHXTQ-QWMvcalfN-612" target="w8OnQSHXTQ-QWMvcalfN-607">
          <mxGeometry relative="1" as="geometry" />
        </mxCell>
        <mxCell id="w8OnQSHXTQ-QWMvcalfN-612" value="&lt;font style=&quot;font-size: 26px;&quot;&gt;20&lt;/font&gt;" style="rounded=0;whiteSpace=wrap;html=1;fillColor=#f8cecc;strokeColor=#b85450;" vertex="1" parent="w8OnQSHXTQ-QWMvcalfN-604">
          <mxGeometry x="100" width="50" height="40" as="geometry" />
        </mxCell>
        <mxCell id="w8OnQSHXTQ-QWMvcalfN-613" style="edgeStyle=orthogonalEdgeStyle;rounded=0;orthogonalLoop=1;jettySize=auto;html=1;exitX=0;exitY=0.5;exitDx=0;exitDy=0;entryX=1;entryY=0.5;entryDx=0;entryDy=0;strokeWidth=1;fontSize=12;" edge="1" source="w8OnQSHXTQ-QWMvcalfN-606" target="w8OnQSHXTQ-QWMvcalfN-602" parent="w8OnQSHXTQ-QWMvcalfN-349">
          <mxGeometry relative="1" as="geometry" />
        </mxCell>
        <mxCell id="w8OnQSHXTQ-QWMvcalfN-378" value="" style="group" vertex="1" connectable="0" parent="w8OnQSHXTQ-QWMvcalfN-25">
          <mxGeometry x="18.571428571428584" y="960" width="200" height="50" as="geometry" />
        </mxCell>
        <mxCell id="w8OnQSHXTQ-QWMvcalfN-379" value="" style="group" vertex="1" connectable="0" parent="w8OnQSHXTQ-QWMvcalfN-378">
          <mxGeometry width="100" height="40" as="geometry" />
        </mxCell>
        <mxCell id="w8OnQSHXTQ-QWMvcalfN-380" value="&lt;font style=&quot;font-size: 26px;&quot;&gt;30&lt;/font&gt;" style="rounded=0;whiteSpace=wrap;html=1;fillColor=#f8cecc;strokeColor=#b85450;" vertex="1" parent="w8OnQSHXTQ-QWMvcalfN-379">
          <mxGeometry width="50" height="40" as="geometry" />
        </mxCell>
        <mxCell id="w8OnQSHXTQ-QWMvcalfN-381" style="edgeStyle=orthogonalEdgeStyle;rounded=0;orthogonalLoop=1;jettySize=auto;html=1;" edge="1" parent="w8OnQSHXTQ-QWMvcalfN-379" source="w8OnQSHXTQ-QWMvcalfN-382">
          <mxGeometry relative="1" as="geometry">
            <mxPoint x="100" y="20" as="targetPoint" />
          </mxGeometry>
        </mxCell>
        <mxCell id="w8OnQSHXTQ-QWMvcalfN-382" value="" style="rounded=0;whiteSpace=wrap;html=1;fillColor=#a20025;fontColor=#ffffff;strokeColor=#6F0000;" vertex="1" parent="w8OnQSHXTQ-QWMvcalfN-379">
          <mxGeometry x="50" width="25" height="40" as="geometry" />
        </mxCell>
        <mxCell id="w8OnQSHXTQ-QWMvcalfN-383" value="" style="group" vertex="1" connectable="0" parent="w8OnQSHXTQ-QWMvcalfN-378">
          <mxGeometry x="7.142857142857142" y="10" width="100" height="40" as="geometry" />
        </mxCell>
        <mxCell id="w8OnQSHXTQ-QWMvcalfN-384" style="edgeStyle=orthogonalEdgeStyle;rounded=0;orthogonalLoop=1;jettySize=auto;html=1;" edge="1" parent="w8OnQSHXTQ-QWMvcalfN-383" source="w8OnQSHXTQ-QWMvcalfN-386">
          <mxGeometry relative="1" as="geometry">
            <mxPoint x="100" y="20" as="targetPoint" />
          </mxGeometry>
        </mxCell>
        <mxCell id="w8OnQSHXTQ-QWMvcalfN-385" style="edgeStyle=orthogonalEdgeStyle;rounded=0;orthogonalLoop=1;jettySize=auto;html=1;" edge="1" parent="w8OnQSHXTQ-QWMvcalfN-378" source="w8OnQSHXTQ-QWMvcalfN-386">
          <mxGeometry relative="1" as="geometry">
            <mxPoint x="200" y="20" as="targetPoint" />
          </mxGeometry>
        </mxCell>
        <mxCell id="w8OnQSHXTQ-QWMvcalfN-386" value="" style="rounded=0;whiteSpace=wrap;html=1;fillColor=#a20025;fontColor=#ffffff;strokeColor=#6F0000;" vertex="1" parent="w8OnQSHXTQ-QWMvcalfN-378">
          <mxGeometry x="150" width="25" height="40" as="geometry" />
        </mxCell>
        <mxCell id="w8OnQSHXTQ-QWMvcalfN-387" value="&lt;font style=&quot;font-size: 26px;&quot;&gt;40&lt;/font&gt;" style="rounded=0;whiteSpace=wrap;html=1;fillColor=#f8cecc;strokeColor=#b85450;" vertex="1" parent="w8OnQSHXTQ-QWMvcalfN-378">
          <mxGeometry x="100" width="50" height="40" as="geometry" />
        </mxCell>
        <mxCell id="w8OnQSHXTQ-QWMvcalfN-388" value="" style="group" vertex="1" connectable="0" parent="w8OnQSHXTQ-QWMvcalfN-25">
          <mxGeometry x="218.57142857142858" y="960" width="100" height="40" as="geometry" />
        </mxCell>
        <mxCell id="w8OnQSHXTQ-QWMvcalfN-389" value="&lt;font style=&quot;font-size: 26px;&quot;&gt;5&lt;/font&gt;" style="rounded=0;whiteSpace=wrap;html=1;fillColor=#f8cecc;strokeColor=#b85450;" vertex="1" parent="w8OnQSHXTQ-QWMvcalfN-388">
          <mxGeometry width="50" height="40" as="geometry" />
        </mxCell>
        <mxCell id="w8OnQSHXTQ-QWMvcalfN-390" style="edgeStyle=orthogonalEdgeStyle;rounded=0;orthogonalLoop=1;jettySize=auto;html=1;" edge="1" parent="w8OnQSHXTQ-QWMvcalfN-388" source="w8OnQSHXTQ-QWMvcalfN-391">
          <mxGeometry relative="1" as="geometry">
            <mxPoint x="100" y="20" as="targetPoint" />
          </mxGeometry>
        </mxCell>
        <mxCell id="w8OnQSHXTQ-QWMvcalfN-391" value="" style="rounded=0;whiteSpace=wrap;html=1;fillColor=#a20025;fontColor=#ffffff;strokeColor=#6F0000;" vertex="1" parent="w8OnQSHXTQ-QWMvcalfN-388">
          <mxGeometry x="50" width="25" height="40" as="geometry" />
        </mxCell>
        <mxCell id="w8OnQSHXTQ-QWMvcalfN-392" value="" style="group" vertex="1" connectable="0" parent="w8OnQSHXTQ-QWMvcalfN-25">
          <mxGeometry x="225.7142857142857" y="970" width="100" height="40" as="geometry" />
        </mxCell>
        <mxCell id="w8OnQSHXTQ-QWMvcalfN-393" style="edgeStyle=orthogonalEdgeStyle;rounded=0;orthogonalLoop=1;jettySize=auto;html=1;" edge="1" parent="w8OnQSHXTQ-QWMvcalfN-392" source="w8OnQSHXTQ-QWMvcalfN-394">
          <mxGeometry relative="1" as="geometry">
            <mxPoint x="100" y="20" as="targetPoint" />
          </mxGeometry>
        </mxCell>
        <mxCell id="w8OnQSHXTQ-QWMvcalfN-394" value="" style="rounded=0;whiteSpace=wrap;html=1;fillColor=#a20025;fontColor=#ffffff;strokeColor=#6F0000;" vertex="1" parent="w8OnQSHXTQ-QWMvcalfN-25">
          <mxGeometry x="368.57142857142856" y="960" width="25" height="40" as="geometry" />
        </mxCell>
        <mxCell id="w8OnQSHXTQ-QWMvcalfN-395" value="&lt;font style=&quot;font-size: 27px;&quot;&gt;7&lt;/font&gt;" style="rounded=0;whiteSpace=wrap;html=1;fillColor=#f8cecc;strokeColor=#b85450;" vertex="1" parent="w8OnQSHXTQ-QWMvcalfN-25">
          <mxGeometry x="318.57142857142856" y="960" width="50" height="40" as="geometry" />
        </mxCell>
        <mxCell id="w8OnQSHXTQ-QWMvcalfN-441" value="" style="group" vertex="1" connectable="0" parent="w8OnQSHXTQ-QWMvcalfN-25">
          <mxGeometry x="18.571428571428584" y="1090" width="200" height="50" as="geometry" />
        </mxCell>
        <mxCell id="w8OnQSHXTQ-QWMvcalfN-442" value="" style="group" vertex="1" connectable="0" parent="w8OnQSHXTQ-QWMvcalfN-441">
          <mxGeometry width="100" height="40" as="geometry" />
        </mxCell>
        <mxCell id="w8OnQSHXTQ-QWMvcalfN-443" value="&lt;font style=&quot;font-size: 26px;&quot;&gt;30&lt;/font&gt;" style="rounded=0;whiteSpace=wrap;html=1;fillColor=#f8cecc;strokeColor=#b85450;" vertex="1" parent="w8OnQSHXTQ-QWMvcalfN-442">
          <mxGeometry width="50" height="40" as="geometry" />
        </mxCell>
        <mxCell id="w8OnQSHXTQ-QWMvcalfN-444" style="edgeStyle=orthogonalEdgeStyle;rounded=0;orthogonalLoop=1;jettySize=auto;html=1;" edge="1" parent="w8OnQSHXTQ-QWMvcalfN-442" source="w8OnQSHXTQ-QWMvcalfN-445">
          <mxGeometry relative="1" as="geometry">
            <mxPoint x="100" y="20" as="targetPoint" />
          </mxGeometry>
        </mxCell>
        <mxCell id="w8OnQSHXTQ-QWMvcalfN-445" value="" style="rounded=0;whiteSpace=wrap;html=1;fillColor=#a20025;fontColor=#ffffff;strokeColor=#6F0000;" vertex="1" parent="w8OnQSHXTQ-QWMvcalfN-442">
          <mxGeometry x="50" width="25" height="40" as="geometry" />
        </mxCell>
        <mxCell id="w8OnQSHXTQ-QWMvcalfN-446" value="" style="group" vertex="1" connectable="0" parent="w8OnQSHXTQ-QWMvcalfN-441">
          <mxGeometry x="7.142857142857142" y="10" width="100" height="40" as="geometry" />
        </mxCell>
        <mxCell id="w8OnQSHXTQ-QWMvcalfN-447" style="edgeStyle=orthogonalEdgeStyle;rounded=0;orthogonalLoop=1;jettySize=auto;html=1;" edge="1" parent="w8OnQSHXTQ-QWMvcalfN-446" source="w8OnQSHXTQ-QWMvcalfN-449">
          <mxGeometry relative="1" as="geometry">
            <mxPoint x="100" y="20" as="targetPoint" />
          </mxGeometry>
        </mxCell>
        <mxCell id="w8OnQSHXTQ-QWMvcalfN-448" style="edgeStyle=orthogonalEdgeStyle;rounded=0;orthogonalLoop=1;jettySize=auto;html=1;" edge="1" parent="w8OnQSHXTQ-QWMvcalfN-441" source="w8OnQSHXTQ-QWMvcalfN-449">
          <mxGeometry relative="1" as="geometry">
            <mxPoint x="200" y="20" as="targetPoint" />
          </mxGeometry>
        </mxCell>
        <mxCell id="w8OnQSHXTQ-QWMvcalfN-449" value="" style="rounded=0;whiteSpace=wrap;html=1;fillColor=#a20025;fontColor=#ffffff;strokeColor=#6F0000;" vertex="1" parent="w8OnQSHXTQ-QWMvcalfN-441">
          <mxGeometry x="150" width="25" height="40" as="geometry" />
        </mxCell>
        <mxCell id="w8OnQSHXTQ-QWMvcalfN-450" value="&lt;font style=&quot;font-size: 26px;&quot;&gt;40&lt;/font&gt;" style="rounded=0;whiteSpace=wrap;html=1;fillColor=#f8cecc;strokeColor=#b85450;" vertex="1" parent="w8OnQSHXTQ-QWMvcalfN-441">
          <mxGeometry x="100" width="50" height="40" as="geometry" />
        </mxCell>
        <mxCell id="w8OnQSHXTQ-QWMvcalfN-451" value="" style="group" vertex="1" connectable="0" parent="w8OnQSHXTQ-QWMvcalfN-25">
          <mxGeometry x="218.57142857142858" y="1090" width="100" height="40" as="geometry" />
        </mxCell>
        <mxCell id="w8OnQSHXTQ-QWMvcalfN-452" value="&lt;font style=&quot;font-size: 26px;&quot;&gt;5&lt;/font&gt;" style="rounded=0;whiteSpace=wrap;html=1;fillColor=#f8cecc;strokeColor=#b85450;" vertex="1" parent="w8OnQSHXTQ-QWMvcalfN-451">
          <mxGeometry width="50" height="40" as="geometry" />
        </mxCell>
        <mxCell id="w8OnQSHXTQ-QWMvcalfN-453" style="edgeStyle=orthogonalEdgeStyle;rounded=0;orthogonalLoop=1;jettySize=auto;html=1;" edge="1" parent="w8OnQSHXTQ-QWMvcalfN-451" source="w8OnQSHXTQ-QWMvcalfN-454">
          <mxGeometry relative="1" as="geometry">
            <mxPoint x="100" y="20" as="targetPoint" />
          </mxGeometry>
        </mxCell>
        <mxCell id="w8OnQSHXTQ-QWMvcalfN-454" value="" style="rounded=0;whiteSpace=wrap;html=1;fillColor=#a20025;fontColor=#ffffff;strokeColor=#6F0000;" vertex="1" parent="w8OnQSHXTQ-QWMvcalfN-451">
          <mxGeometry x="50" width="25" height="40" as="geometry" />
        </mxCell>
        <mxCell id="w8OnQSHXTQ-QWMvcalfN-455" value="" style="group" vertex="1" connectable="0" parent="w8OnQSHXTQ-QWMvcalfN-25">
          <mxGeometry x="225.7142857142857" y="1100" width="100" height="40" as="geometry" />
        </mxCell>
        <mxCell id="w8OnQSHXTQ-QWMvcalfN-456" style="edgeStyle=orthogonalEdgeStyle;rounded=0;orthogonalLoop=1;jettySize=auto;html=1;" edge="1" parent="w8OnQSHXTQ-QWMvcalfN-455" source="w8OnQSHXTQ-QWMvcalfN-457">
          <mxGeometry relative="1" as="geometry">
            <mxPoint x="100" y="20" as="targetPoint" />
          </mxGeometry>
        </mxCell>
        <mxCell id="w8OnQSHXTQ-QWMvcalfN-457" value="" style="rounded=0;whiteSpace=wrap;html=1;fillColor=#a20025;fontColor=#ffffff;strokeColor=#6F0000;" vertex="1" parent="w8OnQSHXTQ-QWMvcalfN-25">
          <mxGeometry x="368.57142857142856" y="1090" width="25" height="40" as="geometry" />
        </mxCell>
        <mxCell id="w8OnQSHXTQ-QWMvcalfN-458" value="&lt;font style=&quot;font-size: 27px;&quot;&gt;7&lt;/font&gt;" style="rounded=0;whiteSpace=wrap;html=1;fillColor=#f8cecc;strokeColor=#b85450;" vertex="1" parent="w8OnQSHXTQ-QWMvcalfN-25">
          <mxGeometry x="318.57142857142856" y="1090" width="50" height="40" as="geometry" />
        </mxCell>
        <mxCell id="w8OnQSHXTQ-QWMvcalfN-500" value="" style="group" vertex="1" connectable="0" parent="w8OnQSHXTQ-QWMvcalfN-25">
          <mxGeometry x="18.571428571428584" y="1240" width="200" height="50" as="geometry" />
        </mxCell>
        <mxCell id="w8OnQSHXTQ-QWMvcalfN-501" value="" style="group" vertex="1" connectable="0" parent="w8OnQSHXTQ-QWMvcalfN-500">
          <mxGeometry width="100" height="40" as="geometry" />
        </mxCell>
        <mxCell id="w8OnQSHXTQ-QWMvcalfN-502" value="&lt;font style=&quot;font-size: 26px;&quot;&gt;30&lt;/font&gt;" style="rounded=0;whiteSpace=wrap;html=1;fillColor=#f8cecc;strokeColor=#b85450;" vertex="1" parent="w8OnQSHXTQ-QWMvcalfN-501">
          <mxGeometry width="50" height="40" as="geometry" />
        </mxCell>
        <mxCell id="w8OnQSHXTQ-QWMvcalfN-504" value="" style="rounded=0;whiteSpace=wrap;html=1;fillColor=#a20025;fontColor=#ffffff;strokeColor=#6F0000;" vertex="1" parent="w8OnQSHXTQ-QWMvcalfN-501">
          <mxGeometry x="50" width="25" height="40" as="geometry" />
        </mxCell>
        <mxCell id="w8OnQSHXTQ-QWMvcalfN-505" value="" style="group" vertex="1" connectable="0" parent="w8OnQSHXTQ-QWMvcalfN-500">
          <mxGeometry x="7.142857142857142" y="10" width="100" height="40" as="geometry" />
        </mxCell>
        <mxCell id="w8OnQSHXTQ-QWMvcalfN-506" style="edgeStyle=orthogonalEdgeStyle;rounded=0;orthogonalLoop=1;jettySize=auto;html=1;" edge="1" parent="w8OnQSHXTQ-QWMvcalfN-505" source="w8OnQSHXTQ-QWMvcalfN-508">
          <mxGeometry relative="1" as="geometry">
            <mxPoint x="100" y="20" as="targetPoint" />
          </mxGeometry>
        </mxCell>
        <mxCell id="w8OnQSHXTQ-QWMvcalfN-507" style="edgeStyle=orthogonalEdgeStyle;rounded=0;orthogonalLoop=1;jettySize=auto;html=1;" edge="1" parent="w8OnQSHXTQ-QWMvcalfN-500" source="w8OnQSHXTQ-QWMvcalfN-508">
          <mxGeometry relative="1" as="geometry">
            <mxPoint x="200" y="20" as="targetPoint" />
          </mxGeometry>
        </mxCell>
        <mxCell id="w8OnQSHXTQ-QWMvcalfN-508" value="" style="rounded=0;whiteSpace=wrap;html=1;fillColor=#a20025;fontColor=#ffffff;strokeColor=#6F0000;" vertex="1" parent="w8OnQSHXTQ-QWMvcalfN-500">
          <mxGeometry x="150" width="25" height="40" as="geometry" />
        </mxCell>
        <mxCell id="w8OnQSHXTQ-QWMvcalfN-509" value="&lt;font style=&quot;font-size: 26px;&quot;&gt;40&lt;/font&gt;" style="rounded=0;whiteSpace=wrap;html=1;fillColor=#f8cecc;strokeColor=#b85450;" vertex="1" parent="w8OnQSHXTQ-QWMvcalfN-500">
          <mxGeometry x="100" width="50" height="40" as="geometry" />
        </mxCell>
        <mxCell id="w8OnQSHXTQ-QWMvcalfN-510" value="" style="group" vertex="1" connectable="0" parent="w8OnQSHXTQ-QWMvcalfN-25">
          <mxGeometry x="218.57142857142858" y="1240" width="100" height="40" as="geometry" />
        </mxCell>
        <mxCell id="w8OnQSHXTQ-QWMvcalfN-511" value="&lt;font style=&quot;font-size: 26px;&quot;&gt;5&lt;/font&gt;" style="rounded=0;whiteSpace=wrap;html=1;fillColor=#f8cecc;strokeColor=#b85450;" vertex="1" parent="w8OnQSHXTQ-QWMvcalfN-510">
          <mxGeometry width="50" height="40" as="geometry" />
        </mxCell>
        <mxCell id="w8OnQSHXTQ-QWMvcalfN-512" style="edgeStyle=orthogonalEdgeStyle;rounded=0;orthogonalLoop=1;jettySize=auto;html=1;" edge="1" parent="w8OnQSHXTQ-QWMvcalfN-510" source="w8OnQSHXTQ-QWMvcalfN-513">
          <mxGeometry relative="1" as="geometry">
            <mxPoint x="100" y="20" as="targetPoint" />
          </mxGeometry>
        </mxCell>
        <mxCell id="w8OnQSHXTQ-QWMvcalfN-513" value="" style="rounded=0;whiteSpace=wrap;html=1;fillColor=#a20025;fontColor=#ffffff;strokeColor=#6F0000;" vertex="1" parent="w8OnQSHXTQ-QWMvcalfN-510">
          <mxGeometry x="50" width="25" height="40" as="geometry" />
        </mxCell>
        <mxCell id="w8OnQSHXTQ-QWMvcalfN-514" value="" style="group" vertex="1" connectable="0" parent="w8OnQSHXTQ-QWMvcalfN-25">
          <mxGeometry x="225.7142857142857" y="1250" width="100" height="40" as="geometry" />
        </mxCell>
        <mxCell id="w8OnQSHXTQ-QWMvcalfN-515" style="edgeStyle=orthogonalEdgeStyle;rounded=0;orthogonalLoop=1;jettySize=auto;html=1;" edge="1" parent="w8OnQSHXTQ-QWMvcalfN-514" source="w8OnQSHXTQ-QWMvcalfN-516">
          <mxGeometry relative="1" as="geometry">
            <mxPoint x="100" y="20" as="targetPoint" />
          </mxGeometry>
        </mxCell>
        <mxCell id="w8OnQSHXTQ-QWMvcalfN-588" style="edgeStyle=orthogonalEdgeStyle;rounded=0;orthogonalLoop=1;jettySize=auto;html=1;exitX=1;exitY=0.5;exitDx=0;exitDy=0;strokeWidth=1;fontSize=28;" edge="1" parent="w8OnQSHXTQ-QWMvcalfN-25" source="w8OnQSHXTQ-QWMvcalfN-516">
          <mxGeometry relative="1" as="geometry">
            <mxPoint x="450" y="1260" as="targetPoint" />
          </mxGeometry>
        </mxCell>
        <mxCell id="w8OnQSHXTQ-QWMvcalfN-516" value="" style="rounded=0;whiteSpace=wrap;html=1;fillColor=#a20025;fontColor=#ffffff;strokeColor=#6F0000;" vertex="1" parent="w8OnQSHXTQ-QWMvcalfN-25">
          <mxGeometry x="368.57142857142856" y="1240" width="25" height="40" as="geometry" />
        </mxCell>
        <mxCell id="w8OnQSHXTQ-QWMvcalfN-517" value="&lt;font style=&quot;font-size: 27px;&quot;&gt;7&lt;/font&gt;" style="rounded=0;whiteSpace=wrap;html=1;fillColor=#f8cecc;strokeColor=#b85450;" vertex="1" parent="w8OnQSHXTQ-QWMvcalfN-25">
          <mxGeometry x="318.57142857142856" y="1240" width="50" height="40" as="geometry" />
        </mxCell>
        <mxCell id="w8OnQSHXTQ-QWMvcalfN-468" value="tmp" style="text;html=1;align=center;verticalAlign=middle;resizable=0;points=[];autosize=1;strokeColor=none;fillColor=none;fontSize=12;" vertex="1" parent="w8OnQSHXTQ-QWMvcalfN-25">
          <mxGeometry x="28.57000000000005" y="1165" width="40" height="30" as="geometry" />
        </mxCell>
        <mxCell id="w8OnQSHXTQ-QWMvcalfN-438" value="" style="endArrow=classic;html=1;rounded=0;strokeWidth=4;fontSize=12;" edge="1" parent="w8OnQSHXTQ-QWMvcalfN-25">
          <mxGeometry width="50" height="50" relative="1" as="geometry">
            <mxPoint x="68.57000000000005" y="1190" as="sourcePoint" />
            <mxPoint x="68.57000000000005" y="1130" as="targetPoint" />
          </mxGeometry>
        </mxCell>
        <mxCell id="w8OnQSHXTQ-QWMvcalfN-469" value="curr" style="text;html=1;align=center;verticalAlign=middle;resizable=0;points=[];autosize=1;strokeColor=none;fillColor=none;fontSize=12;" vertex="1" parent="w8OnQSHXTQ-QWMvcalfN-25">
          <mxGeometry x="70" y="1180" width="40" height="30" as="geometry" />
        </mxCell>
        <mxCell id="w8OnQSHXTQ-QWMvcalfN-530" style="edgeStyle=orthogonalEdgeStyle;rounded=0;orthogonalLoop=1;jettySize=auto;html=1;entryX=1;entryY=0.5;entryDx=0;entryDy=0;strokeWidth=1;fontSize=12;" edge="1" parent="w8OnQSHXTQ-QWMvcalfN-25" source="w8OnQSHXTQ-QWMvcalfN-502" target="w8OnQSHXTQ-QWMvcalfN-495">
          <mxGeometry relative="1" as="geometry" />
        </mxCell>
        <mxCell id="w8OnQSHXTQ-QWMvcalfN-555" value="" style="group" vertex="1" connectable="0" parent="w8OnQSHXTQ-QWMvcalfN-25">
          <mxGeometry x="18.571428571428584" y="1380" width="200" height="50" as="geometry" />
        </mxCell>
        <mxCell id="w8OnQSHXTQ-QWMvcalfN-556" value="" style="group" vertex="1" connectable="0" parent="w8OnQSHXTQ-QWMvcalfN-555">
          <mxGeometry width="100" height="40" as="geometry" />
        </mxCell>
        <mxCell id="w8OnQSHXTQ-QWMvcalfN-557" value="&lt;font style=&quot;font-size: 26px;&quot;&gt;30&lt;/font&gt;" style="rounded=0;whiteSpace=wrap;html=1;fillColor=#f8cecc;strokeColor=#b85450;" vertex="1" parent="w8OnQSHXTQ-QWMvcalfN-556">
          <mxGeometry width="50" height="40" as="geometry" />
        </mxCell>
        <mxCell id="w8OnQSHXTQ-QWMvcalfN-558" value="" style="rounded=0;whiteSpace=wrap;html=1;fillColor=#a20025;fontColor=#ffffff;strokeColor=#6F0000;" vertex="1" parent="w8OnQSHXTQ-QWMvcalfN-556">
          <mxGeometry x="50" width="25" height="40" as="geometry" />
        </mxCell>
        <mxCell id="w8OnQSHXTQ-QWMvcalfN-559" value="" style="group" vertex="1" connectable="0" parent="w8OnQSHXTQ-QWMvcalfN-555">
          <mxGeometry x="7.142857142857142" y="10" width="100" height="40" as="geometry" />
        </mxCell>
        <mxCell id="w8OnQSHXTQ-QWMvcalfN-560" style="edgeStyle=orthogonalEdgeStyle;rounded=0;orthogonalLoop=1;jettySize=auto;html=1;" edge="1" parent="w8OnQSHXTQ-QWMvcalfN-559" source="w8OnQSHXTQ-QWMvcalfN-562">
          <mxGeometry relative="1" as="geometry">
            <mxPoint x="100" y="20" as="targetPoint" />
          </mxGeometry>
        </mxCell>
        <mxCell id="w8OnQSHXTQ-QWMvcalfN-562" value="" style="rounded=0;whiteSpace=wrap;html=1;fillColor=#a20025;fontColor=#ffffff;strokeColor=#6F0000;" vertex="1" parent="w8OnQSHXTQ-QWMvcalfN-555">
          <mxGeometry x="150" width="25" height="40" as="geometry" />
        </mxCell>
        <mxCell id="w8OnQSHXTQ-QWMvcalfN-586" style="edgeStyle=orthogonalEdgeStyle;rounded=0;orthogonalLoop=1;jettySize=auto;html=1;exitX=0;exitY=0.5;exitDx=0;exitDy=0;entryX=1;entryY=0.5;entryDx=0;entryDy=0;strokeWidth=1;fontSize=12;" edge="1" parent="w8OnQSHXTQ-QWMvcalfN-555" source="w8OnQSHXTQ-QWMvcalfN-563" target="w8OnQSHXTQ-QWMvcalfN-558">
          <mxGeometry relative="1" as="geometry" />
        </mxCell>
        <mxCell id="w8OnQSHXTQ-QWMvcalfN-563" value="&lt;font style=&quot;font-size: 26px;&quot;&gt;40&lt;/font&gt;" style="rounded=0;whiteSpace=wrap;html=1;fillColor=#f8cecc;strokeColor=#b85450;" vertex="1" parent="w8OnQSHXTQ-QWMvcalfN-555">
          <mxGeometry x="100" width="50" height="40" as="geometry" />
        </mxCell>
        <mxCell id="w8OnQSHXTQ-QWMvcalfN-564" value="" style="group" vertex="1" connectable="0" parent="w8OnQSHXTQ-QWMvcalfN-25">
          <mxGeometry x="218.57142857142856" y="1380" width="100" height="40" as="geometry" />
        </mxCell>
        <mxCell id="w8OnQSHXTQ-QWMvcalfN-565" value="&lt;font style=&quot;font-size: 26px;&quot;&gt;5&lt;/font&gt;" style="rounded=0;whiteSpace=wrap;html=1;fillColor=#f8cecc;strokeColor=#b85450;" vertex="1" parent="w8OnQSHXTQ-QWMvcalfN-564">
          <mxGeometry width="50" height="40" as="geometry" />
        </mxCell>
        <mxCell id="w8OnQSHXTQ-QWMvcalfN-566" style="edgeStyle=orthogonalEdgeStyle;rounded=0;orthogonalLoop=1;jettySize=auto;html=1;" edge="1" parent="w8OnQSHXTQ-QWMvcalfN-564" source="w8OnQSHXTQ-QWMvcalfN-567">
          <mxGeometry relative="1" as="geometry">
            <mxPoint x="100" y="20" as="targetPoint" />
          </mxGeometry>
        </mxCell>
        <mxCell id="w8OnQSHXTQ-QWMvcalfN-567" value="" style="rounded=0;whiteSpace=wrap;html=1;fillColor=#a20025;fontColor=#ffffff;strokeColor=#6F0000;" vertex="1" parent="w8OnQSHXTQ-QWMvcalfN-564">
          <mxGeometry x="50" width="25" height="40" as="geometry" />
        </mxCell>
        <mxCell id="w8OnQSHXTQ-QWMvcalfN-568" value="" style="group" vertex="1" connectable="0" parent="w8OnQSHXTQ-QWMvcalfN-25">
          <mxGeometry x="225.71428571428567" y="1390" width="100" height="40" as="geometry" />
        </mxCell>
        <mxCell id="w8OnQSHXTQ-QWMvcalfN-569" style="edgeStyle=orthogonalEdgeStyle;rounded=0;orthogonalLoop=1;jettySize=auto;html=1;" edge="1" parent="w8OnQSHXTQ-QWMvcalfN-568" source="w8OnQSHXTQ-QWMvcalfN-570">
          <mxGeometry relative="1" as="geometry">
            <mxPoint x="100" y="20" as="targetPoint" />
          </mxGeometry>
        </mxCell>
        <mxCell id="w8OnQSHXTQ-QWMvcalfN-589" style="edgeStyle=orthogonalEdgeStyle;rounded=0;orthogonalLoop=1;jettySize=auto;html=1;exitX=1;exitY=0.5;exitDx=0;exitDy=0;strokeWidth=1;fontSize=28;" edge="1" parent="w8OnQSHXTQ-QWMvcalfN-25" source="w8OnQSHXTQ-QWMvcalfN-570">
          <mxGeometry relative="1" as="geometry">
            <mxPoint x="420" y="1400" as="targetPoint" />
          </mxGeometry>
        </mxCell>
        <mxCell id="w8OnQSHXTQ-QWMvcalfN-570" value="" style="rounded=0;whiteSpace=wrap;html=1;fillColor=#a20025;fontColor=#ffffff;strokeColor=#6F0000;" vertex="1" parent="w8OnQSHXTQ-QWMvcalfN-25">
          <mxGeometry x="368.57142857142856" y="1380" width="25" height="40" as="geometry" />
        </mxCell>
        <mxCell id="w8OnQSHXTQ-QWMvcalfN-571" value="&lt;font style=&quot;font-size: 27px;&quot;&gt;7&lt;/font&gt;" style="rounded=0;whiteSpace=wrap;html=1;fillColor=#f8cecc;strokeColor=#b85450;" vertex="1" parent="w8OnQSHXTQ-QWMvcalfN-25">
          <mxGeometry x="318.57142857142856" y="1380" width="50" height="40" as="geometry" />
        </mxCell>
        <mxCell id="w8OnQSHXTQ-QWMvcalfN-572" style="edgeStyle=orthogonalEdgeStyle;rounded=0;orthogonalLoop=1;jettySize=auto;html=1;entryX=1;entryY=0.5;entryDx=0;entryDy=0;strokeWidth=1;fontSize=12;" edge="1" source="w8OnQSHXTQ-QWMvcalfN-557" target="w8OnQSHXTQ-QWMvcalfN-551" parent="w8OnQSHXTQ-QWMvcalfN-25">
          <mxGeometry relative="1" as="geometry" />
        </mxCell>
        <mxCell id="w8OnQSHXTQ-QWMvcalfN-614" value="" style="group" vertex="1" connectable="0" parent="w8OnQSHXTQ-QWMvcalfN-25">
          <mxGeometry x="28.571428571428584" y="1780" width="200" height="50" as="geometry" />
        </mxCell>
        <mxCell id="w8OnQSHXTQ-QWMvcalfN-615" value="" style="group" vertex="1" connectable="0" parent="w8OnQSHXTQ-QWMvcalfN-614">
          <mxGeometry width="100" height="40" as="geometry" />
        </mxCell>
        <mxCell id="w8OnQSHXTQ-QWMvcalfN-616" value="&lt;font style=&quot;font-size: 26px;&quot;&gt;30&lt;/font&gt;" style="rounded=0;whiteSpace=wrap;html=1;fillColor=#f8cecc;strokeColor=#b85450;" vertex="1" parent="w8OnQSHXTQ-QWMvcalfN-615">
          <mxGeometry width="50" height="40" as="geometry" />
        </mxCell>
        <mxCell id="w8OnQSHXTQ-QWMvcalfN-617" value="" style="rounded=0;whiteSpace=wrap;html=1;fillColor=#a20025;fontColor=#ffffff;strokeColor=#6F0000;" vertex="1" parent="w8OnQSHXTQ-QWMvcalfN-615">
          <mxGeometry x="50" width="25" height="40" as="geometry" />
        </mxCell>
        <mxCell id="w8OnQSHXTQ-QWMvcalfN-618" value="" style="group" vertex="1" connectable="0" parent="w8OnQSHXTQ-QWMvcalfN-614">
          <mxGeometry x="7.142857142857142" y="10" width="100" height="40" as="geometry" />
        </mxCell>
        <mxCell id="w8OnQSHXTQ-QWMvcalfN-619" style="edgeStyle=orthogonalEdgeStyle;rounded=0;orthogonalLoop=1;jettySize=auto;html=1;" edge="1" parent="w8OnQSHXTQ-QWMvcalfN-618" source="w8OnQSHXTQ-QWMvcalfN-620">
          <mxGeometry relative="1" as="geometry">
            <mxPoint x="100" y="20" as="targetPoint" />
          </mxGeometry>
        </mxCell>
        <mxCell id="w8OnQSHXTQ-QWMvcalfN-620" value="" style="rounded=0;whiteSpace=wrap;html=1;fillColor=#a20025;fontColor=#ffffff;strokeColor=#6F0000;" vertex="1" parent="w8OnQSHXTQ-QWMvcalfN-614">
          <mxGeometry x="150" width="25" height="40" as="geometry" />
        </mxCell>
        <mxCell id="w8OnQSHXTQ-QWMvcalfN-621" style="edgeStyle=orthogonalEdgeStyle;rounded=0;orthogonalLoop=1;jettySize=auto;html=1;exitX=0;exitY=0.5;exitDx=0;exitDy=0;entryX=1;entryY=0.5;entryDx=0;entryDy=0;strokeWidth=1;fontSize=12;" edge="1" parent="w8OnQSHXTQ-QWMvcalfN-614" source="w8OnQSHXTQ-QWMvcalfN-622" target="w8OnQSHXTQ-QWMvcalfN-617">
          <mxGeometry relative="1" as="geometry" />
        </mxCell>
        <mxCell id="w8OnQSHXTQ-QWMvcalfN-622" value="&lt;font style=&quot;font-size: 26px;&quot;&gt;40&lt;/font&gt;" style="rounded=0;whiteSpace=wrap;html=1;fillColor=#f8cecc;strokeColor=#b85450;" vertex="1" parent="w8OnQSHXTQ-QWMvcalfN-614">
          <mxGeometry x="100" width="50" height="40" as="geometry" />
        </mxCell>
        <mxCell id="w8OnQSHXTQ-QWMvcalfN-623" value="" style="group" vertex="1" connectable="0" parent="w8OnQSHXTQ-QWMvcalfN-25">
          <mxGeometry x="228.57142857142856" y="1780" width="100" height="40" as="geometry" />
        </mxCell>
        <mxCell id="w8OnQSHXTQ-QWMvcalfN-624" value="&lt;font style=&quot;font-size: 26px;&quot;&gt;5&lt;/font&gt;" style="rounded=0;whiteSpace=wrap;html=1;fillColor=#f8cecc;strokeColor=#b85450;" vertex="1" parent="w8OnQSHXTQ-QWMvcalfN-623">
          <mxGeometry width="50" height="40" as="geometry" />
        </mxCell>
        <mxCell id="w8OnQSHXTQ-QWMvcalfN-625" style="edgeStyle=orthogonalEdgeStyle;rounded=0;orthogonalLoop=1;jettySize=auto;html=1;" edge="1" parent="w8OnQSHXTQ-QWMvcalfN-623" source="w8OnQSHXTQ-QWMvcalfN-626">
          <mxGeometry relative="1" as="geometry">
            <mxPoint x="100" y="20" as="targetPoint" />
          </mxGeometry>
        </mxCell>
        <mxCell id="w8OnQSHXTQ-QWMvcalfN-626" value="" style="rounded=0;whiteSpace=wrap;html=1;fillColor=#a20025;fontColor=#ffffff;strokeColor=#6F0000;" vertex="1" parent="w8OnQSHXTQ-QWMvcalfN-623">
          <mxGeometry x="50" width="25" height="40" as="geometry" />
        </mxCell>
        <mxCell id="w8OnQSHXTQ-QWMvcalfN-627" value="" style="group" vertex="1" connectable="0" parent="w8OnQSHXTQ-QWMvcalfN-25">
          <mxGeometry x="235.71428571428567" y="1790" width="100" height="40" as="geometry" />
        </mxCell>
        <mxCell id="w8OnQSHXTQ-QWMvcalfN-628" style="edgeStyle=orthogonalEdgeStyle;rounded=0;orthogonalLoop=1;jettySize=auto;html=1;" edge="1" parent="w8OnQSHXTQ-QWMvcalfN-627" source="w8OnQSHXTQ-QWMvcalfN-629">
          <mxGeometry relative="1" as="geometry">
            <mxPoint x="100" y="20" as="targetPoint" />
          </mxGeometry>
        </mxCell>
        <mxCell id="w8OnQSHXTQ-QWMvcalfN-644" style="edgeStyle=orthogonalEdgeStyle;rounded=0;orthogonalLoop=1;jettySize=auto;html=1;strokeWidth=1;fontSize=28;" edge="1" parent="w8OnQSHXTQ-QWMvcalfN-25" source="w8OnQSHXTQ-QWMvcalfN-629">
          <mxGeometry relative="1" as="geometry">
            <mxPoint x="430" y="1800" as="targetPoint" />
          </mxGeometry>
        </mxCell>
        <mxCell id="w8OnQSHXTQ-QWMvcalfN-629" value="" style="rounded=0;whiteSpace=wrap;html=1;fillColor=#a20025;fontColor=#ffffff;strokeColor=#6F0000;" vertex="1" parent="w8OnQSHXTQ-QWMvcalfN-25">
          <mxGeometry x="378.57142857142856" y="1780" width="25" height="40" as="geometry" />
        </mxCell>
        <mxCell id="w8OnQSHXTQ-QWMvcalfN-630" value="&lt;font style=&quot;font-size: 27px;&quot;&gt;7&lt;/font&gt;" style="rounded=0;whiteSpace=wrap;html=1;fillColor=#f8cecc;strokeColor=#b85450;" vertex="1" parent="w8OnQSHXTQ-QWMvcalfN-25">
          <mxGeometry x="328.57142857142856" y="1780" width="50" height="40" as="geometry" />
        </mxCell>
        <mxCell id="w8OnQSHXTQ-QWMvcalfN-631" style="edgeStyle=orthogonalEdgeStyle;rounded=0;orthogonalLoop=1;jettySize=auto;html=1;entryX=1;entryY=0.5;entryDx=0;entryDy=0;strokeWidth=1;fontSize=12;" edge="1" source="w8OnQSHXTQ-QWMvcalfN-616" target="w8OnQSHXTQ-QWMvcalfN-610" parent="w8OnQSHXTQ-QWMvcalfN-25">
          <mxGeometry relative="1" as="geometry" />
        </mxCell>
        <mxCell id="w8OnQSHXTQ-QWMvcalfN-601" style="edgeStyle=orthogonalEdgeStyle;rounded=0;orthogonalLoop=1;jettySize=auto;html=1;exitX=0.5;exitY=0;exitDx=0;exitDy=0;strokeWidth=1;fontSize=12;entryX=0.5;entryY=0;entryDx=0;entryDy=0;" edge="1" parent="w8OnQSHXTQ-QWMvcalfN-25" source="w8OnQSHXTQ-QWMvcalfN-602" target="w8OnQSHXTQ-QWMvcalfN-620">
          <mxGeometry relative="1" as="geometry">
            <mxPoint x="-209.16666666666652" y="1760" as="targetPoint" />
            <Array as="points">
              <mxPoint x="-209" y="1720" />
              <mxPoint x="191" y="1720" />
            </Array>
          </mxGeometry>
        </mxCell>
        <mxCell id="w8OnQSHXTQ-QWMvcalfN-646" value="&lt;font style=&quot;font-size: 12px;&quot;&gt;leftPrev.next.next&lt;/font&gt;" style="edgeLabel;html=1;align=center;verticalAlign=middle;resizable=0;points=[];fontSize=28;" vertex="1" connectable="0" parent="w8OnQSHXTQ-QWMvcalfN-601">
          <mxGeometry x="-0.1548" y="-3" relative="1" as="geometry">
            <mxPoint y="-13" as="offset" />
          </mxGeometry>
        </mxCell>
        <mxCell id="w8OnQSHXTQ-QWMvcalfN-47" value="left =3&amp;nbsp;&amp;nbsp;&amp;nbsp;&amp;nbsp;&amp;nbsp;&amp;nbsp; right =6" style="text;html=1;align=center;verticalAlign=middle;resizable=0;points=[];autosize=1;strokeColor=none;fillColor=none;fontSize=27;" vertex="1" parent="1">
          <mxGeometry x="350" y="140" width="240" height="50" as="geometry" />
        </mxCell>
        <mxCell id="w8OnQSHXTQ-QWMvcalfN-88" value="Step-1" style="text;html=1;align=center;verticalAlign=middle;resizable=0;points=[];autosize=1;strokeColor=none;fillColor=none;fontSize=27;" vertex="1" parent="1">
          <mxGeometry x="90" y="265" width="100" height="50" as="geometry" />
        </mxCell>
        <mxCell id="w8OnQSHXTQ-QWMvcalfN-129" value="&lt;font style=&quot;font-size: 22px;&quot;&gt;-100&lt;/font&gt;" style="rounded=0;whiteSpace=wrap;html=1;fillColor=#e3c800;strokeColor=#B09500;fontColor=#000000;" vertex="1" parent="1">
          <mxGeometry x="100.00142857142862" y="320" width="50" height="40" as="geometry" />
        </mxCell>
        <mxCell id="w8OnQSHXTQ-QWMvcalfN-131" style="edgeStyle=orthogonalEdgeStyle;rounded=0;orthogonalLoop=1;jettySize=auto;html=1;fontSize=27;" edge="1" parent="1" source="w8OnQSHXTQ-QWMvcalfN-130">
          <mxGeometry relative="1" as="geometry">
            <mxPoint x="220" y="340" as="targetPoint" />
          </mxGeometry>
        </mxCell>
        <mxCell id="w8OnQSHXTQ-QWMvcalfN-130" value="" style="rounded=0;whiteSpace=wrap;html=1;fillColor=#b1ddf0;strokeColor=#10739e;" vertex="1" parent="1">
          <mxGeometry x="150.00142857142862" y="320" width="25" height="40" as="geometry" />
        </mxCell>
        <mxCell id="w8OnQSHXTQ-QWMvcalfN-132" value="" style="endArrow=classic;html=1;rounded=0;fontSize=22;strokeWidth=4;" edge="1" parent="1">
          <mxGeometry width="50" height="50" relative="1" as="geometry">
            <mxPoint x="130" y="400" as="sourcePoint" />
            <mxPoint x="130" y="360" as="targetPoint" />
            <Array as="points">
              <mxPoint x="130" y="390" />
            </Array>
          </mxGeometry>
        </mxCell>
        <mxCell id="w8OnQSHXTQ-QWMvcalfN-133" value="&lt;font style=&quot;font-size: 13px;&quot;&gt;leftPrev&lt;/font&gt;" style="text;html=1;align=center;verticalAlign=middle;resizable=0;points=[];autosize=1;strokeColor=none;fillColor=none;fontSize=22;" vertex="1" parent="1">
          <mxGeometry x="100" y="385" width="70" height="40" as="geometry" />
        </mxCell>
        <mxCell id="w8OnQSHXTQ-QWMvcalfN-134" value="" style="endArrow=classic;html=1;rounded=0;strokeWidth=4;fontSize=13;" edge="1" parent="1">
          <mxGeometry width="50" height="50" relative="1" as="geometry">
            <mxPoint x="240" y="400" as="sourcePoint" />
            <mxPoint x="240" y="360" as="targetPoint" />
          </mxGeometry>
        </mxCell>
        <mxCell id="w8OnQSHXTQ-QWMvcalfN-135" value="" style="endArrow=classic;html=1;rounded=0;strokeWidth=4;fontSize=13;" edge="1" parent="1">
          <mxGeometry width="50" height="50" relative="1" as="geometry">
            <mxPoint x="270" y="400" as="sourcePoint" />
            <mxPoint x="270" y="360" as="targetPoint" />
          </mxGeometry>
        </mxCell>
        <mxCell id="w8OnQSHXTQ-QWMvcalfN-136" value="curr" style="text;html=1;align=center;verticalAlign=middle;resizable=0;points=[];autosize=1;strokeColor=none;fillColor=none;fontSize=13;" vertex="1" parent="1">
          <mxGeometry x="215" y="390" width="50" height="30" as="geometry" />
        </mxCell>
        <mxCell id="w8OnQSHXTQ-QWMvcalfN-137" value="head" style="text;html=1;align=center;verticalAlign=middle;resizable=0;points=[];autosize=1;strokeColor=none;fillColor=none;fontSize=13;" vertex="1" parent="1">
          <mxGeometry x="245" y="390" width="50" height="30" as="geometry" />
        </mxCell>
        <mxCell id="w8OnQSHXTQ-QWMvcalfN-139" value="" style="shape=image;verticalLabelPosition=bottom;labelBackgroundColor=default;verticalAlign=top;aspect=fixed;imageAspect=0;image=data:image/png,iVBORw0KGgoAAAANSUhEUgAAAV4AAABTCAYAAADXwm9wAAALtUlEQVR4Xu2dPW7dOBDH591hkVxgH3ZtwAewiwAp4ypI4dzgOUAa+wBGELjcwm4CxL5BXASp7DJACvsAD7ADPF8gQe7gpT6ob4kjkqJI6f+q3VgiZ35D/UWNKM7iSfwo4N/jjz1a3h/Q5t0R/R2wHzAdBEBgPgQWYQvvI51/XtLV9oZuX0B25zNs4SkIhE0gcOENGz6sBwEQmCcBCO884w6vQQAERiQA4R0RProGARCYJwEI7zzjDq9BAARGJADhHRE+ugYBEJgngekJ780hLb69pqeLV/OMKLwGARCgm8MFnW6J1U5Hfq52MhJeoXG0f5lHefeMhKMjRj0S3f01nW1uqZH3DYm/E41up0QU23sp7PF3gAwWTV98T+2Qfq6un8j0nh1d9OXrYobxbRs4ruL+eE57y2PasRDPyJXHc/G9wPGd+K/ddn3pcbFoC6/wSxhCJPwiP+aWN3QoVHXdJWI2hDdtw4rfrgYhZ0DcfKWP4qYlf8/P3tO7o784Z+od45PvsQfJ+IkGtInwJhfojmjmovm6iP2Oumn5ux5No7P+nH+mT8e/iFZv6cPFv0ZtKU92GXdbrFUTOqXT9QO0hTee7Yr2xPjx4hfPMtZntBFT7kEfLmwKrxfkIs2JRPc3vdy8o/g7lMcf9Hn5nWho8bXpfzzDeaATbUGzI7zxOKTr9lSXLTGwwu4nfV18od9nL+nZ8XdauxBeK3ZzGxEfWO0t6XinIx6MpuKb6ZX4OtaitmgLr7BFOOSL8Nq5aBgxiCZG6YzFl5k+y+qOg/7Qj71PdH9QnuEms6Bn9PbpDQ08BzJ1QMTERsrGxhhiXOgeCe/Pw490//oDvXmVCLA3whvfRK/ooC1lGI0YzjHxg4z5E8b4wpuKTtuVUnz8lqmI7NhdEncMymejUVunyb/9tyCSqeLVNfV/1FPBrdjd1Ec0gz/dIjp5KOetpU81fwoQeueMB8graqtXPLu9p205240HdTLj/UXP81lw2oHMdWnnpS37Lu0xz80qhLdiN4lBlL3Arf6tFIxVnFZYZjnCeqS0WWoHvXqiWnidxp0jqpxjYjfNb6jjC28hXl0zXvnSrSjE8fHi/Ex8C2Io0rLxyzDdvHEfMOJJUCTY6uKevShc5bP46FiRvSi/MLQ64zUZFMm5hXebeXTEnYD9WFRJM0SzoC+XQnCvt+l+/zs9u45mRHnTxhdg1pSJ70kjyUssOy87ui7Qet62bWYb1ow3j6oD4e0Td46oco6J+0xicnWg/4JTmT7SuAHaTzU8knhMIPE2sSJu6b8L/5MVB6mASdFNGcXnZscwHbImvKK/Ys66MY/tjfAy4agOk8KbCu0vmedLZ71V4VU1x/+7ifCmAneXzCbtvNxts6flwm18ynIlvA033T4321qQ1MLLj6vqyBbO6SqEaN1A0y9+olkmKxU6j6kNBn3hlatTzJ+m6h4NJrxN4lmabVoUMAivarB3/L0trdCUgjDopn6qifC6nPF2PFlQVfhdCa/VQIjGPBDeokuc2SznGCszXkZMNcIxmPByZ7z2lmXxluh0phqCmvFaSjWkF93vygqG+OXa1Ta9v31BwywqMxfe+EEyzZ2az0ra7OljJ+MiVb2P0LiIzU+ZsvD2iV8zyT4TO24s7Auv6Lk1x1tcBWFxxtsngW4svG2pFC7x0nHmg0Kr28pJyQoGqi0na0ozZAvJiy+XtIyw6PvAqxqUa3Mz/xnCa3lhvxb62klq4XUad85slnNM5KeFG10wwpv6W/p6RzyVldf8WhXe9EVLyzre6hd22bgr2NSUz21bq1xd4dB3VUP1y6bcHrP1hiYXYbaIPm1kp/JSLdcWmWfTy68O5rvmOl6uPfmXSwXKtZsPQ3gLs3TZ0lirGqoxzzzbfVl/0slysJ7FvXPQ8+Khum68El6Vse7/zvhyzb1RE+xxiBdbE8Q0OZcCjLuF2W4URgivajCnj5zm+T5VRzP+u5XH+hnzC9X10OJuM6Xj0yfDvo6f+O70cILdyawHSM54xCf9hvsZWDcNDQ5IIMy4296dzJtNcgaMNJoGARAAgUkT0F7VMGkqcA4EQAAEBiQA4R0QLpoGARAAgSYCEF6MCxAAARBwTADC6xg4ugMBEACB8IXX8jaD0ZBA6RZcGCAAAkMSCF94Mzp2PkFVfh6qWJTd+CWU8ee1Qw4BtA0CIOCaAIS3Qly59yZHeEulX9LNbIy27XM9LNAfCIDAkAQgvCW6jG+7ewtvnLvorn48ZITRNgiAgHcE5iO8jkq3NM6Yq2Id/b+oM7S5/UeUPcqrSNS+COuyue2TyNFFPv/SSY724iYwTXxq/8bhwzkmNcBe1Qzvrl8YFCiBWQivy9ItdWFJUw2NNbrysjVVGzk21ysrM2bstYFqa1/f+LVkUo6oI6fNFt79qKhROx9Z4LLzGAhvoLI0fbNnILxuS7c0vVxrnsmu6axYRbW0vyjT5urslrtH6UDjmrOLE194u/i0pG9G9n8grGh2ggRmILxuS7coX87FE0NVyWmuzWWB5gjfkGOY4ztfeBUVRZQMh/QUbYOAGYHZCK+oisgoG894VNd5uVaNkVI0eiyNy9p6Td/EYz7Pz6JB9lIN9dRHfXBCeM0uWJw9DQIzEF5Zl2uHUZGWIbyKfT45sz71jLePzalIr1Z0uY5e2B1RVMR5lF/KRuRQ6DYuJV3/VXPXWWqmlgO3N+O1V7ZmFKrodIIEghde30q32BLeaKzxys3kx41VQqZ0XTSU6S7bVZlhC8HdbJ2W91BWPhFw0jUFqwzL1kzwuodLIxMIXnhH5ofugyAQYNmaILjCSF0CEF5dcjgvHAKhla0Jhyws1SQA4dUEh9NCIBBm2ZoQyMJGMwIQXjN+OBsEQAAEehOA8PZGhhNAAARAwIwAhNeMH84GARAAgd4EILy9keEEEAABEDAjAOE144ezQQAEQKA3AQhvb2Q4AQRAAATMCEB4zfjhbN8JcL6C890H2Dc5AhDeyYUUDpUIQHgxIDwkAOH1MCgwySIBCK9FmGjKFoGJCK9/5WZsBUjdTli+R5sInW5t6ORhSXGRifi3qu8cxyh7dFcqIFrej2F5vkfL47tGfE2bCaE8kHqk4Qh7BCYgvH6Wm2kPkb39b30ttdM1POvbQCY81oWtJDllj6Tv8rz6OakVzBkvhNeeqKAlNYHghZdTdYG/+XZY5WZC9F0dC2bZo2hsy72Ro72ILyuxk2OfKbzqSwVHgIA9AsELL2f/W/XFLoByLlDOMfZio2wpRN/VseCWPSrOaC+pVtcOwqscPzhgPALTEN71WWflBfXF7lJ47aUaQiy1o45Fj7JHsrjl9QFd7R/TTlN5J89uluNd6ujZJwLBC6983PSt3IyTIHtaakfmcZteYqmFl1n2qOp7teKyDICiVFN+WPoyrqM0vZOYopNZEAhfeAu5vuI77NHLzbgaPh6W2mmso5ZlBha0T9f0dPEqI9Qkxp1lj+SKh4pIyn6raYdqW40lklAeyNWIRT+CwDSEF6EEAWMCKA9kjBANsAlAeNmocOCkCaA80KTD65tzEF7fIgJ7HBNAeSDHwNEdUg0YAyAAAiDgngBmvO6Zo0cQAIGZE4DwznwAwH0QAAH3BCC87pmjRxAAgZkTgPDOfADAfRAAAfcENIQ3/+S1cSG6ex/QIwiAAAgERUBDeFP/mJ9iBkUDxoIACICAAwL6wkst2/c5MBpdgAAIgEDIBCC8IUcPtoMACARJAMIbZNhgNAiAQMgEDIQ32jtc7DSl2As3ZDiwHQRAAASGIGAkvLFBcjs97GM6RHzQJgiAwAQJGAkvp+bXBJnBJRAAARAwImAgvFjVYEQeJ4MACMyWAIR3tqGH4yAAAmMRgPCORR79ggAIzJYAhHe2oYfjIAACYxHQF158MjxWzNAvCIBA4AQ0hBeb5AQec5gPAiAwMgEN4R3ZYnQPAiAAAoETgPAGHkCYDwIgEB4BCG94MYPFIAACgROA8AYeQJgPAiAQHoH/AWEl0Z5lHrPlAAAAAElFTkSuQmCC;" vertex="1" parent="1">
          <mxGeometry x="410" y="370" width="350" height="83" as="geometry" />
        </mxCell>
        <mxCell id="w8OnQSHXTQ-QWMvcalfN-180" value="&lt;font style=&quot;font-size: 22px;&quot;&gt;-100&lt;/font&gt;" style="rounded=0;whiteSpace=wrap;html=1;fillColor=#e3c800;strokeColor=#B09500;fontColor=#000000;" vertex="1" parent="1">
          <mxGeometry x="110.00142857142862" y="450" width="50" height="40" as="geometry" />
        </mxCell>
        <mxCell id="w8OnQSHXTQ-QWMvcalfN-181" style="edgeStyle=orthogonalEdgeStyle;rounded=0;orthogonalLoop=1;jettySize=auto;html=1;fontSize=27;" edge="1" source="w8OnQSHXTQ-QWMvcalfN-182" parent="1">
          <mxGeometry relative="1" as="geometry">
            <mxPoint x="230" y="470" as="targetPoint" />
          </mxGeometry>
        </mxCell>
        <mxCell id="w8OnQSHXTQ-QWMvcalfN-182" value="" style="rounded=0;whiteSpace=wrap;html=1;fillColor=#b1ddf0;strokeColor=#10739e;" vertex="1" parent="1">
          <mxGeometry x="160.00142857142862" y="450" width="25" height="40" as="geometry" />
        </mxCell>
        <mxCell id="w8OnQSHXTQ-QWMvcalfN-191" value="" style="group" vertex="1" connectable="0" parent="1">
          <mxGeometry x="210" y="490" width="50" height="60" as="geometry" />
        </mxCell>
        <mxCell id="w8OnQSHXTQ-QWMvcalfN-186" value="" style="endArrow=classic;html=1;rounded=0;strokeWidth=4;fontSize=13;" edge="1" parent="w8OnQSHXTQ-QWMvcalfN-191">
          <mxGeometry width="50" height="50" relative="1" as="geometry">
            <mxPoint x="25" y="40" as="sourcePoint" />
            <mxPoint x="25" as="targetPoint" />
          </mxGeometry>
        </mxCell>
        <mxCell id="w8OnQSHXTQ-QWMvcalfN-188" value="head" style="text;html=1;align=center;verticalAlign=middle;resizable=0;points=[];autosize=1;strokeColor=none;fillColor=none;fontSize=13;" vertex="1" parent="w8OnQSHXTQ-QWMvcalfN-191">
          <mxGeometry y="30" width="50" height="30" as="geometry" />
        </mxCell>
        <mxCell id="w8OnQSHXTQ-QWMvcalfN-237" value="" style="endArrow=classic;html=1;rounded=0;strokeWidth=4;fontSize=13;" edge="1" parent="w8OnQSHXTQ-QWMvcalfN-191">
          <mxGeometry width="50" height="50" relative="1" as="geometry">
            <mxPoint x="35" y="220" as="sourcePoint" />
            <mxPoint x="35" y="180" as="targetPoint" />
          </mxGeometry>
        </mxCell>
        <mxCell id="w8OnQSHXTQ-QWMvcalfN-193" value="&lt;font style=&quot;font-size: 26px;&quot;&gt;Step-2&lt;/font&gt;" style="text;html=1;align=center;verticalAlign=middle;resizable=0;points=[];autosize=1;strokeColor=none;fillColor=none;fontSize=13;" vertex="1" parent="1">
          <mxGeometry x="90" y="560" width="100" height="40" as="geometry" />
        </mxCell>
        <mxCell id="w8OnQSHXTQ-QWMvcalfN-194" value="&lt;font style=&quot;font-size: 17px;&quot;&gt;reverse from value 10 to 40&lt;/font&gt; " style="text;html=1;align=center;verticalAlign=middle;resizable=0;points=[];autosize=1;strokeColor=none;fillColor=none;fontSize=26;" vertex="1" parent="1">
          <mxGeometry x="95" y="590" width="230" height="40" as="geometry" />
        </mxCell>
        <mxCell id="w8OnQSHXTQ-QWMvcalfN-234" value="&lt;font style=&quot;font-size: 22px;&quot;&gt;-100&lt;/font&gt;" style="rounded=0;whiteSpace=wrap;html=1;fillColor=#e3c800;strokeColor=#B09500;fontColor=#000000;" vertex="1" parent="1">
          <mxGeometry x="120.00142857142862" y="630" width="50" height="40" as="geometry" />
        </mxCell>
        <mxCell id="w8OnQSHXTQ-QWMvcalfN-235" style="edgeStyle=orthogonalEdgeStyle;rounded=0;orthogonalLoop=1;jettySize=auto;html=1;fontSize=27;" edge="1" source="w8OnQSHXTQ-QWMvcalfN-236" parent="1">
          <mxGeometry relative="1" as="geometry">
            <mxPoint x="240" y="650" as="targetPoint" />
          </mxGeometry>
        </mxCell>
        <mxCell id="w8OnQSHXTQ-QWMvcalfN-236" value="" style="rounded=0;whiteSpace=wrap;html=1;fillColor=#b1ddf0;strokeColor=#10739e;" vertex="1" parent="1">
          <mxGeometry x="170.00142857142862" y="630" width="25" height="40" as="geometry" />
        </mxCell>
        <mxCell id="w8OnQSHXTQ-QWMvcalfN-241" value="&lt;font style=&quot;font-size: 12px;&quot;&gt;head&lt;/font&gt;" style="text;html=1;align=center;verticalAlign=middle;resizable=0;points=[];autosize=1;strokeColor=none;fillColor=none;fontSize=17;" vertex="1" parent="1">
          <mxGeometry x="215" y="700" width="50" height="30" as="geometry" />
        </mxCell>
        <mxCell id="w8OnQSHXTQ-QWMvcalfN-242" value="leftPrev" style="text;html=1;align=center;verticalAlign=middle;resizable=0;points=[];autosize=1;strokeColor=none;fillColor=none;fontSize=12;" vertex="1" parent="1">
          <mxGeometry x="245" y="710" width="60" height="30" as="geometry" />
        </mxCell>
        <mxCell id="w8OnQSHXTQ-QWMvcalfN-246" value="" style="endArrow=classic;html=1;rounded=0;strokeWidth=4;fontSize=12;" edge="1" parent="1">
          <mxGeometry width="50" height="50" relative="1" as="geometry">
            <mxPoint x="129.58" y="765" as="sourcePoint" />
            <mxPoint x="129.58" y="725" as="targetPoint" />
          </mxGeometry>
        </mxCell>
        <mxCell id="w8OnQSHXTQ-QWMvcalfN-247" value="prev" style="text;html=1;align=center;verticalAlign=middle;resizable=0;points=[];autosize=1;strokeColor=none;fillColor=none;fontSize=12;" vertex="1" parent="1">
          <mxGeometry x="105" y="755" width="50" height="30" as="geometry" />
        </mxCell>
        <mxCell id="w8OnQSHXTQ-QWMvcalfN-248" value="null" style="text;html=1;align=center;verticalAlign=middle;resizable=0;points=[];autosize=1;strokeColor=none;fillColor=none;fontSize=12;" vertex="1" parent="1">
          <mxGeometry x="110" y="695" width="40" height="30" as="geometry" />
        </mxCell>
        <mxCell id="w8OnQSHXTQ-QWMvcalfN-249" value="" style="endArrow=classic;html=1;rounded=0;strokeWidth=4;fontSize=12;" edge="1" parent="1">
          <mxGeometry width="50" height="50" relative="1" as="geometry">
            <mxPoint x="375" y="710" as="sourcePoint" />
            <mxPoint x="375" y="670" as="targetPoint" />
          </mxGeometry>
        </mxCell>
        <mxCell id="w8OnQSHXTQ-QWMvcalfN-250" value="curr" style="text;html=1;align=center;verticalAlign=middle;resizable=0;points=[];autosize=1;strokeColor=none;fillColor=none;fontSize=12;" vertex="1" parent="1">
          <mxGeometry x="360" y="700" width="40" height="30" as="geometry" />
        </mxCell>
        <mxCell id="w8OnQSHXTQ-QWMvcalfN-254" value="" style="shape=image;verticalLabelPosition=bottom;labelBackgroundColor=default;verticalAlign=top;aspect=fixed;imageAspect=0;image=data:image/png,iVBORw0KGgoAAAANSUhEUgAAAakAAACHCAYAAACs/aapAAAWY0lEQVR4Xu2dPW7lyNWGj/bwYbyBT5ivB9ACNIGBCUeR4EDOOtQYcCItQDCMDidQJwbcCjuzAkOROhzAgbQAASMDtzcwhvegr4r/LBbJw8siL1l8bjTTIounnlO3XtbPrffozXyEDwQgAAEIQGCBBI4QqQVmhZAgAAEIQCAhMJ9IfflJjs7u5PR2J09X/7s6/F9+OpIzeZS3Tz+uLvboA/5iGvJZWcvLR5FGmjTXRA+KCkJgfQTGidTXj/L98b1c7J6kV3dCiFRShsjj2ydpSsUX+cn88U4u63/vvEefMERKz+qQV5p3CdNAPCJVCUpzzSHrwLMhAIGSwHwiFYK6QqReTk9FLj6XozVEKgT51ZShESDNNaupMIFCIHIC0YmUPJrX6LMHOc9HW4hU5E24Xj2NAGmu2RQ0KguBBROYXqSyab6cweXjW3O9wPzx68fv5fj6uYKqnLZr/q28rFzjSqf7zFyfnD8cycN59hyPSDXKO72V3dOV1FbKnLiTJ5rFjtqalHuN+3dF4u004od3O7l5PRazZJd9PFOWH96ZGL+Vn5MpzfTTYNkVTzI1ey0nLv/knhe51UzZKuoz5BLzaFN3MXU37xVF3ZMUFtO59hq73GTeOYqP79/yP2oEqO+avH2sdf10SA64FgJLJzC9SJVdSyEizUXtrrWmCkLFdJ/t4T4dmw75vchnKzzOPcna0l1VBL7Kx++P5VpKoUo7qZPa2pa7JtW8JivnZNjmijSeqgB6yinE57QQE/f5mniSZ71UBXmfmPO1P0/T9ol9xzcgEZuk7qUIWQExIZrp2vRGRGrpXQjxQWBaAgsSKbPloWWUVX2F7ts4kYjUj7bzTVRKrnYVAWwbTdQ2gJQjsqqY1kUq7dzvL5ydintMLXo3ZLjl+EY7tZiV8bjlDNn4MkE71AiQ5ppqaH2jJHut5poJqkuREIDAHgSWIVI28ExA8gk/71SLdiRlt/7Zax/O5e38odwR2NopV4TJjsI802J1MekYTbi7C3uS0i5SlSm4XvHTxlMXs2T0dX/RnOrcoyHtc4tGgDTXIFL70OceCKyDwHJEqsorEywzt1X/TdUQkRLbcZsNFHYfRb5tPdhIyj/a2ifl+pFU29b7ZFKsfSrVDapgeC4P2RresJ9+BZ7uM/F1rTchUvu0Ku6BQDwElilS0jJ91SYyST6aHbUdKby/F3l+LteXWtekKmtJ9bWbbN3GDvEqGyN861b7NIumSKX1eKkKdO9IKt94Ul9H88eTcbq8lLsXuxnD2TCyTyX2vEcjQCblZn2w3EzhW8cKPZIqNtbssRFmTxTcBgEItBAIIFLXUt2TlzynsoBebAxwA2h0+PVS2nZWuTvzfLv7ypGB/we+jZganVF9tGCf8Vney/HrTW13n3fX4cCOzcfHv2uvaySVwtXGs5TdaxqRsvWya0iVjY+yMzsCj82OwHwEVghXo40Nu6a4vZh6dnZZ0o1AAAKzExgnUrOHG98DOcliiTnNR8+I1BKzQ0zbIoBIHTjfiNSBE+B7fLbln99JLTA3hLQ5AojUgVOOSB04AbXHl+uPvT+HWFLYxAKBiAkgUhEnl6pBAAIQWDsBRGrtGSR+CEAAAhETQKQiTi5VgwAEILB2AojU2jNI/BCAAAQiJhC3SOVHIw07UiHidFM1CEAAAnUCuRPDUh3Tg4mU+4NK83ve4iTrgzSKPguKzE784HHmcLa87XmNdR8Z8yp3dRan8aeNNsQOSPfH7Gz7r/SWI9uYut/tPMlHXUpxYXmoQOnaMLyU8o4gIuUeXTMmoDD3eo4WcgsOIVJZGVX/o73jn6tBagL88k/5q/GYyj+/u/2z/OnqfzR37nfNkuqurcHImNUipTgSSxtyuOsGnBXZ8dDeo8UWWPf/fvy7/O36N6PQf5S/fPq/cEh9JY1sY4OCC8W6b3AwKKj04iAi5TveZo9Ygt3S9E0KVnS9oJAiNVGIg4tNBOo/8sPuT/J76wL59V/y9+NfRKYWqsGBdvZ+5iT7V7nJ3ZlDlh2oLETKGhUYfzPp8F8L1XEGydm/5Z9H/5D/3P4g31z/Ii9ziFSQuLWF7OMt1yx7CmeFICJlznEV4xFYO81aiyb8dWHe8lRxRSdS/5V/ff83+fWiPnJK3x6/kT++/UEmfndUYe+8aM63zxHR9nbQedmL6qiLoPSn7rcyUnSKIes+0jvt3z/9VX49/4v84cdUrBYjUpp6aa6xeQrAe1kilXXQbW2wOgWWTwcW156KOX1bSrt2W9aH9N9+rhwmas5q9VrN93dSHYexOnH7nmFHhl225o36VAIavMY1wTz/3n1nMmr6Vb7LR1G2oGwk9Zv8rhxdZQ8YfVBt4Lrn8ey9VmLjMYnfPX1r2uFZcahtrTxlzN7Dfg23vKxcpHbvPphT3rPDlSsHM7fdb9Efft2m50XQYVR1D0g7wuK4YKeppmclHifO2I1jq5Nr9667tqPu/fL0i9Ss3wtNvTTXJPUe/4K/LJGqJLNrJJVvqKiKVnK9ub8QqopwmAPH5cpMM+27zjUEUptDa7EJpMPWPMtpZqgoYn0Wx33GNJBAHk/OVJ99e/zHnRGnx+/k17Nf5JtH+yZZ1nL0l7Eoakzd00LSBfiRC7VFB1qW075u0h5z456s3KrYFRsGilPzW9ZRA7zdjmuXvrsH1D2z3bmuWOGkJa5rJFVSmEGkhnwvNAKkuaaSk4bj+IAGpJ4hGFDmtNN9X8WsDYiY9lkfEWX/btzXE0EyAp509rlAZbySe4trlJUKJlLmeV1mfMsSKSWcvstykcpE6bd83j0bTbki1Vec/u9jRCrgieW+RV+Nm7PzhtL8ojb90XxfZpUBph5q5UrPS0xl1Da8yLZ8tfjAeYV2BpFy3L7deu434u4XqeE82+5o4aypV+Yw7h+Ptu3MbMmfokL5S9d+TLsfMItI+YSmNooJuLaDSClaVNslbVN7vmnAEY9p3jpGpNLSwo2k+n27sie2rsuoR1LOpoHpRCpospK3SmvMaebmnOn4jhG9uLYnM4hUtdrq0UQfqwWI1NB6qeu+v0ilISly2ofX8/dZREo7kgq3lVvX0XRO9xlY6xlJBZruk3wHk2fjxP138uen38s0G9HHi1TyFcnWMvZ+mxs0tdY35VV/h3VjmncktUfP0HlLt0g1xctXmKJDG5SPnjqqO+o+VjGL1Pjv4ZBBQh/p/O/TilTyhitmraC0/7YPbqxhBRxJDVn8Gy1SbdOZWvq168Y3kL0e69yU7uSTxhZ031RfOJv1gHUfs7tvUKfYPeX1euOOMuqg1SIV+IeWIdpI13es97dPRQAKkQpZ9xlFatbvhaZemmtsXga1f39LWqVIZXVPhKr4VDYkJP8WVKSyqZ+XW7Mx46rcQZg9vNgU4TKuxOT73Vfbb8HcnX5Dd/f57OOT0Aba0IfpfNJSih8sZoWeOBsmyn7mo1k3vJbnxlSOLprJ6p58Kff4nZTiS6qKuW0HWyWnapEyKN2dfnvvcNOlpfUqVd098frbs0KkFlR39ztRQDr9oTnDUKwZ7efsrOU8Mp3O7bp89D1zsSLVF/j8f1ecODF/UBE+MeCmhWjodC92nzTWcaKpOBUp397MbNGxXD/vJ1IHAal4QdPEhUhpKOXXeLb9DrmdaxUExkytKYpf5SUtU1TpaMjuYH1Kd7TyiZfA2r4XIadVfTtkR2Y6yJrUyBgmuz3pGF5vzAaI8b9imizIVRaMzXpn2rzTfSt6q15lm1xC0Ov8XoQ+BX2RB8wuoXkQAwQgAAEIxEcg6pFUfOmiRhCAAAS2RQCR2la+qS0EIACBVRFApFaVLoKFAAQgsC0CiNS28k1tIQABCKyKwHZFam3bRJ1mNcVpw6tquQQLAQhsgkBcIqU9/sOmNoRIdf4ALj9Pz9l6HOhHc5OKVKAYN/ENiqmS5D2mbEZTl+2KVIgUKkTq5dQ4PF58lqf8F5yBOgJEKkQCKaNGIFDbhCoEQhJApMbQVIiUPBozrbMHOTdHqic/KQ7UESBSYxLHvV4CgdomdCEQksD2RMo5DaDN1qFp311O2+msvcsz3M4fjuThPDsV29MRNMrzGdL5TjFwD6F1rxl4SK2qXtnhrRe3L3JtLb5trDevcpycIFwyyn/FfvN6XDlc+NCnLpQnAuRfouphrapDXy1jjcV83zWKb7GaYVfe88NOa22qfubiULv2cI7MCghcsnkC2xOpIuUd9hDaN0rVSMqIk3XJfC/y2Z7K7tyTnnhc7byzDkTKU9x99gduh9q8ZsSpxl31qnZ6n0Xe21PQkw7wW/m5YoTXtEffJ55QPlnJEDYx6rvrEG61SCWC3GExX4iGxoa+vQ/SWMzr8l4/cLnVTkPZ7hGpzevGrAAQKd+p1NrDabUi9aPtoBOVkqudeRNPTE3N9F/bwY61DSB+Ma13qENsuxXtq1ek7uXCHpQqqVVHerJ3Pc6lucxqTmfWi9RL/aBYd8OO75DNIZt6shT1xzMg73lbu7yUuzsn/rxJKEVK0YK4BALBCCBSbdYJhSdMytrr4aMWqWwt6uFc3s4fHJHKOvzaydiVDt+OwgohKPNe78CG2HYr2s6kItXSQSrCGnOJZg2vXxSyPOYvGW0BBers++MZmPe+l69AcY/JE/dCwCWASGn8fTLBMq/P5S69ZAapMipqtC13BGT/32ygsPsogo+kAjrb9tWrOiKYfCQVbrov6fBbjDDLgYS5Rh5rp+Y3hELTkWuuUfRFWpFS2bXneXu8kPuzfPTrBBEobkXVuAQCagKIlEakpGVapdOHpSkcdsrp/b3I8/NJOt2X6FzLmtRJ2VnWO9jK4n9lfUVv261oG1312lukDmxE2faiUcHhMmyuCfW9mGSFDejs82f4Rur9IpW79pbtyZtdt+6+6Uh7o9JXKJw9uqItcsnmCUQoUtbO3PlUdjZprJl9u9zaLLvbrb19oxv/D3wbMTUW9+sjChvLZ3nf8Mry7s4buMMvJ9daryEiZfcXVD5tOyln+xY6U7j2ufW8OiM3w2737kOds0aANNcUemZfUsz/ePKkEalUW6yhotPq8/LyTRxO+Xmbc3OisqofaY8+W755UBQE4hKpKFISRyU0a0Bx1HSLtahvYcdSdIttYL46I1Lzsd7UkxCpiNOdjc7aZhcirjlVOwABROoA0LfwSEQqxiyv0x49xkxsqU6I1JayTV0hAAEIrIwAIrWyhBEuBCAAgS0RQKS2lG3qCgEIQGBlBBCplSWMcCEAAQhsiQAitaVsU1cIQAACKyOASK0sYYQLAQhAYEsEEKktZdvWdcBpCFtDQ30hAIHlEUCklpeTaSNCpKblS+kQgEBQAohUUJwrKAyRWkGSCBECEMgJRChSWISn1lTjLMLn+Iqo7NE1du3FNGblRNvqgaptp3u3nAaO8+wc2ecZENARiEyksAh/yTyvxlqEtzefwB5PtRPAPRbzCit2jYV600+q3c4ekdJ1HlwFgTkIRCVSWIRnLr4rsQhXWcz3WrErLdTdcvawc5/jC8kzIACBOoGoREpzqKnKo0ezbqO5RtHa+uOJ1yK8XaQqFvO9nLV86mKmeaFRpI9LIACBiQnEJ1JYhMvFpBbhgaf7HLv2xhZ5pUipLNSLss7l4ehMVPdM/AWkeAhAoJtAVCKV219Lti7jqzoW4dmU4OObfDqwW11zJOWxmO8VKaWFetIYMrdkOx368k52T1eSbjKpf7BHp9uEwHIIxCVSlisW4UXrGmURPkMbzeOrPqphMa8QqTTtHRbqlQeoNkVgjz5D9nkEBHQE4hMpXb25agEENGuIhwkTe/TDcOepEGgSQKRoFQcjsFiRwh79YG2CB0PAJYBI0SYORmB5IoU9+sEaAw+GQAsBRIqmAQEIQAACiyWASC02NQQGAQhAAAKIFG0AAhCAAAQWSwCRWmxqCAwCEIAABBAp2gAEIAABCCyWACK12NQQGAQgAAEIIFK0AQhAAAIQWCwBRGqxqSEwCEAAAhBApGgDEIAABCCwWAJRidRS7cjny355YkL+zNPKifD93lXmLo1du+aaLADVga7zAeJJEIDAyghEJ1JnC7Qjb28T4byZchuKu8tHeWvx4FCLVALx1DiePMmV8bJo2LMrLN3zOiNSK+sRCBcCCyMQn0ipTPQqzq82ITUr8XXakWucZvUi1cUnG22d9VyzsIZOOBCAwDoJbESk4rcj1xzWqhcpa1r7SVo9EZUeT+v8ShA1BCCwJAIbEalKp9vbwWburRrn2tF25OGm+xIBerltdZu1jQ6RWtJXj1ggAAENgchFahl25JpEjL4mc5M1C0nyZBeSPB93balwxq2uY/WKeD7d1zPayp6PFfvozFIABDZNID6Rsmv+lc8i7MjnamKF7Xn5wOruvmJzRf5nI067dx/k+PWm3GwRWKTS9b5reZbL7inEuRjxHAhAYFUE4hMpd+PEqtIRY7BYsceYVeoEgbkIIFJzkd7qc7Bi32rmqTcEghBApIJgpJAmAazYaRUQgMB4AlGJ1HgclAABCEAAAksigEgtKRvEAgEIQAACNQKIFA0CAhCAAAQWSwCRWmxqCAwCEIAABBAp2gAEIAABCCyWACK12NQQGAQgAAEIIFIxtQHNaREx1Ze6QAAC0RNApGJKMSIVUzapCwQgYAggUjE1A0QqpmxSFwhAIE6RWp6F+tQtrThp3POg4oDZ5KDXV7m4fZHr62djvGtsPW5e5Ti1Mi4Of7Uno394t5Ob12NJ/pR8/IfD4ro7dWYpHwIQiGwklfkzLcxCvb2ZhfOTSp7RNZLKTyO34vRZ5L09mdz+99O38vPRmfXdEOs637TvyET/pGlLj0jRgUAAAlMTiEqkNm+h3itS93Kxe5IrSe0zThJhqps8eh1+mUac+ntI+RCAQAuBqERq8xbqk4rUi/FTNALn91PkCwYBCEBgEgLxidSqLNTnnu5jJDXJt4hCIQCByQhEJVK5C+zSLNQny55bcLbulE7jOX9M/raPSKVC+uKxpccafrbM8iAIbJZAXCJl07hEC/UZm5e706++u08pUsWuvjTwS5/o1VhjDT9jinkUBDZFID6R2lT6wldWs65XPhVr+PAZoEQIQKBKAJGiPdQIDBIprOFpPRCAwMQEEKmJAa+teJ1IYQ2/trwSLwTWSgCRWmvmiBsCEIDABgggUhtIMlWEAAQgsFYCiNRaM0fcEIAABDZAAJHaQJKpIgQgAIG1EkCk1po54oYABCCwAQIjRao81qf40egGoFFFCEAAAhCYh8BIkcqC7DqOZ5568BQIQAACEIiQQBiRkvR3M/cXO3nimOwImwlVggAEIHAYAojUYbjzVAhAAAIQUBBApBSQuAQCEIAABA5DIJBIZbbjPV5Oh6kiT4UABCAAgbUSCCZSCYDcJuPyUd4ahkZrRUTcEIAABCBwKALBRCrxMbq/kN3TleAwfqh08lwIQAACcREIJFLs7ourWVAbCEAAAssggEgtIw9EAQEIQAACHgKIFM0CAhCAAAQWSwCRWmxqCAwCEIAABMKIFMci0ZIgAAEIQGACAiNFigNmJ8gJRUIAAhCAQEZgpEjBEQIQgAAEIDAdAURqOraUDAEIQAACIwkgUiMBcjsEIAABCExHAJGaji0lQwACEIDASAKI1EiA3A4BCEAAAtMR+H9CfqOnc4QQmgAAAABJRU5ErkJggg==;" vertex="1" parent="1">
          <mxGeometry x="450" y="680" width="425" height="135" as="geometry" />
        </mxCell>
        <mxCell id="w8OnQSHXTQ-QWMvcalfN-320" value="&lt;font style=&quot;font-size: 22px;&quot;&gt;-100&lt;/font&gt;" style="rounded=0;whiteSpace=wrap;html=1;fillColor=#e3c800;strokeColor=#B09500;fontColor=#000000;" vertex="1" parent="1">
          <mxGeometry x="120.00142857142862" y="890" width="50" height="40" as="geometry" />
        </mxCell>
        <mxCell id="w8OnQSHXTQ-QWMvcalfN-321" style="edgeStyle=orthogonalEdgeStyle;rounded=0;orthogonalLoop=1;jettySize=auto;html=1;fontSize=27;" edge="1" source="w8OnQSHXTQ-QWMvcalfN-322" parent="1">
          <mxGeometry relative="1" as="geometry">
            <mxPoint x="240" y="910" as="targetPoint" />
          </mxGeometry>
        </mxCell>
        <mxCell id="w8OnQSHXTQ-QWMvcalfN-322" value="" style="rounded=0;whiteSpace=wrap;html=1;fillColor=#b1ddf0;strokeColor=#10739e;" vertex="1" parent="1">
          <mxGeometry x="170.00142857142862" y="890" width="25" height="40" as="geometry" />
        </mxCell>
        <mxCell id="w8OnQSHXTQ-QWMvcalfN-323" value="" style="group" vertex="1" connectable="0" parent="1">
          <mxGeometry x="220" y="930" width="50" height="60" as="geometry" />
        </mxCell>
        <mxCell id="w8OnQSHXTQ-QWMvcalfN-324" value="" style="endArrow=classic;html=1;rounded=0;strokeWidth=4;fontSize=13;" edge="1" parent="w8OnQSHXTQ-QWMvcalfN-323">
          <mxGeometry width="50" height="50" relative="1" as="geometry">
            <mxPoint x="25" y="40" as="sourcePoint" />
            <mxPoint x="25" as="targetPoint" />
          </mxGeometry>
        </mxCell>
        <mxCell id="w8OnQSHXTQ-QWMvcalfN-325" value="head" style="text;html=1;align=center;verticalAlign=middle;resizable=0;points=[];autosize=1;strokeColor=none;fillColor=none;fontSize=13;" vertex="1" parent="w8OnQSHXTQ-QWMvcalfN-323">
          <mxGeometry y="30" width="50" height="30" as="geometry" />
        </mxCell>
        <mxCell id="w8OnQSHXTQ-QWMvcalfN-341" value="null" style="text;html=1;align=center;verticalAlign=middle;resizable=0;points=[];autosize=1;strokeColor=none;fillColor=none;fontSize=12;" vertex="1" parent="1">
          <mxGeometry x="390" y="850" width="40" height="30" as="geometry" />
        </mxCell>
        <mxCell id="w8OnQSHXTQ-QWMvcalfN-345" value="curr" style="text;html=1;align=center;verticalAlign=middle;resizable=0;points=[];autosize=1;strokeColor=none;fillColor=none;fontSize=12;" vertex="1" parent="1">
          <mxGeometry x="470" y="985" width="40" height="30" as="geometry" />
        </mxCell>
        <mxCell id="w8OnQSHXTQ-QWMvcalfN-396" value="&lt;font style=&quot;font-size: 22px;&quot;&gt;-100&lt;/font&gt;" style="rounded=0;whiteSpace=wrap;html=1;fillColor=#e3c800;strokeColor=#B09500;fontColor=#000000;" vertex="1" parent="1">
          <mxGeometry x="120.00142857142862" y="1040" width="50" height="40" as="geometry" />
        </mxCell>
        <mxCell id="w8OnQSHXTQ-QWMvcalfN-397" style="edgeStyle=orthogonalEdgeStyle;rounded=0;orthogonalLoop=1;jettySize=auto;html=1;fontSize=27;" edge="1" source="w8OnQSHXTQ-QWMvcalfN-398" parent="1">
          <mxGeometry relative="1" as="geometry">
            <mxPoint x="240" y="1060" as="targetPoint" />
          </mxGeometry>
        </mxCell>
        <mxCell id="w8OnQSHXTQ-QWMvcalfN-398" value="" style="rounded=0;whiteSpace=wrap;html=1;fillColor=#b1ddf0;strokeColor=#10739e;" vertex="1" parent="1">
          <mxGeometry x="170.00142857142862" y="1040" width="25" height="40" as="geometry" />
        </mxCell>
        <mxCell id="w8OnQSHXTQ-QWMvcalfN-399" value="" style="group" vertex="1" connectable="0" parent="1">
          <mxGeometry x="220" y="1080" width="50" height="60" as="geometry" />
        </mxCell>
        <mxCell id="w8OnQSHXTQ-QWMvcalfN-400" value="" style="endArrow=classic;html=1;rounded=0;strokeWidth=4;fontSize=13;" edge="1" parent="w8OnQSHXTQ-QWMvcalfN-399">
          <mxGeometry width="50" height="50" relative="1" as="geometry">
            <mxPoint x="25" y="40" as="sourcePoint" />
            <mxPoint x="25" as="targetPoint" />
          </mxGeometry>
        </mxCell>
        <mxCell id="w8OnQSHXTQ-QWMvcalfN-401" value="head" style="text;html=1;align=center;verticalAlign=middle;resizable=0;points=[];autosize=1;strokeColor=none;fillColor=none;fontSize=13;" vertex="1" parent="w8OnQSHXTQ-QWMvcalfN-399">
          <mxGeometry y="30" width="50" height="30" as="geometry" />
        </mxCell>
        <mxCell id="w8OnQSHXTQ-QWMvcalfN-406" value="tmp" style="text;html=1;align=center;verticalAlign=middle;resizable=0;points=[];autosize=1;strokeColor=none;fillColor=none;fontSize=12;" vertex="1" parent="1">
          <mxGeometry x="540" y="1115" width="40" height="30" as="geometry" />
        </mxCell>
        <mxCell id="w8OnQSHXTQ-QWMvcalfN-459" value="&lt;font style=&quot;font-size: 22px;&quot;&gt;-100&lt;/font&gt;" style="rounded=0;whiteSpace=wrap;html=1;fillColor=#e3c800;strokeColor=#B09500;fontColor=#000000;" vertex="1" parent="1">
          <mxGeometry x="120.00142857142862" y="1170" width="50" height="40" as="geometry" />
        </mxCell>
        <mxCell id="w8OnQSHXTQ-QWMvcalfN-460" style="edgeStyle=orthogonalEdgeStyle;rounded=0;orthogonalLoop=1;jettySize=auto;html=1;fontSize=27;" edge="1" source="w8OnQSHXTQ-QWMvcalfN-461" parent="1">
          <mxGeometry relative="1" as="geometry">
            <mxPoint x="240" y="1190" as="targetPoint" />
          </mxGeometry>
        </mxCell>
        <mxCell id="w8OnQSHXTQ-QWMvcalfN-461" value="" style="rounded=0;whiteSpace=wrap;html=1;fillColor=#b1ddf0;strokeColor=#10739e;" vertex="1" parent="1">
          <mxGeometry x="170.00142857142862" y="1170" width="25" height="40" as="geometry" />
        </mxCell>
        <mxCell id="w8OnQSHXTQ-QWMvcalfN-462" value="" style="group" vertex="1" connectable="0" parent="1">
          <mxGeometry x="220" y="1200" width="50" height="60" as="geometry" />
        </mxCell>
        <mxCell id="w8OnQSHXTQ-QWMvcalfN-463" value="" style="endArrow=classic;html=1;rounded=0;strokeWidth=4;fontSize=13;" edge="1" parent="w8OnQSHXTQ-QWMvcalfN-462">
          <mxGeometry width="50" height="50" relative="1" as="geometry">
            <mxPoint x="25" y="50" as="sourcePoint" />
            <mxPoint x="25" y="10" as="targetPoint" />
          </mxGeometry>
        </mxCell>
        <mxCell id="w8OnQSHXTQ-QWMvcalfN-464" value="head" style="text;html=1;align=center;verticalAlign=middle;resizable=0;points=[];autosize=1;strokeColor=none;fillColor=none;fontSize=13;" vertex="1" parent="w8OnQSHXTQ-QWMvcalfN-462">
          <mxGeometry y="40" width="50" height="30" as="geometry" />
        </mxCell>
        <mxCell id="w8OnQSHXTQ-QWMvcalfN-437" value="" style="endArrow=classic;html=1;rounded=0;strokeWidth=4;fontSize=12;" edge="1" parent="1">
          <mxGeometry width="50" height="50" relative="1" as="geometry">
            <mxPoint x="670" y="1250" as="sourcePoint" />
            <mxPoint x="670" y="1210" as="targetPoint" />
          </mxGeometry>
        </mxCell>
        <mxCell id="w8OnQSHXTQ-QWMvcalfN-518" value="&lt;font style=&quot;font-size: 22px;&quot;&gt;-100&lt;/font&gt;" style="rounded=0;whiteSpace=wrap;html=1;fillColor=#e3c800;strokeColor=#B09500;fontColor=#000000;" vertex="1" parent="1">
          <mxGeometry x="120.00142857142862" y="1320" width="50" height="40" as="geometry" />
        </mxCell>
        <mxCell id="w8OnQSHXTQ-QWMvcalfN-519" style="edgeStyle=orthogonalEdgeStyle;rounded=0;orthogonalLoop=1;jettySize=auto;html=1;fontSize=27;" edge="1" source="w8OnQSHXTQ-QWMvcalfN-520" parent="1">
          <mxGeometry relative="1" as="geometry">
            <mxPoint x="240" y="1340" as="targetPoint" />
          </mxGeometry>
        </mxCell>
        <mxCell id="w8OnQSHXTQ-QWMvcalfN-520" value="" style="rounded=0;whiteSpace=wrap;html=1;fillColor=#b1ddf0;strokeColor=#10739e;" vertex="1" parent="1">
          <mxGeometry x="170.00142857142862" y="1320" width="25" height="40" as="geometry" />
        </mxCell>
        <mxCell id="w8OnQSHXTQ-QWMvcalfN-521" value="" style="group" vertex="1" connectable="0" parent="1">
          <mxGeometry x="220" y="1360" width="50" height="60" as="geometry" />
        </mxCell>
        <mxCell id="w8OnQSHXTQ-QWMvcalfN-522" value="" style="endArrow=classic;html=1;rounded=0;strokeWidth=4;fontSize=13;" edge="1" parent="w8OnQSHXTQ-QWMvcalfN-521">
          <mxGeometry width="50" height="50" relative="1" as="geometry">
            <mxPoint x="25" y="40" as="sourcePoint" />
            <mxPoint x="25" as="targetPoint" />
          </mxGeometry>
        </mxCell>
        <mxCell id="w8OnQSHXTQ-QWMvcalfN-523" value="head" style="text;html=1;align=center;verticalAlign=middle;resizable=0;points=[];autosize=1;strokeColor=none;fillColor=none;fontSize=13;" vertex="1" parent="w8OnQSHXTQ-QWMvcalfN-521">
          <mxGeometry y="30" width="50" height="30" as="geometry" />
        </mxCell>
        <mxCell id="w8OnQSHXTQ-QWMvcalfN-524" value="" style="endArrow=classic;html=1;rounded=0;strokeWidth=4;fontSize=12;" edge="1" parent="1">
          <mxGeometry width="50" height="50" relative="1" as="geometry">
            <mxPoint x="790" y="1400" as="sourcePoint" />
            <mxPoint x="790" y="1360" as="targetPoint" />
          </mxGeometry>
        </mxCell>
        <mxCell id="w8OnQSHXTQ-QWMvcalfN-525" value="" style="endArrow=classic;html=1;rounded=0;strokeWidth=4;fontSize=12;" edge="1" parent="1">
          <mxGeometry width="50" height="50" relative="1" as="geometry">
            <mxPoint x="760" y="1420" as="sourcePoint" />
            <mxPoint x="760" y="1360" as="targetPoint" />
          </mxGeometry>
        </mxCell>
        <mxCell id="w8OnQSHXTQ-QWMvcalfN-526" value="tmp" style="text;html=1;align=center;verticalAlign=middle;resizable=0;points=[];autosize=1;strokeColor=none;fillColor=none;fontSize=12;" vertex="1" parent="1">
          <mxGeometry x="770" y="1390" width="40" height="30" as="geometry" />
        </mxCell>
        <mxCell id="w8OnQSHXTQ-QWMvcalfN-527" value="curr" style="text;html=1;align=center;verticalAlign=middle;resizable=0;points=[];autosize=1;strokeColor=none;fillColor=none;fontSize=12;" vertex="1" parent="1">
          <mxGeometry x="740" y="1410" width="40" height="30" as="geometry" />
        </mxCell>
        <mxCell id="w8OnQSHXTQ-QWMvcalfN-528" value="prev" style="text;html=1;align=center;verticalAlign=middle;resizable=0;points=[];autosize=1;strokeColor=none;fillColor=none;fontSize=12;" vertex="1" parent="1">
          <mxGeometry x="650" y="1390" width="50" height="30" as="geometry" />
        </mxCell>
        <mxCell id="w8OnQSHXTQ-QWMvcalfN-529" value="null" style="text;html=1;align=center;verticalAlign=middle;resizable=0;points=[];autosize=1;strokeColor=none;fillColor=none;fontSize=12;" vertex="1" parent="1">
          <mxGeometry x="410" y="1275" width="40" height="30" as="geometry" />
        </mxCell>
        <mxCell id="w8OnQSHXTQ-QWMvcalfN-498" value="" style="endArrow=classic;html=1;rounded=0;strokeWidth=4;fontSize=12;" edge="1" parent="1">
          <mxGeometry width="50" height="50" relative="1" as="geometry">
            <mxPoint x="670" y="1400" as="sourcePoint" />
            <mxPoint x="670" y="1360" as="targetPoint" />
          </mxGeometry>
        </mxCell>
        <mxCell id="w8OnQSHXTQ-QWMvcalfN-573" value="&lt;font style=&quot;font-size: 22px;&quot;&gt;-100&lt;/font&gt;" style="rounded=0;whiteSpace=wrap;html=1;fillColor=#e3c800;strokeColor=#B09500;fontColor=#000000;" vertex="1" parent="1">
          <mxGeometry x="120.00142857142862" y="1460" width="50" height="40" as="geometry" />
        </mxCell>
        <mxCell id="w8OnQSHXTQ-QWMvcalfN-574" style="edgeStyle=orthogonalEdgeStyle;rounded=0;orthogonalLoop=1;jettySize=auto;html=1;fontSize=27;" edge="1" source="w8OnQSHXTQ-QWMvcalfN-575" parent="1">
          <mxGeometry relative="1" as="geometry">
            <mxPoint x="240" y="1480" as="targetPoint" />
          </mxGeometry>
        </mxCell>
        <mxCell id="w8OnQSHXTQ-QWMvcalfN-575" value="" style="rounded=0;whiteSpace=wrap;html=1;fillColor=#b1ddf0;strokeColor=#10739e;" vertex="1" parent="1">
          <mxGeometry x="170.00142857142862" y="1460" width="25" height="40" as="geometry" />
        </mxCell>
        <mxCell id="w8OnQSHXTQ-QWMvcalfN-576" value="" style="group" vertex="1" connectable="0" parent="1">
          <mxGeometry x="220" y="1500" width="50" height="60" as="geometry" />
        </mxCell>
        <mxCell id="w8OnQSHXTQ-QWMvcalfN-577" value="" style="endArrow=classic;html=1;rounded=0;strokeWidth=4;fontSize=13;" edge="1" parent="w8OnQSHXTQ-QWMvcalfN-576">
          <mxGeometry width="50" height="50" relative="1" as="geometry">
            <mxPoint x="25" y="40" as="sourcePoint" />
            <mxPoint x="25" as="targetPoint" />
          </mxGeometry>
        </mxCell>
        <mxCell id="w8OnQSHXTQ-QWMvcalfN-578" value="head" style="text;html=1;align=center;verticalAlign=middle;resizable=0;points=[];autosize=1;strokeColor=none;fillColor=none;fontSize=13;" vertex="1" parent="w8OnQSHXTQ-QWMvcalfN-576">
          <mxGeometry y="30" width="50" height="30" as="geometry" />
        </mxCell>
        <mxCell id="w8OnQSHXTQ-QWMvcalfN-579" value="" style="endArrow=classic;html=1;rounded=0;strokeWidth=4;fontSize=12;" edge="1" parent="1">
          <mxGeometry width="50" height="50" relative="1" as="geometry">
            <mxPoint x="890" y="1540" as="sourcePoint" />
            <mxPoint x="890" y="1500" as="targetPoint" />
          </mxGeometry>
        </mxCell>
        <mxCell id="w8OnQSHXTQ-QWMvcalfN-580" value="" style="endArrow=classic;html=1;rounded=0;strokeWidth=4;fontSize=12;" edge="1" parent="1">
          <mxGeometry width="50" height="50" relative="1" as="geometry">
            <mxPoint x="860" y="1560" as="sourcePoint" />
            <mxPoint x="860" y="1500" as="targetPoint" />
          </mxGeometry>
        </mxCell>
        <mxCell id="w8OnQSHXTQ-QWMvcalfN-581" value="tmp" style="text;html=1;align=center;verticalAlign=middle;resizable=0;points=[];autosize=1;strokeColor=none;fillColor=none;fontSize=12;" vertex="1" parent="1">
          <mxGeometry x="870" y="1530" width="40" height="30" as="geometry" />
        </mxCell>
        <mxCell id="w8OnQSHXTQ-QWMvcalfN-582" value="curr" style="text;html=1;align=center;verticalAlign=middle;resizable=0;points=[];autosize=1;strokeColor=none;fillColor=none;fontSize=12;" vertex="1" parent="1">
          <mxGeometry x="840" y="1550" width="40" height="30" as="geometry" />
        </mxCell>
        <mxCell id="w8OnQSHXTQ-QWMvcalfN-583" value="prev" style="text;html=1;align=center;verticalAlign=middle;resizable=0;points=[];autosize=1;strokeColor=none;fillColor=none;fontSize=12;" vertex="1" parent="1">
          <mxGeometry x="750" y="1530" width="50" height="30" as="geometry" />
        </mxCell>
        <mxCell id="w8OnQSHXTQ-QWMvcalfN-584" value="" style="endArrow=classic;html=1;rounded=0;strokeWidth=4;fontSize=12;" edge="1" parent="1">
          <mxGeometry width="50" height="50" relative="1" as="geometry">
            <mxPoint x="770" y="1540" as="sourcePoint" />
            <mxPoint x="770" y="1500" as="targetPoint" />
          </mxGeometry>
        </mxCell>
        <mxCell id="w8OnQSHXTQ-QWMvcalfN-587" value="&lt;font style=&quot;font-size: 28px;&quot;&gt;Step-3&lt;/font&gt;" style="text;html=1;align=center;verticalAlign=middle;resizable=0;points=[];autosize=1;strokeColor=none;fillColor=none;fontSize=12;" vertex="1" parent="1">
          <mxGeometry x="115" y="1750" width="110" height="50" as="geometry" />
        </mxCell>
        <mxCell id="w8OnQSHXTQ-QWMvcalfN-632" value="&lt;font style=&quot;font-size: 22px;&quot;&gt;-100&lt;/font&gt;" style="rounded=0;whiteSpace=wrap;html=1;fillColor=#e3c800;strokeColor=#B09500;fontColor=#000000;" vertex="1" parent="1">
          <mxGeometry x="130.00142857142862" y="1860" width="50" height="40" as="geometry" />
        </mxCell>
        <mxCell id="w8OnQSHXTQ-QWMvcalfN-633" style="edgeStyle=orthogonalEdgeStyle;rounded=0;orthogonalLoop=1;jettySize=auto;html=1;fontSize=27;" edge="1" source="w8OnQSHXTQ-QWMvcalfN-634" parent="1">
          <mxGeometry relative="1" as="geometry">
            <mxPoint x="250" y="1880" as="targetPoint" />
          </mxGeometry>
        </mxCell>
        <mxCell id="w8OnQSHXTQ-QWMvcalfN-634" value="" style="rounded=0;whiteSpace=wrap;html=1;fillColor=#b1ddf0;strokeColor=#10739e;" vertex="1" parent="1">
          <mxGeometry x="180.00142857142862" y="1860" width="25" height="40" as="geometry" />
        </mxCell>
        <mxCell id="w8OnQSHXTQ-QWMvcalfN-635" value="" style="group" vertex="1" connectable="0" parent="1">
          <mxGeometry x="230" y="1900" width="50" height="60" as="geometry" />
        </mxCell>
        <mxCell id="w8OnQSHXTQ-QWMvcalfN-636" value="" style="endArrow=classic;html=1;rounded=0;strokeWidth=4;fontSize=13;" edge="1" parent="w8OnQSHXTQ-QWMvcalfN-635">
          <mxGeometry width="50" height="50" relative="1" as="geometry">
            <mxPoint x="25" y="40" as="sourcePoint" />
            <mxPoint x="25" as="targetPoint" />
          </mxGeometry>
        </mxCell>
        <mxCell id="w8OnQSHXTQ-QWMvcalfN-637" value="head" style="text;html=1;align=center;verticalAlign=middle;resizable=0;points=[];autosize=1;strokeColor=none;fillColor=none;fontSize=13;" vertex="1" parent="w8OnQSHXTQ-QWMvcalfN-635">
          <mxGeometry y="30" width="50" height="30" as="geometry" />
        </mxCell>
        <mxCell id="w8OnQSHXTQ-QWMvcalfN-638" value="" style="endArrow=classic;html=1;rounded=0;strokeWidth=4;fontSize=12;" edge="1" parent="1">
          <mxGeometry width="50" height="50" relative="1" as="geometry">
            <mxPoint x="900" y="1940" as="sourcePoint" />
            <mxPoint x="900" y="1900" as="targetPoint" />
          </mxGeometry>
        </mxCell>
        <mxCell id="w8OnQSHXTQ-QWMvcalfN-639" value="" style="endArrow=classic;html=1;rounded=0;strokeWidth=4;fontSize=12;" edge="1" parent="1">
          <mxGeometry width="50" height="50" relative="1" as="geometry">
            <mxPoint x="870" y="1960" as="sourcePoint" />
            <mxPoint x="870" y="1900" as="targetPoint" />
          </mxGeometry>
        </mxCell>
        <mxCell id="w8OnQSHXTQ-QWMvcalfN-640" value="tmp" style="text;html=1;align=center;verticalAlign=middle;resizable=0;points=[];autosize=1;strokeColor=none;fillColor=none;fontSize=12;" vertex="1" parent="1">
          <mxGeometry x="880" y="1930" width="40" height="30" as="geometry" />
        </mxCell>
        <mxCell id="w8OnQSHXTQ-QWMvcalfN-641" value="curr" style="text;html=1;align=center;verticalAlign=middle;resizable=0;points=[];autosize=1;strokeColor=none;fillColor=none;fontSize=12;" vertex="1" parent="1">
          <mxGeometry x="850" y="1950" width="40" height="30" as="geometry" />
        </mxCell>
        <mxCell id="w8OnQSHXTQ-QWMvcalfN-642" value="prev" style="text;html=1;align=center;verticalAlign=middle;resizable=0;points=[];autosize=1;strokeColor=none;fillColor=none;fontSize=12;" vertex="1" parent="1">
          <mxGeometry x="760" y="1930" width="50" height="30" as="geometry" />
        </mxCell>
        <mxCell id="w8OnQSHXTQ-QWMvcalfN-643" value="" style="endArrow=classic;html=1;rounded=0;strokeWidth=4;fontSize=12;" edge="1" parent="1">
          <mxGeometry width="50" height="50" relative="1" as="geometry">
            <mxPoint x="780" y="1940" as="sourcePoint" />
            <mxPoint x="780" y="1900" as="targetPoint" />
          </mxGeometry>
        </mxCell>
        <mxCell id="w8OnQSHXTQ-QWMvcalfN-647" value="i=0" style="text;html=1;align=center;verticalAlign=middle;resizable=0;points=[];autosize=1;strokeColor=none;fillColor=none;fontSize=12;" vertex="1" parent="1">
          <mxGeometry x="540" y="945" width="40" height="30" as="geometry" />
        </mxCell>
        <mxCell id="w8OnQSHXTQ-QWMvcalfN-648" value="i=1" style="text;html=1;align=center;verticalAlign=middle;resizable=0;points=[];autosize=1;strokeColor=none;fillColor=none;fontSize=12;" vertex="1" parent="1">
          <mxGeometry x="620" y="1085" width="40" height="30" as="geometry" />
        </mxCell>
        <mxCell id="w8OnQSHXTQ-QWMvcalfN-649" value="1=2" style="text;html=1;align=center;verticalAlign=middle;resizable=0;points=[];autosize=1;strokeColor=none;fillColor=none;fontSize=12;" vertex="1" parent="1">
          <mxGeometry x="720" y="1225" width="40" height="30" as="geometry" />
        </mxCell>
        <mxCell id="w8OnQSHXTQ-QWMvcalfN-650" value="i=3" style="text;html=1;align=center;verticalAlign=middle;resizable=0;points=[];autosize=1;strokeColor=none;fillColor=none;fontSize=12;" vertex="1" parent="1">
          <mxGeometry x="810" y="1385" width="40" height="30" as="geometry" />
        </mxCell>
      </root>
    </mxGraphModel>
  </diagram>
</mxfile>
